SplineFontDB: 3.2
FontName: TF2Build
FullName: TF2 Build
FamilyName: TF2 Build
Weight: Book
Copyright: Free for non-comorcial use. Andrea Wicklund/Valve corporation \n Extended by: Jakadak
Version: 2.0
ItalicAngle: 0
UnderlinePosition: -205
UnderlineWidth: 102
Ascent: 1536
Descent: 512
InvalidEm: 0
sfntRevision: 0x00010000
LayerCount: 2
Layer: 0 1 "Back" 1
Layer: 1 1 "Fore" 0
XUID: [1021 400 1947487990 31339]
StyleMap: 0x0040
FSType: 4
OS2Version: 3
OS2_WeightWidthSlopeOnly: 0
OS2_UseTypoMetrics: 0
CreationTime: 1263051083
ModificationTime: 1613075355
PfmFamily: 17
TTFWeight: 400
TTFWidth: 5
LineGap: 0
VLineGap: 0
Panose: 2 0 0 0 0 0 0 0 0 0
OS2TypoAscent: 1536
OS2TypoAOffset: 0
OS2TypoDescent: -512
OS2TypoDOffset: 0
OS2TypoLinegap: 0
OS2WinAscent: 1790
OS2WinAOffset: 0
OS2WinDescent: 368
OS2WinDOffset: 0
HheadAscent: 1536
HheadAOffset: 0
HheadDescent: -512
HheadDOffset: 0
OS2SubXSize: 1434
OS2SubYSize: 1331
OS2SubXOff: 0
OS2SubYOff: 287
OS2SupXSize: 1434
OS2SupYSize: 1331
OS2SupXOff: 0
OS2SupYOff: 977
OS2StrikeYSize: 102
OS2StrikeYPos: 512
OS2CapHeight: 1433
OS2XHeight: 1433
OS2Vendor: 'PYRS'
OS2CodePages: 00000001.00000000
OS2UnicodeRanges: 80000027.0000004a.00000000.00000000
Lookup: 258 0 0 "'kern' Horizontal Kerning lookup 0" { "'kern' Horizontal Kerning lookup 0 subtable"  } ['kern' ('DFLT' <'dflt' > 'cyrl' <'dflt' > 'latn' <'dflt' > ) ]
DEI: 91125
TtTable: prep
PUSHW_1
 30
CALL
PUSHW_1
 20
CALL
PUSHW_1
 10
CALL
PUSHW_1
 0
CALL
EndTTInstrs
TtTable: fpgm
PUSHW_1
 0
FDEF
MPPEM
PUSHW_1
 9
LT
IF
PUSHB_2
 1
 1
INSTCTRL
EIF
PUSHW_1
 511
SCANCTRL
PUSHW_1
 68
SCVTCI
PUSHW_2
 9
 3
SDS
SDB
ENDF
PUSHW_1
 1
FDEF
DUP
DUP
RCVT
ROUND[Black]
WCVTP
PUSHB_1
 1
ADD
ENDF
PUSHW_1
 2
FDEF
PUSHW_1
 1
LOOPCALL
POP
ENDF
PUSHW_1
 3
FDEF
DUP
GC[cur]
PUSHB_1
 3
CINDEX
GC[cur]
GT
IF
SWAP
EIF
DUP
ROLL
DUP
ROLL
MD[grid]
ABS
ROLL
DUP
GC[cur]
DUP
ROUND[Grey]
SUB
ABS
PUSHB_1
 4
CINDEX
GC[cur]
DUP
ROUND[Grey]
SUB
ABS
GT
IF
SWAP
NEG
ROLL
EIF
MDAP[rnd]
DUP
PUSHB_1
 0
GTEQ
IF
ROUND[Black]
DUP

StartChar: exclam
Encoding: 33 33 4
Width: 504
VWidth: 2008
Flags: W
LayerCount: 2
Fore
SplineSet
315 431 m 1,0,-1
 72 445 l 1,1,-1
 109 1375 l 1,2,-1
 399 1361 l 1,3,-1
 315 431 l 1,0,-1
0 110 m 0,4,5
 0 140 0 140 11.5 169.5 c 128,-1,6
 23 199 23 199 44.5 222 c 128,-1,7
 66 245 66 245 96.5 259.5 c 128,-1,8
 127 274 127 274 166 275 c 0,9,10
 208 276 208 276 240.5 261 c 128,-1,11
 273 246 273 246 295 222 c 128,-1,12
 317 198 317 198 327 168.5 c 128,-1,13
 337 139 337 139 336 110 c 0,14,15
 334 77 334 77 319.5 50 c 128,-1,16
 305 23 305 23 281.5 3.5 c 128,-1,17
 258 -16 258 -16 228 -27 c 128,-1,18
 198 -38 198 -38 166 -38 c 0,19,20
 135 -38 135 -38 105.5 -27 c 128,-1,21
 76 -16 76 -16 52.5 3.5 c 128,-1,22
 29 23 29 23 14.5 50 c 128,-1,23
 0 77 0 77 0 110 c 0,4,5
EndSplineSet
Validated: 33
EndChar

StartChar: quotedbl
Encoding: 34 34 5
Width: 483
VWidth: 2008
Flags: W
LayerCount: 2
Fore
SplineSet
190 1494 m 1,0,-1
 375 1494 l 1,1,-1
 328 1131 l 1,2,-1
 207 1148 l 1,3,-1
 190 1494 l 1,4,-1
 190 1494 l 1,0,-1
2 1482 m 1,5,-1
 172 1484 l 1,6,-1
 137 1131 l 1,7,-1
 29 1127 l 1,8,-1
 2 1482 l 1,9,-1
 2 1482 l 1,5,-1
EndSplineSet
Validated: 5
EndChar

StartChar: numbersign
Encoding: 35 35 6
Width: 1352
VWidth: 2008
Flags: W
LayerCount: 2
Fore
SplineSet
1180 548 m 1,0,-1
 1204 302 l 1,1,-1
 1008 302 l 1,2,-1
 983 81 l 1,3,-1
 786 105 l 1,4,-1
 786 277 l 1,5,-1
 516 277 l 1,6,-1
 516 56 l 1,7,-1
 270 56 l 1,8,-1
 270 253 l 1,9,-1
 74 253 l 1,10,-1
 49 449 l 1,11,-1
 270 474 l 1,12,-1
 270 720 l 1,13,-1
 0 720 l 1,14,-1
 0 941 l 1,15,-1
 270 941 l 1,16,-1
 246 1285 l 1,17,-1
 516 1285 l 1,18,-1
 516 966 l 1,19,-1
 836 966 l 1,20,-1
 860 1236 l 1,21,-1
 1106 1211 l 1,22,-1
 1081 966 l 1,23,-1
 1253 966 l 1,24,-1
 1253 744 l 1,25,-1
 1057 744 l 1,26,-1
 1032 523 l 1,27,-1
 1180 548 l 1,0,-1
516 499 m 1,28,-1
 811 523 l 1,29,-1
 836 744 l 1,30,-1
 516 720 l 1,31,-1
 516 499 l 1,28,-1
EndSplineSet
Validated: 1
EndChar

StartChar: dollar
Encoding: 36 36 7
Width: 799
VWidth: 2008
Flags: W
LayerCount: 2
Fore
SplineSet
282 1334 m 1,0,-1
 444 1334 l 1,1,-1
 413 1090 l 1,2,-1
 444 1088 l 2,3,4
 462 1088 462 1088 493 1082.5 c 128,-1,5
 524 1077 524 1077 561 1065 c 128,-1,6
 598 1053 598 1053 635.5 1035 c 128,-1,7
 673 1017 673 1017 704 992 c 1,8,-1
 590 798 l 1,9,10
 562 822 562 822 526.5 841.5 c 128,-1,11
 491 861 491 861 454.5 873 c 128,-1,12
 418 885 418 885 382.5 888.5 c 128,-1,13
 347 892 347 892 318.5 884 c 128,-1,14
 290 876 290 876 271 855 c 128,-1,15
 252 834 252 834 248 798 c 1,16,17
 248 753 248 753 272 720.5 c 128,-1,18
 296 688 296 688 331.5 661 c 128,-1,19
 367 634 367 634 408.5 607.5 c 128,-1,20
 450 581 450 581 484.5 547 c 128,-1,21
 519 513 519 513 540.5 467.5 c 128,-1,22
 562 422 562 422 559 357 c 1,23,24
 545 295 545 295 501 259 c 128,-1,25
 457 223 457 223 395 212 c 1,26,-1
 403 -1 l 1,27,-1
 256 -1 l 1,28,-1
 282 212 l 1,29,30
 239 217 239 217 197.5 232.5 c 128,-1,31
 156 248 156 248 124 265 c 0,32,33
 85 284 85 284 51 308 c 1,34,-1
 133 454 l 1,35,36
 207 392 207 392 266 378.5 c 128,-1,37
 325 365 325 365 362 390 c 0,38,39
 374 402 374 402 365.5 419.5 c 128,-1,40
 357 437 357 437 336 457 c 128,-1,41
 315 477 315 477 286.5 498.5 c 128,-1,42
 258 520 258 520 228.5 541 c 128,-1,43
 199 562 199 562 173 581 c 128,-1,44
 147 600 147 600 133 615 c 0,45,46
 125 622 125 622 102 641.5 c 128,-1,47
 79 661 79 661 56.5 693.5 c 128,-1,48
 34 726 34 726 21 772 c 128,-1,49
 8 818 8 818 20 880 c 0,50,51
 32 922 32 922 57 958 c 128,-1,52
 82 994 82 994 118.5 1021 c 128,-1,53
 155 1048 155 1048 201.5 1065.5 c 128,-1,54
 248 1083 248 1083 303 1088 c 1,55,-1
 282 1334 l 1,0,-1
EndSplineSet
Validated: 33
EndChar

StartChar: percent
Encoding: 37 37 8
Width: 1167
VWidth: 2008
Flags: W
LayerCount: 2
Fore
SplineSet
989 1179 m 1,0,-1
 223 46 l 1,1,-1
 51 169 l 1,2,-1
 838 1289 l 1,3,-1
 989 1179 l 1,0,-1
825 107 m 0,4,5
 778 107 778 107 737 125 c 128,-1,6
 696 143 696 143 665.5 174 c 128,-1,7
 635 205 635 205 617.5 246 c 128,-1,8
 600 287 600 287 600 333 c 256,9,10
 600 379 600 379 617.5 419.5 c 128,-1,11
 635 460 635 460 665.5 490 c 128,-1,12
 696 520 696 520 737 537 c 128,-1,13
 778 554 778 554 825 554 c 0,14,15
 875 554 875 554 917.5 537 c 128,-1,16
 960 520 960 520 991.5 490 c 128,-1,17
 1023 460 1023 460 1041 419.5 c 128,-1,18
 1059 379 1059 379 1059 333 c 256,19,20
 1059 287 1059 287 1041 246 c 128,-1,21
 1023 205 1023 205 991.5 174 c 128,-1,22
 960 143 960 143 917.5 125 c 128,-1,23
 875 107 875 107 825 107 c 0,4,5
826 426 m 0,24,25
 791 426 791 426 767 402 c 128,-1,26
 743 378 743 378 743 345 c 0,27,28
 743 310 743 310 767 287 c 128,-1,29
 791 264 791 264 826 264 c 0,30,31
 866 264 866 264 891 287 c 128,-1,32
 916 310 916 310 916 345 c 0,33,34
 916 378 916 378 891 402 c 128,-1,35
 866 426 866 426 826 426 c 0,24,25
238 1240 m 0,36,37
 190 1240 190 1240 148.5 1222 c 128,-1,38
 107 1204 107 1204 75.5 1173 c 128,-1,39
 44 1142 44 1142 26 1100.5 c 128,-1,40
 8 1059 8 1059 8 1011 c 0,41,42
 8 964 8 964 26 923 c 128,-1,43
 44 882 44 882 75.5 851 c 128,-1,44
 107 820 107 820 148.5 802.5 c 128,-1,45
 190 785 190 785 238 785 c 0,46,47
 289 785 289 785 332 802.5 c 128,-1,48
 375 820 375 820 407 851 c 128,-1,49
 439 882 439 882 457 923 c 128,-1,50
 475 964 475 964 475 1011 c 0,51,52
 475 1059 475 1059 457 1100.5 c 128,-1,53
 439 1142 439 1142 407 1173 c 128,-1,54
 375 1204 375 1204 332 1222 c 128,-1,55
 289 1240 289 1240 238 1240 c 0,36,37
238 909 m 0,56,57
 219 909 219 909 202.5 916 c 128,-1,58
 186 923 186 923 173.5 935.5 c 128,-1,59
 161 948 161 948 154 964 c 128,-1,60
 147 980 147 980 147 998 c 0,61,62
 147 1037 147 1037 173.5 1061.5 c 128,-1,63
 200 1086 200 1086 238 1086 c 0,64,65
 281 1086 281 1086 308.5 1061.5 c 128,-1,66
 336 1037 336 1037 336 998 c 0,67,68
 336 962 336 962 308.5 935.5 c 128,-1,69
 281 909 281 909 238 909 c 0,56,57
EndSplineSet
Validated: 9
EndChar

StartChar: ampersand
Encoding: 38 38 9
Width: 1266
VWidth: 2008
Flags: W
LayerCount: 2
Fore
SplineSet
981 -114 m 1,0,1
 956 -83 956 -83 923 -43 c 0,2,3
 895 -9 895 -9 857 36.5 c 128,-1,4
 819 82 819 82 772 138 c 1,5,6
 676 60 676 60 579 16.5 c 128,-1,7
 482 -27 482 -27 370 -30 c 0,8,9
 327 -31 327 -31 280.5 -22.5 c 128,-1,10
 234 -14 234 -14 191 5 c 128,-1,11
 148 24 148 24 111.5 53 c 128,-1,12
 75 82 75 82 50 122 c 128,-1,13
 25 162 25 162 15 213.5 c 128,-1,14
 5 265 5 265 16 329 c 0,15,16
 31 400 31 400 60.5 459.5 c 128,-1,17
 90 519 90 519 125 568 c 128,-1,18
 160 617 160 617 197 656.5 c 128,-1,19
 234 696 234 696 266 728 c 1,20,21
 187 833 187 833 156 920.5 c 128,-1,22
 125 1008 125 1008 129.5 1078 c 128,-1,23
 134 1148 134 1148 167.5 1200.5 c 128,-1,24
 201 1253 201 1253 250.5 1288 c 128,-1,25
 300 1323 300 1323 360 1340 c 128,-1,26
 420 1357 420 1357 477 1357 c 0,27,28
 541 1356 541 1356 592 1336 c 128,-1,29
 643 1316 643 1316 679.5 1280 c 128,-1,30
 716 1244 716 1244 738 1194 c 128,-1,31
 760 1144 760 1144 766 1084 c 0,32,33
 770 1036 770 1036 754.5 992 c 128,-1,34
 739 948 739 948 711.5 905.5 c 128,-1,35
 684 863 684 863 647 822.5 c 128,-1,36
 610 782 610 782 571 742 c 1,37,38
 595 710 595 710 618 683.5 c 128,-1,39
 641 657 641 657 666 630.5 c 128,-1,40
 691 604 691 604 717.5 577 c 128,-1,41
 744 550 744 550 776 519 c 1,42,43
 786 534 786 534 799.5 552 c 128,-1,44
 813 570 813 570 826 586.5 c 128,-1,45
 839 603 839 603 849 617 c 128,-1,46
 859 631 859 631 862 640 c 1,47,-1
 1044 474 l 1,48,49
 1016 434 1016 434 987.5 395.5 c 128,-1,50
 959 357 959 357 938 329 c 1,51,52
 986 281 986 281 1028 235.5 c 128,-1,53
 1070 190 1070 190 1102 154 c 0,54,55
 1139 112 1139 112 1171 75 c 1,56,-1
 981 -114 l 1,0,1
518 1027 m 0,57,58
 518 1060 518 1060 504.5 1081.5 c 128,-1,59
 491 1103 491 1103 472 1113 c 128,-1,60
 453 1123 453 1123 431 1121 c 128,-1,61
 409 1119 409 1119 392 1103.5 c 128,-1,62
 375 1088 375 1088 366.5 1059.5 c 128,-1,63
 358 1031 358 1031 366 988 c 0,64,65
 369 971 369 971 383 944 c 128,-1,66
 397 917 397 917 426 873 c 1,67,68
 468 902 468 902 493 942 c 128,-1,69
 518 982 518 982 518 1027 c 0,57,58
315 269 m 0,70,71
 362 221 362 221 435 240.5 c 128,-1,72
 508 260 508 260 592 345 c 1,73,74
 570 373 570 373 546.5 400 c 128,-1,75
 523 427 523 427 501 452.5 c 128,-1,76
 479 478 479 478 459.5 501.5 c 128,-1,77
 440 525 440 525 426 546 c 1,78,79
 391 512 391 512 359.5 475.5 c 128,-1,80
 328 439 328 439 309 402.5 c 128,-1,81
 290 366 290 366 289 331.5 c 128,-1,82
 288 297 288 297 315 269 c 0,70,71
EndSplineSet
Validated: 33
EndChar

StartChar: quotesingle
Encoding: 39 39 10
Width: 324
VWidth: 2008
Flags: W
LayerCount: 2
Fore
SplineSet
2 1496 m 5,0,-1
 221 1496 l 5,1,-1
 166 1066 l 5,2,-1
 23 1084 l 5,3,-1
 2 1496 l 5,0,-1
EndSplineSet
Validated: 1
EndChar

StartChar: parenleft
Encoding: 40 40 11
Width: 801
VWidth: 2008
Flags: W
LayerCount: 2
Fore
SplineSet
634 1496 m 1,0,-1
 701 1279 l 1,1,2
 660 1265 660 1265 610 1241.5 c 128,-1,3
 560 1218 560 1218 509 1182.5 c 128,-1,4
 458 1147 458 1147 410 1099.5 c 128,-1,5
 362 1052 362 1052 325 989 c 128,-1,6
 288 926 288 926 265.5 847 c 128,-1,7
 243 768 243 768 243 671 c 0,8,9
 243 595 243 595 262.5 526.5 c 128,-1,10
 282 458 282 458 313.5 399 c 128,-1,11
 345 340 345 340 385.5 290 c 128,-1,12
 426 240 426 240 468 200 c 128,-1,13
 510 160 510 160 551 130.5 c 128,-1,14
 592 101 592 101 624 83 c 1,15,-1
 509 -116 l 1,16,17
 265 17 265 17 135 218 c 128,-1,18
 5 419 5 419 3 689 c 0,19,20
 2 819 2 819 43.5 943.5 c 128,-1,21
 85 1068 85 1068 165.5 1174.5 c 128,-1,22
 246 1281 246 1281 364 1364.5 c 128,-1,23
 482 1448 482 1448 634 1496 c 1,0,-1
EndSplineSet
Validated: 33
EndChar

StartChar: parenright
Encoding: 41 41 12
Width: 799
VWidth: 2008
Flags: W
LayerCount: 2
Fore
SplineSet
68 1496 m 1,0,1
 220 1448 220 1448 337.5 1364.5 c 128,-1,2
 455 1281 455 1281 535.5 1174.5 c 128,-1,3
 616 1068 616 1068 657.5 943.5 c 128,-1,4
 699 819 699 819 698 689 c 0,5,6
 697 555 697 555 662 439 c 128,-1,7
 627 323 627 323 561.5 223.5 c 128,-1,8
 496 124 496 124 403 40 c 128,-1,9
 310 -44 310 -44 193 -116 c 1,10,-1
 78 83 l 1,11,12
 110 101 110 101 151 130.5 c 128,-1,13
 192 160 192 160 234 200 c 128,-1,14
 276 240 276 240 316.5 290 c 128,-1,15
 357 340 357 340 388.5 399 c 128,-1,16
 420 458 420 458 439.5 526.5 c 128,-1,17
 459 595 459 595 459 671 c 0,18,19
 459 768 459 768 436.5 847 c 128,-1,20
 414 926 414 926 377 989 c 128,-1,21
 340 1052 340 1052 292 1099.5 c 128,-1,22
 244 1147 244 1147 193 1182.5 c 128,-1,23
 142 1218 142 1218 91.5 1241.5 c 128,-1,24
 41 1265 41 1265 0 1279 c 1,25,-1
 68 1496 l 1,26,-1
 68 1496 l 1,0,1
EndSplineSet
Validated: 37
EndChar

StartChar: asterisk
Encoding: 42 42 13
Width: 799
VWidth: 2008
Flags: W
LayerCount: 2
Fore
SplineSet
694 1297 m 1,0,-1
 82 861 l 1,1,-1
 8 966 l 1,2,-1
 627 1394 l 1,3,-1
 694 1297 l 1,0,-1
592 843 m 1,4,-1
 6 1312 l 1,5,-1
 88 1410 l 1,6,-1
 668 929 l 1,7,-1
 592 843 l 1,4,-1
391 1494 m 1,8,-1
 410 787 l 1,9,-1
 289 785 l 1,10,-1
 283 1494 l 1,11,-1
 391 1494 l 1,8,-1
EndSplineSet
Validated: 5
EndChar

StartChar: plus
Encoding: 43 43 14
Width: 860
VWidth: 2008
Flags: W
LayerCount: 2
Fore
SplineSet
260 255 m 1,0,-1
 258 1035 l 1,1,-1
 473 1035 l 1,2,-1
 463 253 l 1,3,-1
 260 255 l 1,0,-1
2 769 m 1,4,-1
 752 781 l 1,5,-1
 754 566 l 1,6,-1
 0 564 l 1,7,-1
 2 769 l 1,4,-1
EndSplineSet
Validated: 5
EndChar

StartChar: comma
Encoding: 44 44 15
Width: 399
VWidth: 2008
Flags: W
LayerCount: 2
Fore
SplineSet
300 155 m 0,0,1
 303 139 303 139 305 120.5 c 128,-1,2
 307 102 307 102 304.5 81 c 128,-1,3
 302 60 302 60 293.5 36 c 128,-1,4
 285 12 285 12 267 -15 c 0,5,6
 252 -39 252 -39 232 -62.5 c 128,-1,7
 212 -86 212 -86 190 -107.5 c 128,-1,8
 168 -129 168 -129 145 -148.5 c 128,-1,9
 122 -168 122 -168 101 -183 c 1,10,-1
 28 -112 l 1,11,12
 54 -92 54 -92 73.5 -74.5 c 128,-1,13
 93 -57 93 -57 106 -43 c 0,14,15
 121 -28 121 -28 130 -15 c 1,16,17
 83 0 83 0 49 27.5 c 128,-1,18
 15 55 15 55 7 107 c 0,19,20
 2 138 2 138 10 166 c 128,-1,21
 18 194 18 194 35.5 216.5 c 128,-1,22
 53 239 53 239 77 254 c 128,-1,23
 101 269 101 269 130 273 c 0,24,25
 192 281 192 281 238 248.5 c 128,-1,26
 284 216 284 216 300 155 c 0,0,1
EndSplineSet
Validated: 33
EndChar

StartChar: hyphen
Encoding: 45 45 16
Width: 733
VWidth: 2008
Flags: W
LayerCount: 2
Fore
SplineSet
645 513 m 1,0,-1
 0 513 l 1,1,-1
 2 732 l 1,2,-1
 649 720 l 1,3,-1
 645 513 l 1,0,-1
EndSplineSet
Validated: 1
EndChar

StartChar: period
Encoding: 46 46 17
Width: 444
VWidth: 2008
Flags: W
LayerCount: 2
Fore
SplineSet
0 110 m 0,0,1
 0 140 0 140 11.5 169.5 c 128,-1,2
 23 199 23 199 44.5 222 c 128,-1,3
 66 245 66 245 96.5 259.5 c 128,-1,4
 127 274 127 274 166 275 c 0,5,6
 208 276 208 276 240.5 261 c 128,-1,7
 273 246 273 246 295 222 c 128,-1,8
 317 198 317 198 327 168.5 c 128,-1,9
 337 139 337 139 336 110 c 0,10,11
 334 77 334 77 319.5 50 c 128,-1,12
 305 23 305 23 281.5 3.5 c 128,-1,13
 258 -16 258 -16 228 -27 c 128,-1,14
 198 -38 198 -38 166 -38 c 0,15,16
 135 -38 135 -38 105.5 -27 c 128,-1,17
 76 -16 76 -16 52.5 3.5 c 128,-1,18
 29 23 29 23 14.5 50 c 128,-1,19
 0 77 0 77 0 110 c 0,0,1
EndSplineSet
Validated: 33
EndChar

StartChar: slash
Encoding: 47 47 18
Width: 877
VWidth: 2008
Flags: W
LayerCount: 2
Fore
SplineSet
0 97 m 1,0,-1
 557 1359 l 1,1,-1
 774 1250 l 1,2,-1
 238 5 l 1,3,-1
 0 97 l 1,0,-1
EndSplineSet
Validated: 1
EndChar

StartChar: zero
Encoding: 48 48 19
Width: 1372
VWidth: 2008
Flags: W
LayerCount: 2
Fore
SplineSet
637 1373 m 0,0,1
 723 1373 723 1373 803.5 1348.5 c 128,-1,2
 884 1324 884 1324 954 1279 c 128,-1,3
 1024 1234 1024 1234 1082.5 1171 c 128,-1,4
 1141 1108 1141 1108 1182.5 1031 c 128,-1,5
 1224 954 1224 954 1247 865.5 c 128,-1,6
 1270 777 1270 777 1270 681 c 256,7,8
 1270 585 1270 585 1247 497 c 128,-1,9
 1224 409 1224 409 1182.5 333 c 128,-1,10
 1141 257 1141 257 1082.5 194.5 c 128,-1,11
 1024 132 1024 132 954 87.5 c 128,-1,12
 884 43 884 43 803.5 19 c 128,-1,13
 723 -5 723 -5 637 -5 c 0,14,15
 550 -5 550 -5 469.5 19 c 128,-1,16
 389 43 389 43 318.5 87.5 c 128,-1,17
 248 132 248 132 189.5 194.5 c 128,-1,18
 131 257 131 257 89.5 333 c 128,-1,19
 48 409 48 409 25 497 c 128,-1,20
 2 585 2 585 2 681 c 256,21,22
 2 777 2 777 25 865.5 c 128,-1,23
 48 954 48 954 89.5 1031 c 128,-1,24
 131 1108 131 1108 189.5 1171 c 128,-1,25
 248 1234 248 1234 318.5 1279 c 128,-1,26
 389 1324 389 1324 469.5 1348.5 c 128,-1,27
 550 1373 550 1373 637 1373 c 0,0,1
637 243 m 0,28,29
 685 243 685 243 738 266 c 128,-1,30
 791 289 791 289 836 333.5 c 128,-1,31
 881 378 881 378 910.5 444 c 128,-1,32
 940 510 940 510 940 597 c 0,33,34
 940 683 940 683 914 750 c 128,-1,35
 888 817 888 817 845 863 c 128,-1,36
 802 909 802 909 748 933 c 128,-1,37
 694 957 694 957 637 957 c 0,38,39
 579 957 579 957 525 933 c 128,-1,40
 471 909 471 909 429 863 c 128,-1,41
 387 817 387 817 361.5 750 c 128,-1,42
 336 683 336 683 336 597 c 0,43,44
 336 510 336 510 364 444 c 128,-1,45
 392 378 392 378 436 333.5 c 128,-1,46
 480 289 480 289 533 266 c 128,-1,47
 586 243 586 243 637 243 c 0,28,29
EndSplineSet
Validated: 1
EndChar

StartChar: one
Encoding: 49 49 20
Width: 799
VWidth: 2008
Flags: W
LayerCount: 2
Fore
SplineSet
666 1336 m 1,0,-1
 608 -5 l 1,1,-1
 262 13 l 1,2,-1
 297 949 l 1,3,-1
 207 857 l 1,4,-1
 41 1056 l 1,5,-1
 346 1357 l 1,6,-1
 666 1336 l 1,0,-1
EndSplineSet
Validated: 1
EndChar

StartChar: two
Encoding: 50 50 21
Width: 1190
VWidth: 2008
Flags: W
LayerCount: 2
Fore
SplineSet
993 3 m 1,0,-1
 172 3 l 1,1,-1
 172 230 l 1,2,3
 215 234 215 234 269.5 255.5 c 128,-1,4
 324 277 324 277 382 311 c 128,-1,5
 440 345 440 345 497.5 390 c 128,-1,6
 555 435 555 435 603.5 486.5 c 128,-1,7
 652 538 652 538 687 594 c 128,-1,8
 722 650 722 650 735 706 c 128,-1,9
 748 762 748 762 735 816 c 128,-1,10
 722 870 722 870 674 918 c 0,11,12
 635 958 635 958 578.5 964 c 128,-1,13
 522 970 522 970 460.5 952 c 128,-1,14
 399 934 399 934 339 897 c 128,-1,15
 279 860 279 860 231 814 c 1,16,-1
 0 1144 l 1,17,18
 10 1158 10 1158 35 1180.5 c 128,-1,19
 60 1203 60 1203 98 1228.5 c 128,-1,20
 136 1254 136 1254 186 1280 c 128,-1,21
 236 1306 236 1306 295 1326.5 c 128,-1,22
 354 1347 354 1347 421 1360 c 128,-1,23
 488 1373 488 1373 561 1373 c 0,24,25
 609 1373 609 1373 663 1368 c 128,-1,26
 717 1363 717 1363 771 1347.5 c 128,-1,27
 825 1332 825 1332 876 1303 c 128,-1,28
 927 1274 927 1274 969 1227 c 128,-1,29
 1011 1180 1011 1180 1042 1112 c 128,-1,30
 1073 1044 1073 1044 1087 949 c 0,31,32
 1096 887 1096 887 1083.5 823.5 c 128,-1,33
 1071 760 1071 760 1043.5 699 c 128,-1,34
 1016 638 1016 638 977.5 581 c 128,-1,35
 939 524 939 524 898 474 c 0,36,37
 801 356 801 356 672 249 c 1,38,-1
 989 249 l 1,39,-1
 993 3 l 1,0,-1
EndSplineSet
Validated: 33
EndChar

StartChar: three
Encoding: 51 51 22
Width: 1188
VWidth: 2008
Flags: W
LayerCount: 2
Fore
SplineSet
152 138 m 1,0,-1
 264 331 l 1,1,2
 331 288 331 288 388.5 266.5 c 128,-1,3
 446 245 446 245 493 239.5 c 128,-1,4
 540 234 540 234 576.5 241.5 c 128,-1,5
 613 249 613 249 637 263.5 c 128,-1,6
 661 278 661 278 672.5 296 c 128,-1,7
 684 314 684 314 682 331 c 0,8,9
 677 366 677 366 656 389.5 c 128,-1,10
 635 413 635 413 604 427 c 128,-1,11
 573 441 573 441 534.5 448 c 128,-1,12
 496 455 496 455 456.5 457.5 c 128,-1,13
 417 460 417 460 380 460 c 128,-1,14
 343 460 343 460 315 460 c 1,15,-1
 313 667 l 1,16,17
 434 667 434 667 521 688 c 128,-1,18
 608 709 608 709 656.5 743.5 c 128,-1,19
 705 778 705 778 715 822.5 c 128,-1,20
 725 867 725 867 694 914 c 0,21,22
 667 954 667 954 615.5 965 c 128,-1,23
 564 976 564 976 497.5 962 c 128,-1,24
 431 948 431 948 355.5 911.5 c 128,-1,25
 280 875 280 875 207 820 c 1,26,-1
 0 1146 l 1,27,28
 12 1156 12 1156 39 1176.5 c 128,-1,29
 66 1197 66 1197 105.5 1222 c 128,-1,30
 145 1247 145 1247 194.5 1274 c 128,-1,31
 244 1301 244 1301 301 1323 c 128,-1,32
 358 1345 358 1345 421.5 1359 c 128,-1,33
 485 1373 485 1373 551 1373 c 0,34,35
 598 1373 598 1373 655 1367.5 c 128,-1,36
 712 1362 712 1362 770.5 1346.5 c 128,-1,37
 829 1331 829 1331 885.5 1304 c 128,-1,38
 942 1277 942 1277 988 1234.5 c 128,-1,39
 1034 1192 1034 1192 1066 1132.5 c 128,-1,40
 1098 1073 1098 1073 1108 992 c 0,41,42
 1115 935 1115 935 1103.5 886 c 128,-1,43
 1092 837 1092 837 1069 796 c 128,-1,44
 1046 755 1046 755 1014 721.5 c 128,-1,45
 982 688 982 688 948 661 c 0,46,47
 867 599 867 599 760 558 c 1,48,49
 831 533 831 533 881 491 c 0,50,51
 902 473 902 473 921 449.5 c 128,-1,52
 940 426 940 426 952.5 396.5 c 128,-1,53
 965 367 965 367 968 331 c 128,-1,54
 971 295 971 295 961 253 c 0,55,56
 944 185 944 185 896.5 133.5 c 128,-1,57
 849 82 849 82 781 48.5 c 128,-1,58
 713 15 713 15 631.5 2 c 128,-1,59
 550 -11 550 -11 465.5 -1.5 c 128,-1,60
 381 8 381 8 299.5 42.5 c 128,-1,61
 218 77 218 77 152 138 c 1,0,-1
EndSplineSet
Validated: 33
EndChar

StartChar: four
Encoding: 52 52 23
Width: 1323
VWidth: 2008
Flags: W
LayerCount: 2
Fore
SplineSet
1169 617 m 1,0,-1
 1169 382 l 1,1,-1
 952 382 l 1,2,-1
 952 -13 l 1,3,-1
 664 -13 l 1,4,-1
 664 376 l 1,5,-1
 2 376 l 1,6,-1
 0 583 l 1,7,-1
 653 1365 l 1,8,-1
 952 1365 l 1,9,-1
 958 617 l 1,10,-1
 1169 617 l 1,0,-1
420 599 m 1,11,-1
 684 597 l 1,12,-1
 696 947 l 1,13,-1
 420 599 l 1,11,-1
EndSplineSet
Validated: 1
EndChar

StartChar: five
Encoding: 53 53 24
Width: 1096
VWidth: 2008
Flags: W
LayerCount: 2
Fore
SplineSet
283 -15 m 1,0,-1
 242 216 l 1,1,2
 324 221 324 221 390 240 c 0,3,4
 418 248 418 248 445.5 260 c 128,-1,5
 473 272 473 272 495 288.5 c 128,-1,6
 517 305 517 305 531.5 327 c 128,-1,7
 546 349 546 349 549 378 c 0,8,9
 553 422 553 422 530.5 448.5 c 128,-1,10
 508 475 508 475 466.5 488.5 c 128,-1,11
 425 502 425 502 369 505.5 c 128,-1,12
 313 509 313 509 250.5 507.5 c 128,-1,13
 188 506 188 506 123.5 502.5 c 128,-1,14
 59 499 59 499 0 499 c 1,15,-1
 0 1365 l 1,16,-1
 995 1365 l 1,17,-1
 995 968 l 1,18,-1
 315 968 l 1,19,-1
 315 755 l 1,20,21
 468 755 468 755 567 733.5 c 128,-1,22
 666 712 666 712 725.5 673 c 128,-1,23
 785 634 785 634 811.5 579.5 c 128,-1,24
 838 525 838 525 846 458 c 0,25,26
 851 413 851 413 843.5 363 c 128,-1,27
 836 313 836 313 812 263 c 128,-1,28
 788 213 788 213 745.5 166.5 c 128,-1,29
 703 120 703 120 639 82 c 128,-1,30
 575 44 575 44 486.5 18.5 c 128,-1,31
 398 -7 398 -7 283 -15 c 1,0,-1
EndSplineSet
Validated: 33
EndChar

StartChar: six
Encoding: 54 54 25
Width: 983
VWidth: 2008
Flags: W
LayerCount: 2
Fore
SplineSet
468 -7 m 256,0,1
 365 -8 365 -8 278.5 32.5 c 128,-1,2
 192 73 192 73 130.5 142.5 c 128,-1,3
 69 212 69 212 35.5 304.5 c 128,-1,4
 2 397 2 397 5 501 c 0,5,6
 8 627 8 627 37.5 738.5 c 128,-1,7
 67 850 67 850 116.5 944.5 c 128,-1,8
 166 1039 166 1039 234 1117 c 128,-1,9
 302 1195 302 1195 382.5 1254 c 128,-1,10
 463 1313 463 1313 553.5 1352.5 c 128,-1,11
 644 1392 644 1392 740 1412 c 1,12,-1
 869 1056 l 1,13,14
 739 1033 739 1033 632 981 c 0,15,16
 586 958 586 958 540 927 c 128,-1,17
 494 896 494 896 455 854.5 c 128,-1,18
 416 813 416 813 387 760 c 128,-1,19
 358 707 358 707 345 640 c 1,20,21
 360 646 360 646 381.5 656.5 c 128,-1,22
 403 667 403 667 429 673 c 0,23,24
 511 691 511 691 588.5 681 c 128,-1,25
 666 671 666 671 728.5 634 c 128,-1,26
 791 597 791 597 833 534 c 128,-1,27
 875 471 875 471 886 384 c 0,28,29
 894 317 894 317 868.5 248 c 128,-1,30
 843 179 843 179 788.5 122.5 c 128,-1,31
 734 66 734 66 652.5 30 c 128,-1,32
 571 -6 571 -6 468 -7 c 256,0,1
624 347 m 0,33,34
 614 374 614 374 594 390 c 128,-1,35
 574 406 574 406 549 412.5 c 128,-1,36
 524 419 524 419 497.5 417.5 c 128,-1,37
 471 416 471 416 449 409 c 0,38,39
 393 383 393 383 374 345.5 c 128,-1,40
 355 308 355 308 361 273 c 0,41,42
 364 254 364 254 377 238 c 128,-1,43
 390 222 390 222 410 211.5 c 128,-1,44
 430 201 430 201 455 197 c 128,-1,45
 480 193 480 193 509 198 c 0,46,47
 535 202 535 202 559.5 216.5 c 128,-1,48
 584 231 584 231 601.5 252 c 128,-1,49
 619 273 619 273 626 298 c 128,-1,50
 633 323 633 323 624 347 c 0,33,34
EndSplineSet
Validated: 33
EndChar

StartChar: seven
Encoding: 55 55 26
Width: 1159
VWidth: 2008
Flags: W
LayerCount: 2
Fore
SplineSet
436 -11 m 1,0,-1
 160 130 l 1,1,-1
 678 998 l 1,2,-1
 6 980 l 1,3,-1
 0 1363 l 1,4,-1
 1059 1359 l 1,5,-1
 1059 1068 l 1,6,-1
 436 -11 l 1,0,-1
EndSplineSet
Validated: 1
EndChar

StartChar: eight
Encoding: 56 56 27
Width: 1165
VWidth: 2008
Flags: W
LayerCount: 2
Fore
SplineSet
1063 914 m 0,0,1
 1063 857 1063 857 1045.5 803.5 c 128,-1,2
 1028 750 1028 750 997 703 c 128,-1,3
 966 656 966 656 923.5 617 c 128,-1,4
 881 578 881 578 831 550 c 1,5,6
 876 503 876 503 903 448.5 c 128,-1,7
 930 394 930 394 930 335 c 0,8,9
 930 263 930 263 896 199.5 c 128,-1,10
 862 136 862 136 803.5 89.5 c 128,-1,11
 745 43 745 43 667 16 c 128,-1,12
 589 -11 589 -11 502 -11 c 256,13,14
 415 -11 415 -11 338 16 c 128,-1,15
 261 43 261 43 203 89.5 c 128,-1,16
 145 136 145 136 111.5 199.5 c 128,-1,17
 78 263 78 263 78 335 c 0,18,19
 78 364 78 364 87.5 396 c 128,-1,20
 97 428 97 428 113 458.5 c 128,-1,21
 129 489 129 489 149.5 517 c 128,-1,22
 170 545 170 545 193 566 c 1,23,24
 150 602 150 602 114.5 639.5 c 128,-1,25
 79 677 79 677 53.5 719 c 128,-1,26
 28 761 28 761 14 809 c 128,-1,27
 0 857 0 857 0 914 c 0,28,29
 0 1008 0 1008 41 1092.5 c 128,-1,30
 82 1177 82 1177 154.5 1240 c 128,-1,31
 227 1303 227 1303 326 1340 c 128,-1,32
 425 1377 425 1377 541 1377 c 0,33,34
 650 1377 650 1377 745 1340 c 128,-1,35
 840 1303 840 1303 910.5 1240 c 128,-1,36
 981 1177 981 1177 1022 1092.5 c 128,-1,37
 1063 1008 1063 1008 1063 914 c 0,0,1
522 1025 m 0,38,39
 477 1025 477 1025 439.5 1013 c 128,-1,40
 402 1001 402 1001 374 978.5 c 128,-1,41
 346 956 346 956 330.5 925 c 128,-1,42
 315 894 315 894 315 857 c 0,43,44
 315 822 315 822 333.5 793 c 128,-1,45
 352 764 352 764 381.5 743.5 c 128,-1,46
 411 723 411 723 448 712 c 128,-1,47
 485 701 485 701 522 701 c 0,48,49
 566 701 566 701 606.5 712 c 128,-1,50
 647 723 647 723 677.5 743 c 128,-1,51
 708 763 708 763 726.5 792 c 128,-1,52
 745 821 745 821 745 857 c 0,53,54
 745 894 745 894 729.5 925 c 128,-1,55
 714 956 714 956 685 978.5 c 128,-1,56
 656 1001 656 1001 614.5 1013 c 128,-1,57
 573 1025 573 1025 522 1025 c 0,38,39
502 218 m 0,58,59
 531 218 531 218 559.5 228.5 c 128,-1,60
 588 239 588 239 610 257.5 c 128,-1,61
 632 276 632 276 645.5 301 c 128,-1,62
 659 326 659 326 659 355 c 0,63,64
 659 377 659 377 645.5 397.5 c 128,-1,65
 632 418 632 418 610 434 c 128,-1,66
 588 450 588 450 559.5 460 c 128,-1,67
 531 470 531 470 502 470 c 0,68,69
 465 470 465 470 436 460 c 128,-1,70
 407 450 407 450 387.5 434 c 128,-1,71
 368 418 368 418 358 397.5 c 128,-1,72
 348 377 348 377 348 355 c 0,73,74
 348 296 348 296 387.5 257 c 128,-1,75
 427 218 427 218 502 218 c 0,58,59
EndSplineSet
Validated: 1
EndChar

StartChar: nine
Encoding: 57 57 28
Width: 1024
VWidth: 2008
Flags: W
LayerCount: 2
Fore
SplineSet
337 1353 m 0,0,1
 409 1368 409 1368 485.5 1362 c 128,-1,2
 562 1356 562 1356 632.5 1329 c 128,-1,3
 703 1302 703 1302 763.5 1254.5 c 128,-1,4
 824 1207 824 1207 865 1138 c 0,5,6
 937 1014 937 1014 950.5 870.5 c 128,-1,7
 964 727 964 727 929 574 c 0,8,9
 916 520 916 520 887.5 458.5 c 128,-1,10
 859 397 859 397 817.5 332.5 c 128,-1,11
 776 268 776 268 724.5 203.5 c 128,-1,12
 673 139 673 139 613.5 80 c 128,-1,13
 554 21 554 21 489 -30.5 c 128,-1,14
 424 -82 424 -82 357 -120 c 1,15,-1
 157 128 l 1,16,17
 173 135 173 135 208 154.5 c 128,-1,18
 243 174 243 174 288.5 204 c 128,-1,19
 334 234 334 234 383.5 273.5 c 128,-1,20
 433 313 433 313 477.5 360.5 c 128,-1,21
 522 408 522 408 556.5 463 c 128,-1,22
 591 518 591 518 605 578 c 1,23,24
 559 543 559 543 500.5 528 c 128,-1,25
 442 513 442 513 381 516.5 c 128,-1,26
 320 520 320 520 260 543.5 c 128,-1,27
 200 567 200 567 149 609.5 c 128,-1,28
 98 652 98 652 61 713 c 128,-1,29
 24 774 24 774 9 855 c 0,30,31
 0 901 0 901 2.5 952 c 128,-1,32
 5 1003 5 1003 19 1053.5 c 128,-1,33
 33 1104 33 1104 59.5 1152 c 128,-1,34
 86 1200 86 1200 125 1239.5 c 128,-1,35
 164 1279 164 1279 217 1308.5 c 128,-1,36
 270 1338 270 1338 337 1353 c 0,0,1
304 882 m 0,37,38
 299 861 299 861 307 838 c 128,-1,39
 315 815 315 815 334 795 c 128,-1,40
 353 775 353 775 382 761.5 c 128,-1,41
 411 748 411 748 449 746 c 0,42,43
 478 747 478 747 505.5 755 c 128,-1,44
 533 763 533 763 554 778.5 c 128,-1,45
 575 794 575 794 588 815.5 c 128,-1,46
 601 837 601 837 603 865 c 0,47,48
 604 899 604 899 588.5 923.5 c 128,-1,49
 573 948 573 948 550.5 963.5 c 128,-1,50
 528 979 528 979 501.5 985 c 128,-1,51
 475 991 475 991 454 990 c 0,52,53
 395 985 395 985 355.5 956.5 c 128,-1,54
 316 928 316 928 304 882 c 0,37,38
EndSplineSet
Validated: 33
EndChar

StartChar: colon
Encoding: 58 58 29
Width: 442
VWidth: 2008
Flags: W
LayerCount: 2
Fore
SplineSet
0 923 m 0,0,1
 0 954 0 954 11.5 983.5 c 128,-1,2
 23 1013 23 1013 44.5 1036 c 128,-1,3
 66 1059 66 1059 96.5 1073.5 c 128,-1,4
 127 1088 127 1088 166 1089 c 0,5,6
 208 1090 208 1090 240.5 1075 c 128,-1,7
 273 1060 273 1060 295 1036 c 128,-1,8
 317 1012 317 1012 327 982 c 128,-1,9
 337 952 337 952 336 923 c 0,10,11
 334 891 334 891 319.5 864 c 128,-1,12
 305 837 305 837 281.5 817.5 c 128,-1,13
 258 798 258 798 228 787 c 128,-1,14
 198 776 198 776 166 776 c 0,15,16
 135 776 135 776 105.5 787 c 128,-1,17
 76 798 76 798 52.5 817.5 c 128,-1,18
 29 837 29 837 14.5 864 c 128,-1,19
 0 891 0 891 0 923 c 0,0,1
0 251 m 0,20,21
 0 282 0 282 12 309 c 128,-1,22
 24 336 24 336 44 355.5 c 128,-1,23
 64 375 64 375 90.5 386 c 128,-1,24
 117 397 117 397 147 397 c 0,25,26
 178 397 178 397 205.5 385.5 c 128,-1,27
 233 374 233 374 253.5 354 c 128,-1,28
 274 334 274 334 285.5 307.5 c 128,-1,29
 297 281 297 281 297 251 c 0,30,31
 297 219 297 219 285.5 192 c 128,-1,32
 274 165 274 165 253.5 145.5 c 128,-1,33
 233 126 233 126 205.5 115 c 128,-1,34
 178 104 178 104 147 104 c 0,35,36
 115 104 115 104 88 115 c 128,-1,37
 61 126 61 126 41.5 145.5 c 128,-1,38
 22 165 22 165 11 192 c 128,-1,39
 0 219 0 219 0 251 c 0,20,21
EndSplineSet
Validated: 33
EndChar

StartChar: semicolon
Encoding: 59 59 30
Width: 420
VWidth: 2008
Flags: W
LayerCount: 2
Fore
SplineSet
0 946 m 0,0,1
 0 976 0 976 11 1005 c 128,-1,2
 22 1034 22 1034 43 1057 c 128,-1,3
 64 1080 64 1080 94 1094 c 128,-1,4
 124 1108 124 1108 162 1108 c 0,5,6
 193 1108 193 1108 219 1094 c 128,-1,7
 245 1080 245 1080 264 1057 c 128,-1,8
 283 1034 283 1034 294 1005 c 128,-1,9
 305 976 305 976 305 946 c 0,10,11
 305 915 305 915 294 885.5 c 128,-1,12
 283 856 283 856 264 833 c 128,-1,13
 245 810 245 810 219 796 c 128,-1,14
 193 782 193 782 162 782 c 0,15,16
 124 782 124 782 94 796 c 128,-1,17
 64 810 64 810 43 833 c 128,-1,18
 22 856 22 856 11 885.5 c 128,-1,19
 0 915 0 915 0 946 c 0,0,1
313 281 m 0,20,21
 298 342 298 342 251.5 374 c 128,-1,22
 205 406 205 406 143 399 c 0,23,24
 115 396 115 396 90.5 381 c 128,-1,25
 66 366 66 366 49 343.5 c 128,-1,26
 32 321 32 321 23.5 292.5 c 128,-1,27
 15 264 15 264 20 233 c 0,28,29
 24 207 24 207 35 187.5 c 128,-1,30
 46 168 46 168 62.5 153.5 c 128,-1,31
 79 139 79 139 99.5 128.5 c 128,-1,32
 120 118 120 118 143 111 c 1,33,34
 133 98 133 98 119 83 c 0,35,36
 106 69 106 69 87 51.5 c 128,-1,37
 68 34 68 34 41 14 c 1,38,-1
 115 -57 l 1,39,40
 136 -42 136 -42 158.5 -22 c 128,-1,41
 181 -2 181 -2 202.5 20 c 128,-1,42
 224 42 224 42 244.5 65 c 128,-1,43
 265 88 265 88 281 111 c 0,44,45
 298 134 298 134 306.5 157.5 c 128,-1,46
 315 181 315 181 317.5 203 c 128,-1,47
 320 225 320 225 318 245 c 128,-1,48
 316 265 316 265 313 281 c 0,20,21
EndSplineSet
Validated: 41
EndChar

StartChar: less
Encoding: 60 60 31
Width: 963
VWidth: 2008
Flags: W
LayerCount: 2
Fore
SplineSet
813 271 m 1,0,-1
 643 83 l 1,1,-1
 0 679 l 1,2,-1
 672 1258 l 1,3,-1
 856 1047 l 1,4,-1
 373 650 l 1,5,-1
 813 271 l 1,0,-1
EndSplineSet
Validated: 1
EndChar

StartChar: equal
Encoding: 61 61 32
Width: 944
VWidth: 2008
Flags: W
LayerCount: 2
Fore
SplineSet
844 705 m 1,0,-1
 29 689 l 1,1,-1
 31 906 l 1,2,-1
 848 894 l 1,3,-1
 844 705 l 1,0,-1
825 431 m 1,4,-1
 2 404 l 1,5,-1
 4 624 l 1,6,-1
 829 611 l 1,7,-1
 825 431 l 1,4,-1
EndSplineSet
Validated: 1
EndChar

StartChar: greater
Encoding: 62 62 33
Width: 961
VWidth: 2008
Flags: W
LayerCount: 2
Fore
SplineSet
483 650 m 1,0,-1
 0 1047 l 1,1,-1
 184 1258 l 1,2,-1
 856 679 l 1,3,-1
 213 83 l 1,4,-1
 43 271 l 1,5,-1
 483 650 l 1,0,-1
EndSplineSet
Validated: 1
EndChar

StartChar: question
Encoding: 63 63 34
Width: 1229
VWidth: 2008
Flags: W
LayerCount: 2
Fore
SplineSet
428 110 m 0,0,1
 428 138 428 138 438.5 165 c 128,-1,2
 449 192 449 192 468.5 213.5 c 128,-1,3
 488 235 488 235 516 248.5 c 128,-1,4
 544 262 544 262 580 263 c 0,5,6
 619 264 619 264 648.5 250 c 128,-1,7
 678 236 678 236 698 214 c 128,-1,8
 718 192 718 192 727 164.5 c 128,-1,9
 736 137 736 137 735 110 c 0,10,11
 733 81 733 81 720 56 c 128,-1,12
 707 31 707 31 685.5 13 c 128,-1,13
 664 -5 664 -5 637 -15.5 c 128,-1,14
 610 -26 610 -26 580 -26 c 0,15,16
 552 -26 552 -26 525 -15.5 c 128,-1,17
 498 -5 498 -5 476.5 13 c 128,-1,18
 455 31 455 31 441.5 56 c 128,-1,19
 428 81 428 81 428 110 c 0,0,1
465 441 m 1,20,21
 477 513 477 513 502.5 562.5 c 128,-1,22
 528 612 528 612 560 648 c 128,-1,23
 592 684 592 684 625.5 710.5 c 128,-1,24
 659 737 659 737 688 762 c 128,-1,25
 717 787 717 787 737.5 815 c 128,-1,26
 758 843 758 843 762 882 c 0,27,28
 768 943 768 943 744 981.5 c 128,-1,29
 720 1020 720 1020 675.5 1037 c 128,-1,30
 631 1054 631 1054 571 1051.5 c 128,-1,31
 511 1049 511 1049 446 1028.5 c 128,-1,32
 381 1008 381 1008 315.5 971 c 128,-1,33
 250 934 250 934 195 882 c 1,34,-1
 -2 1215 l 1,35,36
 56 1260 56 1260 117 1293.5 c 128,-1,37
 178 1327 178 1327 245 1349.5 c 128,-1,38
 312 1372 312 1372 387 1383 c 128,-1,39
 462 1394 462 1394 549 1394 c 0,40,41
 651 1394 651 1394 744 1371.5 c 128,-1,42
 837 1349 837 1349 912.5 1306.5 c 128,-1,43
 988 1264 988 1264 1041.5 1201.5 c 128,-1,44
 1095 1139 1095 1139 1118 1058 c 1,45,46
 1132 994 1132 994 1125 937.5 c 128,-1,47
 1118 881 1118 881 1098 833 c 128,-1,48
 1078 785 1078 785 1050 746.5 c 128,-1,49
 1022 708 1022 708 995 680 c 128,-1,50
 968 652 968 652 947 635.5 c 128,-1,51
 926 619 926 619 920 615 c 0,52,53
 899 598 899 598 874.5 581.5 c 128,-1,54
 850 565 850 565 823.5 540.5 c 128,-1,55
 797 516 797 516 770.5 478 c 128,-1,56
 744 440 744 440 719 380 c 1,57,-1
 465 441 l 1,20,21
EndSplineSet
Validated: 33
EndChar

StartChar: at
Encoding: 64 64 35
Width: 1411
VWidth: 2008
Flags: W
LayerCount: 2
Fore
SplineSet
1302 791 m 0,0,1
 1313 700 1313 700 1304 632.5 c 128,-1,2
 1295 565 1295 565 1273 517 c 128,-1,3
 1251 469 1251 469 1220 438.5 c 128,-1,4
 1189 408 1189 408 1157 390 c 128,-1,5
 1125 372 1125 372 1096.5 365.5 c 128,-1,6
 1068 359 1068 359 1051 359 c 0,7,8
 1035 359 1035 359 1014 363.5 c 128,-1,9
 993 368 993 368 971.5 376.5 c 128,-1,10
 950 385 950 385 929 397.5 c 128,-1,11
 908 410 908 410 891 427 c 1,12,13
 857 393 857 393 817 371.5 c 128,-1,14
 777 350 777 350 735 339 c 128,-1,15
 693 328 693 328 651 328 c 128,-1,16
 609 328 609 328 573 337 c 0,17,18
 522 349 522 349 480 370 c 128,-1,19
 438 391 438 391 407 421.5 c 128,-1,20
 376 452 376 452 359 493 c 128,-1,21
 342 534 342 534 342 585 c 0,22,23
 342 628 342 628 354.5 670 c 128,-1,24
 367 712 367 712 391 749 c 128,-1,25
 415 786 415 786 448.5 816 c 128,-1,26
 482 846 482 846 524 865 c 0,27,28
 593 896 593 896 663 896 c 128,-1,29
 733 896 733 896 801 859 c 1,30,-1
 960 859 l 1,31,32
 960 803 960 803 963 760.5 c 128,-1,33
 966 718 966 718 970.5 687 c 128,-1,34
 975 656 975 656 981.5 634.5 c 128,-1,35
 988 613 988 613 994 599 c 0,36,37
 1009 566 1009 566 1028 562 c 0,38,39
 1054 554 1054 554 1071.5 566 c 128,-1,40
 1089 578 1089 578 1097.5 606.5 c 128,-1,41
 1106 635 1106 635 1106 676.5 c 128,-1,42
 1106 718 1106 718 1098 769 c 0,43,44
 1080 846 1080 846 1039 902 c 128,-1,45
 998 958 998 958 942.5 994.5 c 128,-1,46
 887 1031 887 1031 821 1048.5 c 128,-1,47
 755 1066 755 1066 688 1066 c 0,48,49
 653 1066 653 1066 610 1062 c 128,-1,50
 567 1058 567 1058 521 1045 c 128,-1,51
 475 1032 475 1032 429.5 1007.5 c 128,-1,52
 384 983 384 983 346 943 c 0,53,54
 317 914 317 914 292 877 c 128,-1,55
 267 840 267 840 248 795 c 128,-1,56
 229 750 229 750 218 697.5 c 128,-1,57
 207 645 207 645 207 585 c 0,58,59
 207 509 207 509 227.5 452 c 128,-1,60
 248 395 248 395 279 353.5 c 128,-1,61
 310 312 310 312 344.5 284.5 c 128,-1,62
 379 257 379 257 408 239 c 0,63,64
 449 213 449 213 500 199 c 128,-1,65
 551 185 551 185 603.5 180.5 c 128,-1,66
 656 176 656 176 707.5 181 c 128,-1,67
 759 186 759 186 801 200 c 1,68,-1
 891 15 l 1,69,70
 823 -19 823 -19 740 -30 c 128,-1,71
 657 -41 657 -41 573 -33.5 c 128,-1,72
 489 -26 489 -26 411 -2 c 128,-1,73
 333 22 333 22 276 60 c 0,74,75
 142 151 142 151 71 285 c 128,-1,76
 0 419 0 419 2 611 c 0,77,78
 3 678 3 678 19 745 c 128,-1,79
 35 812 35 812 62.5 874 c 128,-1,80
 90 936 90 936 127 990 c 128,-1,81
 164 1044 164 1044 207 1086 c 0,82,83
 258 1138 258 1138 319.5 1173.5 c 128,-1,84
 381 1209 381 1209 445.5 1231 c 128,-1,85
 510 1253 510 1253 573 1262 c 128,-1,86
 636 1271 636 1271 688 1271 c 0,87,88
 790 1271 790 1271 892.5 1237.5 c 128,-1,89
 995 1204 995 1204 1080.5 1141.5 c 128,-1,90
 1166 1079 1166 1079 1225.5 990.5 c 128,-1,91
 1285 902 1285 902 1302 791 c 0,0,1
616 497 m 0,92,93
 633 494 633 494 655 495 c 128,-1,94
 677 496 677 496 699.5 503.5 c 128,-1,95
 722 511 722 511 742.5 525 c 128,-1,96
 763 539 763 539 776 562 c 0,97,98
 787 585 787 585 789 605.5 c 128,-1,99
 791 626 791 626 788 642 c 0,100,101
 784 660 784 660 776 677 c 0,102,103
 768 695 768 695 747.5 708.5 c 128,-1,104
 727 722 727 722 701 729.5 c 128,-1,105
 675 737 675 737 647 736.5 c 128,-1,106
 619 736 619 736 596 724 c 0,107,108
 583 717 583 717 570.5 704.5 c 128,-1,109
 558 692 558 692 548 677 c 128,-1,110
 538 662 538 662 532 645 c 128,-1,111
 526 628 526 628 526 611 c 0,112,113
 526 584 526 584 533.5 564.5 c 128,-1,114
 541 545 541 545 553.5 531 c 128,-1,115
 566 517 566 517 582 509 c 128,-1,116
 598 501 598 501 616 497 c 0,92,93
EndSplineSet
Validated: 33
EndChar

StartChar: A
Encoding: 65 65 36
Width: 1454
VWidth: 2008
Flags: W
LayerCount: 2
Fore
SplineSet
930 368 m 1,0,-1
 485 368 l 1,1,-1
 348 -40 l 1,2,-1
 0 56 l 1,3,-1
 524 1394 l 1,4,-1
 813 1375 l 1,5,-1
 1356 77 l 1,6,-1
 1085 -22 l 1,7,-1
 930 368 l 1,0,-1
852 542 m 1,8,-1
 678 949 l 1,9,-1
 543 542 l 1,10,-1
 852 542 l 1,8,-1
EndSplineSet
Validated: 1
EndChar

StartChar: B
Encoding: 66 66 37
Width: 1230
VWidth: 2008
Flags: W
LayerCount: 2
Fore
SplineSet
1114 1013 m 0,0,1
 1123 969 1123 969 1119 916 c 128,-1,2
 1115 863 1115 863 1097 811 c 128,-1,3
 1079 759 1079 759 1047 712 c 128,-1,4
 1015 665 1015 665 969 634 c 0,5,6
 944 617 944 617 920.5 605.5 c 128,-1,7
 897 594 897 594 873 585.5 c 128,-1,8
 849 577 849 577 823 570 c 128,-1,9
 797 563 797 563 768 556 c 1,10,11
 842 513 842 513 887 466 c 128,-1,12
 932 419 932 419 950 351 c 0,13,14
 959 321 959 321 959 286 c 128,-1,15
 959 251 959 251 951 215.5 c 128,-1,16
 943 180 943 180 926 146.5 c 128,-1,17
 909 113 909 113 883 87 c 0,18,19
 839 43 839 43 776.5 18 c 128,-1,20
 714 -7 714 -7 647 -19.5 c 128,-1,21
 580 -32 580 -32 517 -35.5 c 128,-1,22
 454 -39 454 -39 410 -40 c 2,23,-1
 39 -40 l 1,24,-1
 0 1383 l 1,25,-1
 391 1404 l 2,26,27
 427 1404 427 1404 468.5 1403.5 c 128,-1,28
 510 1403 510 1403 558.5 1399 c 128,-1,29
 607 1395 607 1395 663 1386 c 128,-1,30
 719 1377 719 1377 784 1361 c 0,31,32
 848 1345 848 1345 905 1312 c 128,-1,33
 962 1279 962 1279 1006 1233 c 128,-1,34
 1050 1187 1050 1187 1078 1131 c 128,-1,35
 1106 1075 1106 1075 1114 1013 c 0,0,1
406 171 m 1,36,37
 421 170 421 170 449.5 168.5 c 128,-1,38
 478 167 478 167 511.5 169 c 128,-1,39
 545 171 545 171 579.5 177 c 128,-1,40
 614 183 614 183 640.5 198 c 128,-1,41
 667 213 667 213 682.5 237.5 c 128,-1,42
 698 262 698 262 694 300 c 0,43,44
 688 354 688 354 656.5 380.5 c 128,-1,45
 625 407 625 407 581.5 416.5 c 128,-1,46
 538 426 538 426 490 423.5 c 128,-1,47
 442 421 442 421 403 417 c 1,48,-1
 406 171 l 1,36,37
387 703 m 1,49,50
 398 703 398 703 431 700 c 128,-1,51
 464 697 464 697 506.5 698.5 c 128,-1,52
 549 700 549 700 595 708.5 c 128,-1,53
 641 717 641 717 678.5 738.5 c 128,-1,54
 716 760 716 760 738 797 c 128,-1,55
 760 834 760 834 756 894 c 0,56,57
 751 949 751 949 722 983 c 128,-1,58
 693 1017 693 1017 643.5 1034 c 128,-1,59
 594 1051 594 1051 527.5 1054 c 128,-1,60
 461 1057 461 1057 381 1050 c 1,61,-1
 387 703 l 1,49,50
EndSplineSet
Validated: 33
EndChar

StartChar: C
Encoding: 67 67 38
Width: 1351
VWidth: 2008
Flags: W
LayerCount: 2
Fore
SplineSet
1185 46 m 1,0,1
 1149 17 1149 17 1100.5 -2 c 128,-1,2
 1052 -21 1052 -21 998 -31.5 c 128,-1,3
 944 -42 944 -42 888.5 -46 c 128,-1,4
 833 -50 833 -50 783 -50 c 0,5,6
 687 -50 687 -50 592.5 -27 c 128,-1,7
 498 -4 498 -4 412.5 39 c 128,-1,8
 327 82 327 82 254 142.5 c 128,-1,9
 181 203 181 203 127.5 277.5 c 128,-1,10
 74 352 74 352 43.5 439 c 128,-1,11
 13 526 13 526 13 622 c 1,12,13
 8 728 8 728 29 827.5 c 128,-1,14
 50 927 50 927 95 1014.5 c 128,-1,15
 140 1102 140 1102 208.5 1174.5 c 128,-1,16
 277 1247 277 1247 368.5 1299.5 c 128,-1,17
 460 1352 460 1352 573 1381 c 128,-1,18
 686 1410 686 1410 820 1410 c 0,19,20
 907 1410 907 1410 984.5 1397.5 c 128,-1,21
 1062 1385 1062 1385 1121.5 1368.5 c 128,-1,22
 1181 1352 1181 1352 1218 1336.5 c 128,-1,23
 1255 1321 1255 1321 1262 1314 c 1,24,-1
 1262 949 l 1,25,26
 1241 963 1241 963 1199.5 979.5 c 128,-1,27
 1158 996 1158 996 1104 1008.5 c 128,-1,28
 1050 1021 1050 1021 986.5 1026.5 c 128,-1,29
 923 1032 923 1032 859 1025 c 1,30,31
 820 1025 820 1025 768.5 1015 c 128,-1,32
 717 1005 717 1005 663 982.5 c 128,-1,33
 609 960 609 960 558.5 924.5 c 128,-1,34
 508 889 508 889 471.5 837.5 c 128,-1,35
 435 786 435 786 419 718 c 128,-1,36
 403 650 403 650 417 564 c 0,37,38
 431 492 431 492 479 437.5 c 128,-1,39
 527 383 527 383 594.5 346 c 128,-1,40
 662 309 662 309 743 290.5 c 128,-1,41
 824 272 824 272 904.5 270.5 c 128,-1,42
 985 269 985 269 1058.5 285 c 128,-1,43
 1132 301 1132 301 1185 335 c 1,44,-1
 1185 46 l 1,0,1
EndSplineSet
Validated: 33
EndChar

StartChar: D
Encoding: 68 68 39
Width: 1487
VWidth: 2008
Flags: W
LayerCount: 2
Fore
SplineSet
1372 834 m 256,0,1
 1397 702 1397 702 1379 587.5 c 128,-1,2
 1361 473 1361 473 1310 379 c 128,-1,3
 1259 285 1259 285 1178 211.5 c 128,-1,4
 1097 138 1097 138 995 86.5 c 128,-1,5
 893 35 893 35 774 6 c 128,-1,6
 655 -23 655 -23 528 -28 c 0,7,8
 380 -36 380 -36 283 -37 c 128,-1,9
 186 -38 186 -38 127 -36 c 0,10,11
 58 -34 58 -34 20 -28 c 1,12,-1
 0 1373 l 1,13,14
 61 1380 61 1380 128.5 1385.5 c 128,-1,15
 196 1391 196 1391 260 1394.5 c 128,-1,16
 324 1398 324 1398 379 1400 c 128,-1,17
 434 1402 434 1402 471 1402 c 0,18,19
 535 1402 535 1402 619.5 1396.5 c 128,-1,20
 704 1391 704 1391 796 1372 c 128,-1,21
 888 1353 888 1353 980 1316 c 128,-1,22
 1072 1279 1072 1279 1151 1216 c 128,-1,23
 1230 1153 1230 1153 1288.5 1059.5 c 128,-1,24
 1347 966 1347 966 1372 834 c 256,0,1
352 243 m 1,25,26
 505 233 505 233 626.5 254.5 c 128,-1,27
 748 276 748 276 831 328 c 128,-1,28
 914 380 914 380 955 461.5 c 128,-1,29
 996 543 996 543 989 652 c 0,30,31
 985 722 985 722 961 775 c 128,-1,32
 937 828 937 828 899.5 866.5 c 128,-1,33
 862 905 862 905 813.5 930 c 128,-1,34
 765 955 765 955 712.5 969.5 c 128,-1,35
 660 984 660 984 605 990 c 128,-1,36
 550 996 550 996 500 995.5 c 128,-1,37
 450 995 450 995 407 990 c 128,-1,38
 364 985 364 985 334 978 c 1,39,-1
 352 243 l 1,25,26
EndSplineSet
Validated: 33
EndChar

StartChar: E
Encoding: 69 69 40
Width: 1271
VWidth: 2008
Flags: W
LayerCount: 2
Fore
SplineSet
369 1050 m 1,0,-1
 375 578 l 1,1,-1
 813 578 l 1,2,-1
 813 386 l 1,3,-1
 383 386 l 1,4,-1
 387 230 l 1,5,-1
 1036 251 l 1,6,-1
 1044 -22 l 1,7,-1
 18 -40 l 1,8,-1
 0 1392 l 1,9,-1
 1161 1392 l 1,10,-1
 1161 1050 l 1,11,-1
 369 1050 l 1,0,-1
EndSplineSet
Validated: 1
EndChar

StartChar: F
Encoding: 70 70 41
Width: 1262
VWidth: 2008
Flags: W
LayerCount: 2
Fore
SplineSet
387 -40 m 1,0,-1
 0 -32 l 1,1,-1
 20 1404 l 1,2,-1
 1161 1371 l 1,3,-1
 1153 1029 l 1,4,-1
 389 1050 l 1,5,-1
 389 564 l 1,6,-1
 838 564 l 1,7,-1
 836 372 l 1,8,-1
 389 376 l 1,9,-1
 387 -40 l 1,0,-1
EndSplineSet
Validated: 1
EndChar

StartChar: G
Encoding: 71 71 42
Width: 1371
VWidth: 2008
Flags: W
LayerCount: 2
Fore
SplineSet
857 1021 m 1,0,1
 818 1021 818 1021 766 1010.5 c 128,-1,2
 714 1000 714 1000 659.5 977.5 c 128,-1,3
 605 955 605 955 554.5 919 c 128,-1,4
 504 883 504 883 467.5 831.5 c 128,-1,5
 431 780 431 780 414.5 712 c 128,-1,6
 398 644 398 644 413 558 c 0,7,8
 428 479 428 479 475.5 421.5 c 128,-1,9
 523 364 523 364 589.5 328.5 c 128,-1,10
 656 293 656 293 735.5 278.5 c 128,-1,11
 815 264 815 264 894 271 c 1,12,-1
 894 443 l 1,13,-1
 722 443 l 1,14,-1
 722 675 l 1,15,-1
 1185 675 l 1,16,-1
 1185 329 l 1,17,-1
 1185 40 l 1,18,-1
 1185 -38 l 1,19,-1
 914 -38 l 1,20,-1
 779 -38 l 2,21,22
 683 -38 683 -38 588.5 -16 c 128,-1,23
 494 6 494 6 408.5 46.5 c 128,-1,24
 323 87 323 87 250 145 c 128,-1,25
 177 203 177 203 123.5 276 c 128,-1,26
 70 349 70 349 39.5 435 c 128,-1,27
 9 521 9 521 9 617 c 1,28,29
 4 723 4 723 25 822 c 128,-1,30
 46 921 46 921 91 1009 c 128,-1,31
 136 1097 136 1097 204.5 1170 c 128,-1,32
 273 1243 273 1243 364.5 1295.5 c 128,-1,33
 456 1348 456 1348 569.5 1377 c 128,-1,34
 683 1406 683 1406 818 1406 c 0,35,36
 905 1406 905 1406 982 1393.5 c 128,-1,37
 1059 1381 1059 1381 1118 1364.5 c 128,-1,38
 1177 1348 1177 1348 1214.5 1332.5 c 128,-1,39
 1252 1317 1252 1317 1260 1310 c 1,40,-1
 1260 945 l 1,41,42
 1239 959 1239 959 1197.5 975 c 128,-1,43
 1156 991 1156 991 1102 1003.5 c 128,-1,44
 1048 1016 1048 1016 984.5 1022 c 128,-1,45
 921 1028 921 1028 857 1021 c 1,0,1
EndSplineSet
Validated: 33
EndChar

StartChar: H
Encoding: 72 72 43
Width: 1558
VWidth: 2008
Flags: W
LayerCount: 2
Fore
SplineSet
1413 1390 m 1,0,-1
 1456 -7 l 1,1,-1
 1124 -22 l 1,2,-1
 1112 382 l 1,3,-1
 430 368 l 1,4,-1
 430 -40 l 1,5,-1
 2 -40 l 1,6,-1
 0 1359 l 1,7,-1
 428 1359 l 1,8,-1
 428 601 l 1,9,-1
 1102 619 l 1,10,-1
 1075 1377 l 1,11,-1
 1413 1390 l 1,0,-1
EndSplineSet
Validated: 1
EndChar

StartChar: I
Encoding: 73 73 44
Width: 585
VWidth: 2008
Flags: W
LayerCount: 2
Fore
SplineSet
459 -48 m 1,0,-1
 66 -28 l 1,1,-1
 125 1406 l 1,2,-1
 518 1385 l 1,3,-1
 459 -48 l 1,0,-1
EndSplineSet
Validated: 1
EndChar

StartChar: J
Encoding: 74 74 45
Width: 975
VWidth: 2008
Flags: W
LayerCount: 2
Fore
SplineSet
500 1398 m 1,0,-1
 864 1379 l 1,1,2
 864 1326 864 1326 862.5 1235 c 128,-1,3
 861 1144 861 1144 857 1033.5 c 128,-1,4
 853 923 853 923 847.5 802.5 c 128,-1,5
 842 682 842 682 833 571.5 c 128,-1,6
 824 461 824 461 812.5 370 c 128,-1,7
 801 279 801 279 786 226 c 0,8,9
 765 155 765 155 724.5 106 c 128,-1,10
 684 57 684 57 635 27 c 128,-1,11
 586 -3 586 -3 535 -17.5 c 128,-1,12
 484 -32 484 -32 442 -34 c 0,13,14
 377 -38 377 -38 313 -29.5 c 128,-1,15
 249 -21 249 -21 191.5 -3.5 c 128,-1,16
 134 14 134 14 85 39 c 128,-1,17
 36 64 36 64 0 93 c 1,18,-1
 96 322 l 1,19,20
 106 317 106 317 125.5 308.5 c 128,-1,21
 145 300 145 300 171 290.5 c 128,-1,22
 197 281 197 281 226 272 c 128,-1,23
 255 263 255 263 284 258.5 c 128,-1,24
 313 254 313 254 339 254.5 c 128,-1,25
 365 255 365 255 385 265 c 0,26,27
 428 286 428 286 446 366 c 128,-1,28
 464 446 464 446 471 586.5 c 128,-1,29
 478 727 478 727 481.5 929 c 128,-1,30
 485 1131 485 1131 500 1398 c 1,0,-1
EndSplineSet
Validated: 33
EndChar

StartChar: K
Encoding: 75 75 46
Width: 1185
VWidth: 2008
Flags: W
LayerCount: 2
Fore
SplineSet
582 640 m 1,0,-1
 1053 175 l 1,1,-1
 858 -20 l 1,2,-1
 426 472 l 1,3,-1
 467 -20 l 1,4,-1
 78 -40 l 1,5,-1
 0 1383 l 1,6,-1
 389 1402 l 1,7,-1
 410 896 l 1,8,-1
 838 1402 l 1,9,-1
 1092 1168 l 1,10,-1
 582 640 l 1,0,-1
EndSplineSet
Validated: 1
EndChar

StartChar: L
Encoding: 76 76 47
Width: 1023
VWidth: 2008
Flags: W
LayerCount: 2
Fore
SplineSet
59 -40 m 1,0,-1
 0 1385 l 1,1,-1
 391 1404 l 1,2,-1
 430 226 l 1,3,-1
 868 257 l 1,4,-1
 879 -1 l 1,5,-1
 59 -40 l 1,0,-1
EndSplineSet
Validated: 1
EndChar

StartChar: M
Encoding: 77 77 48
Width: 1575
VWidth: 2008
Flags: W
LayerCount: 2
Fore
SplineSet
782 353 m 1,0,-1
 1180 1353 l 1,1,-1
 1450 1361 l 1,2,-1
 1473 -1 l 1,3,-1
 1151 -5 l 1,4,-1
 1147 734 l 1,5,-1
 823 -48 l 1,6,-1
 678 -32 l 1,7,-1
 365 652 l 1,8,-1
 387 -38 l 1,9,-1
 23 -38 l 1,10,-1
 4 1392 l 1,11,-1
 311 1392 l 1,12,-1
 782 353 l 1,0,-1
EndSplineSet
Validated: 1
EndChar

StartChar: N
Encoding: 78 78 49
Width: 1345
VWidth: 2008
Flags: W
LayerCount: 2
Fore
SplineSet
365 828 m 1,0,-1
 385 -40 l 1,1,-1
 0 -40 l 1,2,-1
 0 1394 l 1,3,-1
 291 1394 l 1,4,-1
 930 482 l 1,5,-1
 887 1379 l 1,6,-1
 1217 1392 l 1,7,-1
 1239 -1 l 1,8,-1
 969 -22 l 1,9,-1
 365 828 l 1,0,-1
EndSplineSet
Validated: 1
EndChar

StartChar: O
Encoding: 79 79 50
Width: 1596
VWidth: 2008
Flags: W
LayerCount: 2
Fore
SplineSet
743 1420 m 0,0,1
 852 1420 852 1420 951 1393.5 c 128,-1,2
 1050 1367 1050 1367 1134.5 1319 c 128,-1,3
 1219 1271 1219 1271 1288 1203 c 128,-1,4
 1357 1135 1357 1135 1405.5 1053 c 128,-1,5
 1454 971 1454 971 1480.5 876 c 128,-1,6
 1507 781 1507 781 1507 679 c 0,7,8
 1507 578 1507 578 1480.5 484.5 c 128,-1,9
 1454 391 1454 391 1405.5 310 c 128,-1,10
 1357 229 1357 229 1288 162.5 c 128,-1,11
 1219 96 1219 96 1134.5 49 c 128,-1,12
 1050 2 1050 2 951 -24 c 128,-1,13
 852 -50 852 -50 743 -50 c 0,14,15
 640 -50 640 -50 544.5 -24 c 128,-1,16
 449 2 449 2 366.5 49 c 128,-1,17
 284 96 284 96 216.5 162.5 c 128,-1,18
 149 229 149 229 101 310 c 128,-1,19
 53 391 53 391 26.5 484 c 128,-1,20
 0 577 0 577 0 679 c 256,21,22
 0 781 0 781 26.5 876 c 128,-1,23
 53 971 53 971 101 1053 c 128,-1,24
 149 1135 149 1135 216.5 1203 c 128,-1,25
 284 1271 284 1271 366.5 1319 c 128,-1,26
 449 1367 449 1367 544.5 1393.5 c 128,-1,27
 640 1420 640 1420 743 1420 c 0,0,1
743 236 m 0,28,29
 836 236 836 236 915 269 c 128,-1,30
 994 302 994 302 1051.5 357.5 c 128,-1,31
 1109 413 1109 413 1141.5 485.5 c 128,-1,32
 1174 558 1174 558 1174 638 c 0,33,34
 1174 726 1174 726 1141.5 799.5 c 128,-1,35
 1109 873 1109 873 1051.5 925.5 c 128,-1,36
 994 978 994 978 915 1007.5 c 128,-1,37
 836 1037 836 1037 743 1037 c 0,38,39
 658 1037 658 1037 583.5 1007.5 c 128,-1,40
 509 978 509 978 453.5 925.5 c 128,-1,41
 398 873 398 873 366 799.5 c 128,-1,42
 334 726 334 726 334 638 c 0,43,44
 334 558 334 558 366 485.5 c 128,-1,45
 398 413 398 413 453.5 357.5 c 128,-1,46
 509 302 509 302 583.5 269 c 128,-1,47
 658 236 658 236 743 236 c 0,28,29
EndSplineSet
Validated: 1
EndChar

StartChar: P
Encoding: 80 80 51
Width: 1215
VWidth: 2008
Flags: W
LayerCount: 2
Fore
SplineSet
1116 998 m 0,0,1
 1116 954 1116 954 1114.5 913 c 128,-1,2
 1113 872 1113 872 1104 834 c 128,-1,3
 1095 796 1095 796 1075 759 c 128,-1,4
 1055 722 1055 722 1018 685 c 1,5,6
 984 645 984 645 935 618 c 128,-1,7
 886 591 886 591 830.5 573.5 c 128,-1,8
 775 556 775 556 715 546.5 c 128,-1,9
 655 537 655 537 599.5 532.5 c 128,-1,10
 544 528 544 528 495 527.5 c 128,-1,11
 446 527 446 527 412 527 c 1,12,-1
 412 -20 l 1,13,-1
 39 -40 l 1,14,-1
 0 1390 l 1,15,-1
 391 1410 l 2,16,17
 428 1410 428 1410 472 1409.5 c 128,-1,18
 516 1409 516 1409 567.5 1405 c 128,-1,19
 619 1401 619 1401 678 1392.5 c 128,-1,20
 737 1384 737 1384 803 1369 c 256,21,22
 869 1354 869 1354 926 1319 c 128,-1,23
 983 1284 983 1284 1025.5 1234.5 c 128,-1,24
 1068 1185 1068 1185 1092 1124.5 c 128,-1,25
 1116 1064 1116 1064 1116 998 c 0,0,1
399 730 m 1,26,27
 411 730 411 730 445.5 728 c 128,-1,28
 480 726 480 726 524 727 c 128,-1,29
 568 728 568 728 616 736 c 128,-1,30
 664 744 664 744 702.5 765 c 128,-1,31
 741 786 741 786 764 823.5 c 128,-1,32
 787 861 787 861 782 921 c 0,33,34
 777 979 777 979 748.5 1016.5 c 128,-1,35
 720 1054 720 1054 670 1074 c 128,-1,36
 620 1094 620 1094 549.5 1099 c 128,-1,37
 479 1104 479 1104 391 1097 c 1,38,-1
 399 730 l 1,26,27
EndSplineSet
Validated: 33
EndChar

StartChar: Q
Encoding: 81 81 52
Width: 1599
VWidth: 2008
Flags: W
LayerCount: 2
Fore
SplineSet
1499 679 m 0,0,1
 1499 557 1499 557 1459 444.5 c 128,-1,2
 1419 332 1419 332 1346 240 c 128,-1,3
 1273 148 1273 148 1171.5 82.5 c 128,-1,4
 1070 17 1070 17 946 -11 c 1,5,-1
 1212 -167 l 1,6,-1
 1047 -376 l 1,7,-1
 596 -32 l 1,8,9
 474 -10 474 -10 366 55.5 c 128,-1,10
 258 121 258 121 177 216.5 c 128,-1,11
 96 312 96 312 49 431 c 128,-1,12
 2 550 2 550 2 679 c 0,13,14
 2 780 2 780 28.5 873 c 128,-1,15
 55 966 55 966 103 1047 c 128,-1,16
 151 1128 151 1128 218 1194.5 c 128,-1,17
 285 1261 285 1261 367 1308.5 c 128,-1,18
 449 1356 449 1356 543 1382 c 128,-1,19
 637 1408 637 1408 739 1408 c 0,20,21
 846 1408 846 1408 944.5 1382 c 128,-1,22
 1043 1356 1043 1356 1127.5 1308.5 c 128,-1,23
 1212 1261 1212 1261 1280.5 1194.5 c 128,-1,24
 1349 1128 1349 1128 1397.5 1047 c 128,-1,25
 1446 966 1446 966 1472.5 873 c 128,-1,26
 1499 780 1499 780 1499 679 c 0,0,1
739 239 m 0,27,28
 831 239 831 239 909.5 270 c 128,-1,29
 988 301 988 301 1045 353.5 c 128,-1,30
 1102 406 1102 406 1134.5 476.5 c 128,-1,31
 1167 547 1167 547 1167 626 c 0,32,33
 1167 712 1167 712 1134.5 784 c 128,-1,34
 1102 856 1102 856 1045 908.5 c 128,-1,35
 988 961 988 961 909.5 990 c 128,-1,36
 831 1019 831 1019 739 1019 c 0,37,38
 655 1019 655 1019 582 990 c 128,-1,39
 509 961 509 961 455 908.5 c 128,-1,40
 401 856 401 856 369.5 784 c 128,-1,41
 338 712 338 712 338 626 c 0,42,43
 338 547 338 547 369.5 476.5 c 128,-1,44
 401 406 401 406 455 353.5 c 128,-1,45
 509 301 509 301 582 270 c 128,-1,46
 655 239 655 239 739 239 c 0,27,28
EndSplineSet
Validated: 1
EndChar

StartChar: R
Encoding: 82 82 53
Width: 1230
VWidth: 2008
Flags: W
LayerCount: 2
Fore
SplineSet
1014 681 m 0,0,1
 982 648 982 648 940.5 623.5 c 128,-1,2
 899 599 899 599 854 581.5 c 128,-1,3
 809 564 809 564 762.5 553.5 c 128,-1,4
 716 543 716 543 674 538 c 1,5,-1
 1053 155 l 1,6,-1
 858 -20 l 1,7,-1
 399 501 l 1,8,-1
 410 -20 l 1,9,-1
 39 -40 l 1,10,-1
 0 1383 l 1,11,-1
 391 1404 l 2,12,13
 463 1404 463 1404 565.5 1399 c 128,-1,14
 668 1394 668 1394 801 1365 c 0,15,16
 860 1352 860 1352 915 1317 c 128,-1,17
 970 1282 970 1282 1013.5 1232.5 c 128,-1,18
 1057 1183 1057 1183 1085 1121.5 c 128,-1,19
 1113 1060 1113 1060 1118 994 c 0,20,21
 1121 950 1121 950 1119.5 911 c 128,-1,22
 1118 872 1118 872 1107.5 834 c 128,-1,23
 1097 796 1097 796 1075 758.5 c 128,-1,24
 1053 721 1053 721 1014 681 c 0,0,1
780 898 m 0,25,26
 773 956 773 956 744.5 993.5 c 128,-1,27
 716 1031 716 1031 666.5 1051.5 c 128,-1,28
 617 1072 617 1072 548 1076.5 c 128,-1,29
 479 1081 479 1081 391 1074 c 1,30,-1
 391 701 l 1,31,32
 405 701 405 701 441 698 c 128,-1,33
 477 695 477 695 522 695.5 c 128,-1,34
 567 696 567 696 615 704 c 128,-1,35
 663 712 663 712 701.5 734 c 128,-1,36
 740 756 740 756 762.5 795 c 128,-1,37
 785 834 785 834 780 898 c 0,25,26
EndSplineSet
Validated: 33
EndChar

StartChar: S
Encoding: 83 83 54
Width: 1224
VWidth: 2008
Flags: W
LayerCount: 2
Fore
SplineSet
213 366 m 1,0,1
 332 262 332 262 420 232 c 128,-1,2
 508 202 508 202 567 249 c 0,3,4
 591 273 591 273 580 303 c 128,-1,5
 569 333 569 333 536 366 c 128,-1,6
 503 399 503 399 454.5 433.5 c 128,-1,7
 406 468 406 468 356.5 501.5 c 128,-1,8
 307 535 307 535 263 566 c 128,-1,9
 219 597 219 597 194 622 c 0,10,11
 189 626 189 626 170 642 c 128,-1,12
 151 658 151 658 126.5 685 c 128,-1,13
 102 712 102 712 76 749 c 128,-1,14
 50 786 50 786 32 832.5 c 128,-1,15
 14 879 14 879 8 934.5 c 128,-1,16
 2 990 2 990 16 1054 c 1,17,18
 39 1135 39 1135 92.5 1200 c 128,-1,19
 146 1265 146 1265 221.5 1310.5 c 128,-1,20
 297 1356 297 1356 390.5 1381 c 128,-1,21
 484 1406 484 1406 586 1406 c 0,22,23
 673 1406 673 1406 748 1398 c 128,-1,24
 823 1390 823 1390 889.5 1371.5 c 128,-1,25
 956 1353 956 1353 1017 1323 c 128,-1,26
 1078 1293 1078 1293 1136 1248 c 1,27,-1
 940 914 l 1,28,29
 896 959 896 959 839.5 994 c 128,-1,30
 783 1029 783 1029 723.5 1050.5 c 128,-1,31
 664 1072 664 1072 606.5 1077 c 128,-1,32
 549 1082 549 1082 502.5 1067.5 c 128,-1,33
 456 1053 456 1053 425.5 1015.5 c 128,-1,34
 395 978 395 978 391 914 c 0,35,36
 391 859 391 859 414 816.5 c 128,-1,37
 437 774 437 774 474 738 c 128,-1,38
 511 702 511 702 558 670 c 128,-1,39
 605 638 605 638 653.5 605 c 128,-1,40
 702 572 702 572 747 534.5 c 128,-1,41
 792 497 792 497 825.5 450 c 128,-1,42
 859 403 859 403 876.5 344 c 128,-1,43
 894 285 894 285 887 208 c 0,44,45
 880 134 880 134 845 82.5 c 128,-1,46
 810 31 810 31 758 0 c 128,-1,47
 706 -31 706 -31 641.5 -43 c 128,-1,48
 577 -55 577 -55 510 -50 c 0,49,50
 469 -47 469 -47 429 -39 c 128,-1,51
 389 -31 389 -31 351 -19 c 128,-1,52
 313 -7 313 -7 278 7 c 128,-1,53
 243 21 243 21 213 35 c 0,54,55
 142 68 142 68 78 110 c 1,56,57
 116 181 116 181 146 237 c 0,58,59
 159 261 159 261 171 284 c 128,-1,60
 183 307 183 307 192.5 325 c 128,-1,61
 202 343 202 343 207.5 354 c 128,-1,62
 213 365 213 365 213 366 c 1,0,1
EndSplineSet
Validated: 33
EndChar

StartChar: T
Encoding: 84 84 55
Width: 1377
VWidth: 2008
Flags: W
LayerCount: 2
Fore
SplineSet
797 1086 m 1,0,-1
 815 -26 l 1,1,-1
 446 -40 l 1,2,-1
 426 1074 l 1,3,-1
 10 1054 l 1,4,-1
 0 1357 l 1,5,-1
 1260 1396 l 1,6,-1
 1270 1105 l 1,7,-1
 797 1086 l 1,0,-1
EndSplineSet
Validated: 1
EndChar

StartChar: U
Encoding: 85 85 56
Width: 1528
VWidth: 2008
Flags: W
LayerCount: 2
Fore
SplineSet
0 1394 m 1,0,-1
 442 1394 l 1,1,2
 442 1167 442 1167 439.5 989 c 128,-1,3
 437 811 437 811 442 675.5 c 128,-1,4
 447 540 447 540 464 446 c 128,-1,5
 481 352 481 352 519.5 293.5 c 128,-1,6
 558 235 558 235 622.5 210.5 c 128,-1,7
 687 186 687 186 788 191 c 256,8,9
 889 196 889 196 952 236 c 128,-1,10
 1015 276 1015 276 1049.5 347.5 c 128,-1,11
 1084 419 1084 419 1096 520.5 c 128,-1,12
 1108 622 1108 622 1109 750 c 128,-1,13
 1110 878 1110 878 1105 1030.5 c 128,-1,14
 1100 1183 1100 1183 1100 1357 c 1,15,16
 1100 1357 1100 1357 1124.5 1357 c 128,-1,17
 1149 1357 1149 1357 1185 1356.5 c 128,-1,18
 1221 1356 1221 1356 1263 1356 c 128,-1,19
 1305 1356 1305 1356 1341 1356 c 128,-1,20
 1377 1356 1377 1356 1401 1356.5 c 128,-1,21
 1425 1357 1425 1357 1425 1357 c 1,22,23
 1425 1198 1425 1198 1424.5 1077.5 c 128,-1,24
 1424 957 1424 957 1422.5 866 c 128,-1,25
 1421 775 1421 775 1419 707.5 c 128,-1,26
 1417 640 1417 640 1413 585.5 c 128,-1,27
 1409 531 1409 531 1403 485.5 c 128,-1,28
 1397 440 1397 440 1389 392 c 0,29,30
 1373 299 1373 299 1320.5 218.5 c 128,-1,31
 1268 138 1268 138 1186.5 78 c 128,-1,32
 1105 18 1105 18 999 -16 c 128,-1,33
 893 -50 893 -50 770 -50 c 0,34,35
 650 -50 650 -50 554.5 -30.5 c 128,-1,36
 459 -11 459 -11 384.5 21 c 128,-1,37
 310 53 310 53 255 95 c 128,-1,38
 200 137 200 137 161 181.5 c 128,-1,39
 122 226 122 226 96.5 270.5 c 128,-1,40
 71 315 71 315 57 353 c 0,41,42
 47 382 47 382 39 419.5 c 128,-1,43
 31 457 31 457 25 511.5 c 128,-1,44
 19 566 19 566 14 642 c 128,-1,45
 9 718 9 718 6 824 c 128,-1,46
 3 930 3 930 1.5 1070.5 c 128,-1,47
 0 1211 0 1211 0 1394 c 1,0,-1
EndSplineSet
Validated: 33
EndChar

StartChar: V
Encoding: 86 86 57
Width: 1578
VWidth: 2008
Flags: W
LayerCount: 2
Fore
SplineSet
1479 1318 m 1,0,-1
 891 -42 l 1,1,-1
 571 -22 l 1,2,-1
 -2 1299 l 1,3,-1
 287 1394 l 1,4,-1
 688 423 l 1,5,-1
 1065 1420 l 1,6,-1
 1479 1318 l 1,0,-1
EndSplineSet
Validated: 1
EndChar

StartChar: W
Encoding: 87 87 58
Width: 1966
VWidth: 2008
Flags: W
LayerCount: 2
Fore
SplineSet
1303 441 m 1,0,-1
 1540 1383 l 1,1,-1
 1878 1322 l 1,2,-1
 1516 -26 l 1,3,-1
 1198 9 l 1,4,-1
 989 806 l 1,5,-1
 690 -42 l 1,6,-1
 338 -42 l 1,7,-1
 0 1349 l 1,8,-1
 397 1396 l 1,9,-1
 590 533 l 1,10,-1
 856 1396 l 1,11,-1
 1067 1379 l 1,12,-1
 1303 441 l 1,0,-1
EndSplineSet
Validated: 1
EndChar

StartChar: X
Encoding: 88 88 59
Width: 1469
VWidth: 2008
Flags: W
LayerCount: 2
Fore
SplineSet
1065 -46 m 1,0,-1
 664 419 l 1,1,-1
 254 -32 l 1,2,-1
 12 214 l 1,3,-1
 451 677 l 1,4,-1
 29 1144 l 1,5,-1
 311 1396 l 1,6,-1
 702 937 l 1,7,-1
 1057 1344 l 1,8,-1
 1255 1160 l 1,9,-1
 872 726 l 1,10,-1
 1354 191 l 1,11,-1
 1065 -46 l 1,0,-1
EndSplineSet
Validated: 1
EndChar

StartChar: Y
Encoding: 89 89 60
Width: 1510
VWidth: 2008
Flags: W
LayerCount: 2
Fore
SplineSet
932 660 m 1,0,-1
 971 -32 l 1,1,-1
 614 -52 l 1,2,-1
 573 622 l 1,3,-1
 0 1195 l 1,4,-1
 258 1414 l 1,5,-1
 772 859 l 1,6,-1
 1188 1394 l 1,7,-1
 1407 1234 l 1,8,-1
 932 660 l 1,0,-1
EndSplineSet
Validated: 1
EndChar

StartChar: Z
Encoding: 90 90 61
Width: 1221
VWidth: 2008
Flags: W
LayerCount: 2
Fore
SplineSet
936 212 m 1,0,-1
 924 -34 l 1,1,-1
 98 -7 l 1,2,-1
 98 196 l 1,3,-1
 647 1058 l 1,4,-1
 0 1058 l 1,5,-1
 0 1396 l 1,6,-1
 1012 1381 l 1,7,-1
 1012 1113 l 1,8,-1
 508 218 l 1,9,-1
 936 212 l 1,0,-1
EndSplineSet
Validated: 1
EndChar

StartChar: bracketleft
Encoding: 91 91 62
Width: 524
VWidth: 2008
Flags: W
LayerCount: 2
Fore
SplineSet
0 1385 m 1,0,-1
 410 1385 l 1,1,-1
 410 1248 l 1,2,-1
 195 1248 l 1,3,-1
 233 99 l 1,4,-1
 410 118 l 1,5,-1
 418 -17 l 1,6,-1
 39 -38 l 1,7,-1
 0 1385 l 1,8,-1
 0 1385 l 1,0,-1
EndSplineSet
Validated: 5
EndChar

StartChar: backslash
Encoding: 92 92 63
Width: 881
VWidth: 2008
Flags: W
LayerCount: 2
Fore
SplineSet
537 5 m 1,0,-1
 0 1250 l 1,1,-1
 217 1359 l 1,2,-1
 774 97 l 1,3,-1
 537 5 l 1,0,-1
EndSplineSet
Validated: 1
EndChar

StartChar: bracketright
Encoding: 93 93 64
Width: 512
VWidth: 2008
Flags: W
LayerCount: 2
Fore
SplineSet
379 -38 m 1,0,-1
 0 -17 l 1,1,-1
 8 118 l 1,2,-1
 184 99 l 1,3,-1
 215 1256 l 1,4,-1
 0 1256 l 1,5,-1
 0 1394 l 1,6,-1
 410 1394 l 1,7,-1
 379 -38 l 1,0,-1
EndSplineSet
Validated: 1
EndChar

StartChar: asciicircum
Encoding: 94 94 65
Width: 1108
VWidth: 2008
Flags: W
LayerCount: 2
Fore
SplineSet
152 787 m 1,0,-1
 4 935 l 1,1,-1
 520 1488 l 1,2,-1
 999 935 l 1,3,-1
 815 787 l 1,4,-1
 500 1179 l 1,5,-1
 152 787 l 1,6,-1
 152 787 l 1,0,-1
EndSplineSet
Validated: 5
EndChar

StartChar: underscore
Encoding: 95 95 66
Width: 1124
VWidth: 2008
Flags: W
LayerCount: 2
Fore
SplineSet
1012 -327 m 1,0,-1
 0 -327 l 1,1,-1
 2 -146 l 1,2,-1
 1016 -157 l 1,3,-1
 1012 -327 l 1,0,-1
EndSplineSet
Validated: 1
EndChar

StartChar: grave
Encoding: 96 96 67
Width: 340
VWidth: 2008
Flags: W
LayerCount: 2
Fore
SplineSet
0 1367 m 1,0,-1
 94 1498 l 1,1,-1
 340 1291 l 1,2,-1
 274 1205 l 1,3,-1
 0 1367 l 1,0,-1
EndSplineSet
Validated: 1
EndChar

StartChar: a
Encoding: 97 97 68
Width: 1454
VWidth: 2008
Flags: W
LayerCount: 2
Fore
SplineSet
930 368 m 1,0,-1
 485 368 l 1,1,-1
 348 -40 l 1,2,-1
 0 56 l 1,3,-1
 524 1394 l 1,4,-1
 813 1375 l 1,5,-1
 1356 77 l 1,6,-1
 1085 -22 l 1,7,-1
 930 368 l 1,0,-1
852 542 m 1,8,-1
 678 949 l 1,9,-1
 543 542 l 1,10,-1
 852 542 l 1,8,-1
EndSplineSet
Validated: 1
EndChar

StartChar: b
Encoding: 98 98 69
Width: 1229
VWidth: 2008
Flags: W
LayerCount: 2
Fore
SplineSet
1114 1013 m 0,0,1
 1123 969 1123 969 1119 916 c 128,-1,2
 1115 863 1115 863 1097 811 c 128,-1,3
 1079 759 1079 759 1047 712 c 128,-1,4
 1015 665 1015 665 969 634 c 0,5,6
 944 617 944 617 920.5 605.5 c 128,-1,7
 897 594 897 594 873 585.5 c 128,-1,8
 849 577 849 577 823 570 c 128,-1,9
 797 563 797 563 768 556 c 1,10,11
 842 513 842 513 887 466 c 128,-1,12
 932 419 932 419 950 351 c 0,13,14
 959 321 959 321 959 286 c 128,-1,15
 959 251 959 251 951 215.5 c 128,-1,16
 943 180 943 180 926 146.5 c 128,-1,17
 909 113 909 113 883 87 c 0,18,19
 839 43 839 43 776.5 18 c 128,-1,20
 714 -7 714 -7 647 -19.5 c 128,-1,21
 580 -32 580 -32 517 -35.5 c 128,-1,22
 454 -39 454 -39 410 -40 c 2,23,-1
 39 -40 l 1,24,-1
 0 1383 l 1,25,-1
 391 1404 l 2,26,27
 427 1404 427 1404 468.5 1403.5 c 128,-1,28
 510 1403 510 1403 558.5 1399 c 128,-1,29
 607 1395 607 1395 663 1386 c 128,-1,30
 719 1377 719 1377 784 1361 c 0,31,32
 848 1345 848 1345 905 1312 c 128,-1,33
 962 1279 962 1279 1006 1233 c 128,-1,34
 1050 1187 1050 1187 1078 1131 c 128,-1,35
 1106 1075 1106 1075 1114 1013 c 0,0,1
406 171 m 1,36,37
 421 170 421 170 449.5 168.5 c 128,-1,38
 478 167 478 167 511.5 169 c 128,-1,39
 545 171 545 171 579.5 177 c 128,-1,40
 614 183 614 183 640.5 198 c 128,-1,41
 667 213 667 213 682.5 237.5 c 128,-1,42
 698 262 698 262 694 300 c 0,43,44
 688 354 688 354 656.5 380.5 c 128,-1,45
 625 407 625 407 581.5 416.5 c 128,-1,46
 538 426 538 426 490 423.5 c 128,-1,47
 442 421 442 421 403 417 c 1,48,-1
 406 171 l 1,36,37
387 703 m 1,49,50
 398 703 398 703 431 700 c 128,-1,51
 464 697 464 697 506.5 698.5 c 128,-1,52
 549 700 549 700 595 708.5 c 128,-1,53
 641 717 641 717 678.5 738.5 c 128,-1,54
 716 760 716 760 738 797 c 128,-1,55
 760 834 760 834 756 894 c 0,56,57
 751 949 751 949 722 983 c 128,-1,58
 693 1017 693 1017 643.5 1034 c 128,-1,59
 594 1051 594 1051 527.5 1054 c 128,-1,60
 461 1057 461 1057 381 1050 c 1,61,-1
 387 703 l 1,49,50
EndSplineSet
Validated: 33
EndChar

StartChar: c
Encoding: 99 99 70
Width: 1354
VWidth: 2008
Flags: W
LayerCount: 2
Fore
SplineSet
1185 46 m 1,0,1
 1149 17 1149 17 1100.5 -2 c 128,-1,2
 1052 -21 1052 -21 998 -31.5 c 128,-1,3
 944 -42 944 -42 888.5 -46 c 128,-1,4
 833 -50 833 -50 783 -50 c 0,5,6
 687 -50 687 -50 592.5 -27 c 128,-1,7
 498 -4 498 -4 412.5 39 c 128,-1,8
 327 82 327 82 254 142.5 c 128,-1,9
 181 203 181 203 127.5 277.5 c 128,-1,10
 74 352 74 352 43.5 439 c 128,-1,11
 13 526 13 526 13 622 c 1,12,13
 8 728 8 728 29 827.5 c 128,-1,14
 50 927 50 927 95 1014.5 c 128,-1,15
 140 1102 140 1102 208.5 1174.5 c 128,-1,16
 277 1247 277 1247 368.5 1299.5 c 128,-1,17
 460 1352 460 1352 573 1381 c 128,-1,18
 686 1410 686 1410 820 1410 c 0,19,20
 907 1410 907 1410 984.5 1397.5 c 128,-1,21
 1062 1385 1062 1385 1121.5 1368.5 c 128,-1,22
 1181 1352 1181 1352 1218 1336.5 c 128,-1,23
 1255 1321 1255 1321 1262 1314 c 1,24,-1
 1262 949 l 1,25,26
 1241 963 1241 963 1199.5 979.5 c 128,-1,27
 1158 996 1158 996 1104 1008.5 c 128,-1,28
 1050 1021 1050 1021 986.5 1026.5 c 128,-1,29
 923 1032 923 1032 859 1025 c 1,30,31
 820 1025 820 1025 768.5 1015 c 128,-1,32
 717 1005 717 1005 663 982.5 c 128,-1,33
 609 960 609 960 558.5 924.5 c 128,-1,34
 508 889 508 889 471.5 837.5 c 128,-1,35
 435 786 435 786 419 718 c 128,-1,36
 403 650 403 650 417 564 c 0,37,38
 431 492 431 492 479 437.5 c 128,-1,39
 527 383 527 383 594.5 346 c 128,-1,40
 662 309 662 309 743 290.5 c 128,-1,41
 824 272 824 272 904.5 270.5 c 128,-1,42
 985 269 985 269 1058.5 285 c 128,-1,43
 1132 301 1132 301 1185 335 c 1,44,-1
 1185 46 l 1,0,1
EndSplineSet
Validated: 33
EndChar

StartChar: d
Encoding: 100 100 71
Width: 1487
VWidth: 2008
Flags: W
LayerCount: 2
Fore
SplineSet
1372 834 m 256,0,1
 1397 702 1397 702 1379 587.5 c 128,-1,2
 1361 473 1361 473 1310 379 c 128,-1,3
 1259 285 1259 285 1178 211.5 c 128,-1,4
 1097 138 1097 138 995 86.5 c 128,-1,5
 893 35 893 35 774 6 c 128,-1,6
 655 -23 655 -23 528 -28 c 0,7,8
 380 -36 380 -36 283 -37 c 128,-1,9
 186 -38 186 -38 127 -36 c 0,10,11
 58 -34 58 -34 20 -28 c 1,12,-1
 0 1373 l 1,13,14
 61 1380 61 1380 128.5 1385.5 c 128,-1,15
 196 1391 196 1391 260 1394.5 c 128,-1,16
 324 1398 324 1398 379 1400 c 128,-1,17
 434 1402 434 1402 471 1402 c 0,18,19
 535 1402 535 1402 619.5 1396.5 c 128,-1,20
 704 1391 704 1391 796 1372 c 128,-1,21
 888 1353 888 1353 980 1316 c 128,-1,22
 1072 1279 1072 1279 1151 1216 c 128,-1,23
 1230 1153 1230 1153 1288.5 1059.5 c 128,-1,24
 1347 966 1347 966 1372 834 c 256,0,1
352 243 m 1,25,26
 505 233 505 233 626.5 254.5 c 128,-1,27
 748 276 748 276 831 328 c 128,-1,28
 914 380 914 380 955 461.5 c 128,-1,29
 996 543 996 543 989 652 c 0,30,31
 985 722 985 722 961 775 c 128,-1,32
 937 828 937 828 899.5 866.5 c 128,-1,33
 862 905 862 905 813.5 930 c 128,-1,34
 765 955 765 955 712.5 969.5 c 128,-1,35
 660 984 660 984 605 990 c 128,-1,36
 550 996 550 996 500 995.5 c 128,-1,37
 450 995 450 995 407 990 c 128,-1,38
 364 985 364 985 334 978 c 1,39,-1
 352 243 l 1,25,26
EndSplineSet
Validated: 33
EndChar

StartChar: e
Encoding: 101 101 72
Width: 1270
VWidth: 2008
Flags: W
LayerCount: 2
Fore
SplineSet
1161 1050 m 1,0,-1
 369 1050 l 1,1,-1
 375 578 l 1,2,-1
 813 578 l 1,3,-1
 813 386 l 1,4,-1
 383 386 l 1,5,-1
 387 230 l 1,6,-1
 1036 251 l 1,7,-1
 1044 -22 l 1,8,-1
 18 -40 l 1,9,-1
 0 1392 l 1,10,-1
 1161 1392 l 1,11,-1
 1161 1050 l 1,12,-1
 1161 1050 l 1,0,-1
EndSplineSet
Validated: 5
EndChar

StartChar: f
Encoding: 102 102 73
Width: 1262
VWidth: 2008
Flags: W
LayerCount: 2
Fore
SplineSet
387 -40 m 1,0,-1
 0 -32 l 1,1,-1
 20 1404 l 1,2,-1
 1161 1371 l 1,3,-1
 1153 1029 l 1,4,-1
 389 1050 l 1,5,-1
 389 564 l 1,6,-1
 838 564 l 1,7,-1
 836 372 l 1,8,-1
 389 376 l 1,9,-1
 387 -40 l 1,0,-1
EndSplineSet
Validated: 1
EndChar

StartChar: g
Encoding: 103 103 74
Width: 1370
VWidth: 2008
Flags: W
LayerCount: 2
Fore
SplineSet
857 1021 m 1,0,1
 818 1021 818 1021 766 1010.5 c 128,-1,2
 714 1000 714 1000 659.5 977.5 c 128,-1,3
 605 955 605 955 554.5 919 c 128,-1,4
 504 883 504 883 467.5 831.5 c 128,-1,5
 431 780 431 780 414.5 712 c 128,-1,6
 398 644 398 644 413 558 c 0,7,8
 428 479 428 479 475.5 421.5 c 128,-1,9
 523 364 523 364 589.5 328.5 c 128,-1,10
 656 293 656 293 735.5 278.5 c 128,-1,11
 815 264 815 264 894 271 c 1,12,-1
 894 443 l 1,13,-1
 722 443 l 1,14,-1
 722 675 l 1,15,-1
 1185 675 l 1,16,-1
 1185 329 l 1,17,-1
 1185 40 l 1,18,-1
 1185 -38 l 1,19,-1
 914 -38 l 1,20,-1
 779 -38 l 2,21,22
 683 -38 683 -38 588.5 -16 c 128,-1,23
 494 6 494 6 408.5 46.5 c 128,-1,24
 323 87 323 87 250 145 c 128,-1,25
 177 203 177 203 123.5 276 c 128,-1,26
 70 349 70 349 39.5 435 c 128,-1,27
 9 521 9 521 9 617 c 1,28,29
 4 723 4 723 25 822 c 128,-1,30
 46 921 46 921 91 1009 c 128,-1,31
 136 1097 136 1097 204.5 1170 c 128,-1,32
 273 1243 273 1243 364.5 1295.5 c 128,-1,33
 456 1348 456 1348 569.5 1377 c 128,-1,34
 683 1406 683 1406 818 1406 c 0,35,36
 905 1406 905 1406 982 1393.5 c 128,-1,37
 1059 1381 1059 1381 1118 1364.5 c 128,-1,38
 1177 1348 1177 1348 1214.5 1332.5 c 128,-1,39
 1252 1317 1252 1317 1260 1310 c 1,40,-1
 1260 945 l 1,41,42
 1239 959 1239 959 1197.5 975 c 128,-1,43
 1156 991 1156 991 1102 1003.5 c 128,-1,44
 1048 1016 1048 1016 984.5 1022 c 128,-1,45
 921 1028 921 1028 857 1021 c 1,0,1
EndSplineSet
Validated: 33
EndChar

StartChar: h
Encoding: 104 104 75
Width: 1559
VWidth: 2008
Flags: W
LayerCount: 2
Fore
SplineSet
1413 1390 m 1,0,-1
 1456 -7 l 1,1,-1
 1124 -22 l 1,2,-1
 1112 382 l 1,3,-1
 430 368 l 1,4,-1
 430 -40 l 1,5,-1
 2 -40 l 1,6,-1
 0 1359 l 1,7,-1
 428 1359 l 1,8,-1
 428 601 l 1,9,-1
 1102 619 l 1,10,-1
 1075 1377 l 1,11,-1
 1413 1390 l 1,0,-1
EndSplineSet
Validated: 1
EndChar

StartChar: i
Encoding: 105 105 76
Width: 677
VWidth: 2008
Flags: W
LayerCount: 2
Fore
SplineSet
459 -48 m 1,0,-1
 66 -28 l 1,1,-1
 125 1406 l 1,2,-1
 518 1385 l 1,3,-1
 459 -48 l 1,4,-1
 459 -48 l 1,0,-1
EndSplineSet
Validated: 5
EndChar

StartChar: j
Encoding: 106 106 77
Width: 975
VWidth: 2008
Flags: W
LayerCount: 2
Fore
SplineSet
500 1398 m 1,0,-1
 864 1379 l 1,1,2
 864 1326 864 1326 862.5 1235 c 128,-1,3
 861 1144 861 1144 857 1033.5 c 128,-1,4
 853 923 853 923 847.5 802.5 c 128,-1,5
 842 682 842 682 833 571.5 c 128,-1,6
 824 461 824 461 812.5 370 c 128,-1,7
 801 279 801 279 786 226 c 0,8,9
 765 155 765 155 724.5 106 c 128,-1,10
 684 57 684 57 635 27 c 128,-1,11
 586 -3 586 -3 535 -17.5 c 128,-1,12
 484 -32 484 -32 442 -34 c 0,13,14
 377 -38 377 -38 313 -29.5 c 128,-1,15
 249 -21 249 -21 191.5 -3.5 c 128,-1,16
 134 14 134 14 85 39 c 128,-1,17
 36 64 36 64 0 93 c 1,18,-1
 96 322 l 1,19,20
 106 317 106 317 125.5 308.5 c 128,-1,21
 145 300 145 300 171 290.5 c 128,-1,22
 197 281 197 281 226 272 c 128,-1,23
 255 263 255 263 284 258.5 c 128,-1,24
 313 254 313 254 339 254.5 c 128,-1,25
 365 255 365 255 385 265 c 0,26,27
 428 286 428 286 446 366 c 128,-1,28
 464 446 464 446 471 586.5 c 128,-1,29
 478 727 478 727 481.5 929 c 128,-1,30
 485 1131 485 1131 500 1398 c 1,0,-1
EndSplineSet
Validated: 33
EndChar

StartChar: k
Encoding: 107 107 78
Width: 1186
VWidth: 2008
Flags: W
LayerCount: 2
Fore
SplineSet
1092 1168 m 1,0,-1
 582 640 l 1,1,-1
 1053 175 l 1,2,-1
 858 -20 l 1,3,-1
 426 472 l 1,4,-1
 467 -20 l 1,5,-1
 78 -40 l 1,6,-1
 0 1383 l 1,7,-1
 389 1402 l 1,8,-1
 410 896 l 1,9,-1
 838 1402 l 1,10,-1
 1092 1168 l 1,11,-1
 1092 1168 l 1,0,-1
EndSplineSet
Validated: 5
EndChar

StartChar: l
Encoding: 108 108 79
Width: 983
VWidth: 2008
Flags: W
LayerCount: 2
Fore
SplineSet
59 -40 m 1,0,-1
 0 1385 l 1,1,-1
 391 1404 l 1,2,-1
 430 226 l 1,3,-1
 868 257 l 1,4,-1
 879 -1 l 1,5,-1
 59 -40 l 1,0,-1
EndSplineSet
Validated: 1
EndChar

StartChar: m
Encoding: 109 109 80
Width: 1575
VWidth: 2008
Flags: W
LayerCount: 2
Fore
SplineSet
782 353 m 1,0,-1
 1180 1353 l 1,1,-1
 1450 1361 l 1,2,-1
 1473 -1 l 1,3,-1
 1151 -5 l 1,4,-1
 1147 734 l 1,5,-1
 823 -48 l 1,6,-1
 678 -32 l 1,7,-1
 365 652 l 1,8,-1
 387 -38 l 1,9,-1
 23 -38 l 1,10,-1
 4 1392 l 1,11,-1
 311 1392 l 1,12,-1
 782 353 l 1,0,-1
EndSplineSet
Validated: 1
EndChar

StartChar: n
Encoding: 110 110 81
Width: 1345
VWidth: 2008
Flags: W
LayerCount: 2
Fore
SplineSet
365 828 m 1,0,-1
 385 -40 l 1,1,-1
 0 -40 l 1,2,-1
 0 1394 l 1,3,-1
 291 1394 l 1,4,-1
 930 482 l 1,5,-1
 887 1379 l 1,6,-1
 1217 1392 l 1,7,-1
 1239 -1 l 1,8,-1
 969 -22 l 1,9,-1
 365 828 l 1,0,-1
EndSplineSet
Validated: 1
EndChar

StartChar: o
Encoding: 111 111 82
Width: 1595
VWidth: 2008
Flags: W
LayerCount: 2
Fore
SplineSet
743 1420 m 0,0,1
 852 1420 852 1420 951 1393.5 c 128,-1,2
 1050 1367 1050 1367 1134.5 1319 c 128,-1,3
 1219 1271 1219 1271 1288 1203 c 128,-1,4
 1357 1135 1357 1135 1405.5 1053 c 128,-1,5
 1454 971 1454 971 1480.5 876 c 128,-1,6
 1507 781 1507 781 1507 679 c 0,7,8
 1507 578 1507 578 1480.5 484.5 c 128,-1,9
 1454 391 1454 391 1405.5 310 c 128,-1,10
 1357 229 1357 229 1288 162.5 c 128,-1,11
 1219 96 1219 96 1134.5 49 c 128,-1,12
 1050 2 1050 2 951 -24 c 128,-1,13
 852 -50 852 -50 743 -50 c 0,14,15
 640 -50 640 -50 544.5 -24 c 128,-1,16
 449 2 449 2 366.5 49 c 128,-1,17
 284 96 284 96 216.5 162.5 c 128,-1,18
 149 229 149 229 101 310 c 128,-1,19
 53 391 53 391 26.5 484 c 128,-1,20
 0 577 0 577 0 679 c 256,21,22
 0 781 0 781 26.5 876 c 128,-1,23
 53 971 53 971 101 1053 c 128,-1,24
 149 1135 149 1135 216.5 1203 c 128,-1,25
 284 1271 284 1271 366.5 1319 c 128,-1,26
 449 1367 449 1367 544.5 1393.5 c 128,-1,27
 640 1420 640 1420 743 1420 c 0,0,1
743 236 m 0,28,29
 836 236 836 236 915 269 c 128,-1,30
 994 302 994 302 1051.5 357.5 c 128,-1,31
 1109 413 1109 413 1141.5 485.5 c 128,-1,32
 1174 558 1174 558 1174 638 c 0,33,34
 1174 726 1174 726 1141.5 799.5 c 128,-1,35
 1109 873 1109 873 1051.5 925.5 c 128,-1,36
 994 978 994 978 915 1007.5 c 128,-1,37
 836 1037 836 1037 743 1037 c 0,38,39
 658 1037 658 1037 583.5 1007.5 c 128,-1,40
 509 978 509 978 453.5 925.5 c 128,-1,41
 398 873 398 873 366 799.5 c 128,-1,42
 334 726 334 726 334 638 c 0,43,44
 334 558 334 558 366 485.5 c 128,-1,45
 398 413 398 413 453.5 357.5 c 128,-1,46
 509 302 509 302 583.5 269 c 128,-1,47
 658 236 658 236 743 236 c 0,28,29
EndSplineSet
Validated: 1
EndChar

StartChar: p
Encoding: 112 112 83
Width: 1215
VWidth: 2008
Flags: W
LayerCount: 2
Fore
SplineSet
1116 998 m 0,0,1
 1116 954 1116 954 1114.5 913 c 128,-1,2
 1113 872 1113 872 1104 834 c 128,-1,3
 1095 796 1095 796 1075 759 c 128,-1,4
 1055 722 1055 722 1018 685 c 1,5,6
 984 645 984 645 935 618 c 128,-1,7
 886 591 886 591 830.5 573.5 c 128,-1,8
 775 556 775 556 715 546.5 c 128,-1,9
 655 537 655 537 599.5 532.5 c 128,-1,10
 544 528 544 528 495 527.5 c 128,-1,11
 446 527 446 527 412 527 c 1,12,-1
 412 -20 l 1,13,-1
 39 -40 l 1,14,-1
 0 1390 l 1,15,-1
 391 1410 l 2,16,17
 428 1410 428 1410 472 1409.5 c 128,-1,18
 516 1409 516 1409 567.5 1405 c 128,-1,19
 619 1401 619 1401 678 1392.5 c 128,-1,20
 737 1384 737 1384 803 1369 c 256,21,22
 869 1354 869 1354 926 1319 c 128,-1,23
 983 1284 983 1284 1025.5 1234.5 c 128,-1,24
 1068 1185 1068 1185 1092 1124.5 c 128,-1,25
 1116 1064 1116 1064 1116 998 c 0,0,1
399 730 m 1,26,27
 411 730 411 730 445.5 728 c 128,-1,28
 480 726 480 726 524 727 c 128,-1,29
 568 728 568 728 616 736 c 128,-1,30
 664 744 664 744 702.5 765 c 128,-1,31
 741 786 741 786 764 823.5 c 128,-1,32
 787 861 787 861 782 921 c 0,33,34
 777 979 777 979 748.5 1016.5 c 128,-1,35
 720 1054 720 1054 670 1074 c 128,-1,36
 620 1094 620 1094 549.5 1099 c 128,-1,37
 479 1104 479 1104 391 1097 c 1,38,-1
 399 730 l 1,26,27
EndSplineSet
Validated: 33
EndChar

StartChar: q
Encoding: 113 113 84
Width: 1599
VWidth: 2008
Flags: W
LayerCount: 2
Fore
SplineSet
1499 679 m 0,0,1
 1499 557 1499 557 1459 444.5 c 128,-1,2
 1419 332 1419 332 1346 240 c 128,-1,3
 1273 148 1273 148 1171.5 82.5 c 128,-1,4
 1070 17 1070 17 946 -11 c 1,5,-1
 1212 -167 l 1,6,-1
 1047 -376 l 1,7,-1
 596 -32 l 1,8,9
 474 -10 474 -10 366 55.5 c 128,-1,10
 258 121 258 121 177 216.5 c 128,-1,11
 96 312 96 312 49 431 c 128,-1,12
 2 550 2 550 2 679 c 0,13,14
 2 780 2 780 28.5 873 c 128,-1,15
 55 966 55 966 103 1047 c 128,-1,16
 151 1128 151 1128 218 1194.5 c 128,-1,17
 285 1261 285 1261 367 1308.5 c 128,-1,18
 449 1356 449 1356 543 1382 c 128,-1,19
 637 1408 637 1408 739 1408 c 0,20,21
 846 1408 846 1408 944.5 1382 c 128,-1,22
 1043 1356 1043 1356 1127.5 1308.5 c 128,-1,23
 1212 1261 1212 1261 1280.5 1194.5 c 128,-1,24
 1349 1128 1349 1128 1397.5 1047 c 128,-1,25
 1446 966 1446 966 1472.5 873 c 128,-1,26
 1499 780 1499 780 1499 679 c 0,0,1
739 239 m 0,27,28
 831 239 831 239 909.5 270 c 128,-1,29
 988 301 988 301 1045 353.5 c 128,-1,30
 1102 406 1102 406 1134.5 476.5 c 128,-1,31
 1167 547 1167 547 1167 626 c 0,32,33
 1167 712 1167 712 1134.5 784 c 128,-1,34
 1102 856 1102 856 1045 908.5 c 128,-1,35
 988 961 988 961 909.5 990 c 128,-1,36
 831 1019 831 1019 739 1019 c 0,37,38
 655 1019 655 1019 582 990 c 128,-1,39
 509 961 509 961 455 908.5 c 128,-1,40
 401 856 401 856 369.5 784 c 128,-1,41
 338 712 338 712 338 626 c 0,42,43
 338 547 338 547 369.5 476.5 c 128,-1,44
 401 406 401 406 455 353.5 c 128,-1,45
 509 301 509 301 582 270 c 128,-1,46
 655 239 655 239 739 239 c 0,27,28
EndSplineSet
Validated: 1
EndChar

StartChar: r
Encoding: 114 114 85
Width: 1229
VWidth: 2008
Flags: W
LayerCount: 2
Fore
SplineSet
1014 681 m 0,0,1
 982 648 982 648 940.5 623.5 c 128,-1,2
 899 599 899 599 854 581.5 c 128,-1,3
 809 564 809 564 762.5 553.5 c 128,-1,4
 716 543 716 543 674 538 c 1,5,-1
 1053 155 l 1,6,-1
 858 -20 l 1,7,-1
 399 501 l 1,8,-1
 410 -20 l 1,9,-1
 39 -40 l 1,10,-1
 0 1383 l 1,11,-1
 391 1404 l 2,12,13
 463 1404 463 1404 565.5 1399 c 128,-1,14
 668 1394 668 1394 801 1365 c 0,15,16
 860 1352 860 1352 915 1317 c 128,-1,17
 970 1282 970 1282 1013.5 1232.5 c 128,-1,18
 1057 1183 1057 1183 1085 1121.5 c 128,-1,19
 1113 1060 1113 1060 1118 994 c 0,20,21
 1121 950 1121 950 1119.5 911 c 128,-1,22
 1118 872 1118 872 1107.5 834 c 128,-1,23
 1097 796 1097 796 1075 758.5 c 128,-1,24
 1053 721 1053 721 1014 681 c 0,0,1
780 898 m 0,25,26
 773 956 773 956 744.5 993.5 c 128,-1,27
 716 1031 716 1031 666.5 1051.5 c 128,-1,28
 617 1072 617 1072 548 1076.5 c 128,-1,29
 479 1081 479 1081 391 1074 c 1,30,-1
 391 701 l 1,31,32
 405 701 405 701 441 698 c 128,-1,33
 477 695 477 695 522 695.5 c 128,-1,34
 567 696 567 696 615 704 c 128,-1,35
 663 712 663 712 701.5 734 c 128,-1,36
 740 756 740 756 762.5 795 c 128,-1,37
 785 834 785 834 780 898 c 0,25,26
EndSplineSet
Validated: 33
EndChar

StartChar: s
Encoding: 115 115 86
Width: 1225
VWidth: 2008
Flags: W
LayerCount: 2
Fore
SplineSet
213 366 m 1,0,1
 332 262 332 262 420 232 c 128,-1,2
 508 202 508 202 567 249 c 0,3,4
 591 273 591 273 580 303 c 128,-1,5
 569 333 569 333 536 366 c 128,-1,6
 503 399 503 399 454.5 433.5 c 128,-1,7
 406 468 406 468 356.5 501.5 c 128,-1,8
 307 535 307 535 263 566 c 128,-1,9
 219 597 219 597 194 622 c 0,10,11
 189 626 189 626 170 642 c 128,-1,12
 151 658 151 658 126.5 685 c 128,-1,13
 102 712 102 712 76 749 c 128,-1,14
 50 786 50 786 32 832.5 c 128,-1,15
 14 879 14 879 8 934.5 c 128,-1,16
 2 990 2 990 16 1054 c 1,17,18
 39 1135 39 1135 92.5 1200 c 128,-1,19
 146 1265 146 1265 221.5 1310.5 c 128,-1,20
 297 1356 297 1356 390.5 1381 c 128,-1,21
 484 1406 484 1406 586 1406 c 0,22,23
 673 1406 673 1406 748 1398 c 128,-1,24
 823 1390 823 1390 889.5 1371.5 c 128,-1,25
 956 1353 956 1353 1017 1323 c 128,-1,26
 1078 1293 1078 1293 1136 1248 c 1,27,-1
 940 914 l 1,28,29
 896 959 896 959 839.5 994 c 128,-1,30
 783 1029 783 1029 723.5 1050.5 c 128,-1,31
 664 1072 664 1072 606.5 1077 c 128,-1,32
 549 1082 549 1082 502.5 1067.5 c 128,-1,33
 456 1053 456 1053 425.5 1015.5 c 128,-1,34
 395 978 395 978 391 914 c 0,35,36
 391 859 391 859 414 816.5 c 128,-1,37
 437 774 437 774 474 738 c 128,-1,38
 511 702 511 702 558 670 c 128,-1,39
 605 638 605 638 653.5 605 c 128,-1,40
 702 572 702 572 747 534.5 c 128,-1,41
 792 497 792 497 825.5 450 c 128,-1,42
 859 403 859 403 876.5 344 c 128,-1,43
 894 285 894 285 887 208 c 0,44,45
 880 134 880 134 845 82.5 c 128,-1,46
 810 31 810 31 758 0 c 128,-1,47
 706 -31 706 -31 641.5 -43 c 128,-1,48
 577 -55 577 -55 510 -50 c 0,49,50
 469 -47 469 -47 429 -39 c 128,-1,51
 389 -31 389 -31 351 -19 c 128,-1,52
 313 -7 313 -7 278 7 c 128,-1,53
 243 21 243 21 213 35 c 0,54,55
 142 68 142 68 78 110 c 1,56,57
 116 181 116 181 146 237 c 0,58,59
 159 261 159 261 171 284 c 128,-1,60
 183 307 183 307 192.5 325 c 128,-1,61
 202 343 202 343 207.5 354 c 128,-1,62
 213 365 213 365 213 366 c 1,0,1
EndSplineSet
Validated: 33
EndChar

StartChar: t
Encoding: 116 116 87
Width: 1368
VWidth: 2008
Flags: W
LayerCount: 2
Fore
SplineSet
797 1086 m 1,0,-1
 815 -26 l 1,1,-1
 446 -40 l 1,2,-1
 426 1074 l 1,3,-1
 10 1054 l 1,4,-1
 0 1357 l 1,5,-1
 1260 1396 l 1,6,-1
 1270 1105 l 1,7,-1
 797 1086 l 1,0,-1
EndSplineSet
Validated: 1
EndChar

StartChar: u
Encoding: 117 117 88
Width: 1530
VWidth: 2008
Flags: W
LayerCount: 2
Fore
SplineSet
0 1394 m 1,0,-1
 442 1394 l 1,1,2
 442 1167 442 1167 439.5 989 c 128,-1,3
 437 811 437 811 442 675.5 c 128,-1,4
 447 540 447 540 464 446 c 128,-1,5
 481 352 481 352 519.5 293.5 c 128,-1,6
 558 235 558 235 622.5 210.5 c 128,-1,7
 687 186 687 186 788 191 c 256,8,9
 889 196 889 196 952 236 c 128,-1,10
 1015 276 1015 276 1049.5 347.5 c 128,-1,11
 1084 419 1084 419 1096 520.5 c 128,-1,12
 1108 622 1108 622 1109 750 c 128,-1,13
 1110 878 1110 878 1105 1030.5 c 128,-1,14
 1100 1183 1100 1183 1100 1357 c 1,15,16
 1100 1357 1100 1357 1124.5 1357 c 128,-1,17
 1149 1357 1149 1357 1185 1356.5 c 128,-1,18
 1221 1356 1221 1356 1263 1356 c 128,-1,19
 1305 1356 1305 1356 1341 1356 c 128,-1,20
 1377 1356 1377 1356 1401 1356.5 c 128,-1,21
 1425 1357 1425 1357 1425 1357 c 1,22,23
 1425 1198 1425 1198 1424.5 1077.5 c 128,-1,24
 1424 957 1424 957 1422.5 866 c 128,-1,25
 1421 775 1421 775 1419 707.5 c 128,-1,26
 1417 640 1417 640 1413 585.5 c 128,-1,27
 1409 531 1409 531 1403 485.5 c 128,-1,28
 1397 440 1397 440 1389 392 c 0,29,30
 1373 299 1373 299 1320.5 218.5 c 128,-1,31
 1268 138 1268 138 1186.5 78 c 128,-1,32
 1105 18 1105 18 999 -16 c 128,-1,33
 893 -50 893 -50 770 -50 c 0,34,35
 650 -50 650 -50 554.5 -30.5 c 128,-1,36
 459 -11 459 -11 384.5 21 c 128,-1,37
 310 53 310 53 255 95 c 128,-1,38
 200 137 200 137 161 181.5 c 128,-1,39
 122 226 122 226 96.5 270.5 c 128,-1,40
 71 315 71 315 57 353 c 0,41,42
 47 382 47 382 39 419.5 c 128,-1,43
 31 457 31 457 25 511.5 c 128,-1,44
 19 566 19 566 14 642 c 128,-1,45
 9 718 9 718 6 824 c 128,-1,46
 3 930 3 930 1.5 1070.5 c 128,-1,47
 0 1211 0 1211 0 1394 c 1,0,-1
EndSplineSet
Validated: 33
EndChar

StartChar: v
Encoding: 118 118 89
Width: 1578
VWidth: 2008
Flags: W
LayerCount: 2
Fore
SplineSet
1479 1318 m 1,0,-1
 891 -42 l 1,1,-1
 571 -22 l 1,2,-1
 -2 1299 l 1,3,-1
 287 1394 l 1,4,-1
 688 423 l 1,5,-1
 1065 1420 l 1,6,-1
 1479 1318 l 1,0,-1
EndSplineSet
Validated: 1
EndChar

StartChar: w
Encoding: 119 119 90
Width: 1966
VWidth: 2008
Flags: W
LayerCount: 2
Fore
SplineSet
1303 441 m 1,0,-1
 1540 1383 l 1,1,-1
 1878 1322 l 1,2,-1
 1516 -26 l 1,3,-1
 1198 9 l 1,4,-1
 989 806 l 1,5,-1
 690 -42 l 1,6,-1
 338 -42 l 1,7,-1
 0 1349 l 1,8,-1
 397 1396 l 1,9,-1
 590 533 l 1,10,-1
 856 1396 l 1,11,-1
 1067 1379 l 1,12,-1
 1303 441 l 1,0,-1
EndSplineSet
Validated: 1
EndChar

StartChar: x
Encoding: 120 120 91
Width: 1468
VWidth: 2008
Flags: W
LayerCount: 2
Fore
SplineSet
1354 191 m 1,0,-1
 1065 -46 l 1,1,-1
 664 419 l 1,2,-1
 254 -32 l 1,3,-1
 12 214 l 1,4,-1
 451 677 l 1,5,-1
 29 1144 l 1,6,-1
 311 1396 l 1,7,-1
 702 937 l 1,8,-1
 1057 1344 l 1,9,-1
 1255 1160 l 1,10,-1
 872 726 l 1,11,-1
 1354 191 l 1,12,-1
 1354 191 l 1,0,-1
EndSplineSet
Validated: 5
EndChar

StartChar: y
Encoding: 121 121 92
Width: 1509
VWidth: 2008
Flags: W
LayerCount: 2
Fore
SplineSet
1407 1234 m 1,0,-1
 932 660 l 1,1,-1
 971 -32 l 1,2,-1
 614 -52 l 1,3,-1
 573 622 l 1,4,-1
 0 1195 l 1,5,-1
 258 1414 l 1,6,-1
 772 859 l 1,7,-1
 1188 1394 l 1,8,-1
 1407 1234 l 1,9,-1
 1407 1234 l 1,0,-1
EndSplineSet
Validated: 5
EndChar

StartChar: z
Encoding: 122 122 93
Width: 1221
VWidth: 2008
Flags: W
LayerCount: 2
Fore
SplineSet
508 218 m 1,0,-1
 936 212 l 1,1,-1
 924 -34 l 1,2,-1
 98 -7 l 1,3,-1
 98 196 l 1,4,-1
 647 1058 l 1,5,-1
 0 1058 l 1,6,-1
 0 1396 l 1,7,-1
 1012 1381 l 1,8,-1
 1012 1113 l 1,9,-1
 508 218 l 1,10,-1
 508 218 l 1,0,-1
EndSplineSet
Validated: 5
EndChar

StartChar: braceleft
Encoding: 123 123 94
Width: 586
VWidth: 2008
Flags: W
LayerCount: 2
Fore
SplineSet
464 -22 m 1,0,1
 398 -27 398 -27 346.5 -22.5 c 128,-1,2
 295 -18 295 -18 256.5 -8 c 128,-1,3
 218 2 218 2 191 16 c 128,-1,4
 164 30 164 30 146 44.5 c 128,-1,5
 128 59 128 59 117.5 72 c 128,-1,6
 107 85 107 85 101 93 c 0,7,8
 72 135 72 135 62.5 174.5 c 128,-1,9
 53 214 53 214 55 250 c 128,-1,10
 57 286 57 286 68 318.5 c 128,-1,11
 79 351 79 351 91 379 c 128,-1,12
 103 407 103 407 112.5 431 c 128,-1,13
 122 455 122 455 122 474 c 0,14,15
 122 489 122 489 112 503 c 128,-1,16
 102 517 102 517 85.5 528 c 128,-1,17
 69 539 69 539 48.5 545.5 c 128,-1,18
 28 552 28 552 7 552 c 1,19,-1
 7 667 l 1,20,21
 28 667 28 667 51 668 c 128,-1,22
 74 669 74 669 93.5 674 c 128,-1,23
 113 679 113 679 125.5 690 c 128,-1,24
 138 701 138 701 138 722 c 0,25,26
 138 741 138 741 127 761.5 c 128,-1,27
 116 782 116 782 99.5 805 c 128,-1,28
 83 828 83 828 65 855.5 c 128,-1,29
 47 883 47 883 32.5 916.5 c 128,-1,30
 18 950 18 950 10 992 c 128,-1,31
 2 1034 2 1034 7 1086 c 0,32,33
 21 1172 21 1172 59.5 1231 c 128,-1,34
 98 1290 98 1290 159 1326 c 128,-1,35
 220 1362 220 1362 301.5 1378 c 128,-1,36
 383 1394 383 1394 484 1394 c 1,37,-1
 484 1220 l 1,38,39
 413 1225 413 1225 362 1218 c 128,-1,40
 311 1211 311 1211 277 1195.5 c 128,-1,41
 243 1180 243 1180 223 1158 c 128,-1,42
 203 1136 203 1136 193 1111 c 128,-1,43
 183 1086 183 1086 180 1059.5 c 128,-1,44
 177 1033 177 1033 177 1009 c 0,45,46
 177 967 177 967 195.5 930 c 128,-1,47
 214 893 214 893 235.5 859 c 128,-1,48
 257 825 257 825 275.5 791.5 c 128,-1,49
 294 758 294 758 294 722 c 0,50,51
 294 694 294 694 279 656.5 c 128,-1,52
 264 619 264 619 236 591 c 1,53,54
 261 577 261 577 273 554.5 c 128,-1,55
 285 532 285 532 290 510 c 0,56,57
 295 484 295 484 294 456 c 0,58,59
 294 427 294 427 285.5 404 c 128,-1,60
 277 381 277 381 265.5 361 c 128,-1,61
 254 341 254 341 242.5 322 c 128,-1,62
 231 303 231 303 224.5 283 c 128,-1,63
 218 263 218 263 219.5 239.5 c 128,-1,64
 221 216 221 216 236 187 c 0,65,66
 250 158 250 158 274 146 c 128,-1,67
 298 134 298 134 328.5 132 c 128,-1,68
 359 130 359 130 394 135.5 c 128,-1,69
 429 141 429 141 464 148 c 1,70,-1
 464 -22 l 1,71,-1
 464 -22 l 1,0,1
EndSplineSet
Validated: 37
EndChar

StartChar: bar
Encoding: 124 124 95
Width: 512
VWidth: 2008
Flags: W
LayerCount: 2
Fore
SplineSet
379 -38 m 1,0,-1
 189 -45 l 1,1,-1
 197 1393 l 1,2,-1
 389 1393 l 1,3,-1
 379 -38 l 1,0,-1
EndSplineSet
Validated: 1
EndChar

StartChar: braceright
Encoding: 125 125 96
Width: 586
VWidth: 2008
Flags: W
LayerCount: 2
Fore
SplineSet
20 -22 m 1,0,-1
 20 148 l 1,1,2
 56 141 56 141 90.5 135.5 c 128,-1,3
 125 130 125 130 155.5 132 c 128,-1,4
 186 134 186 134 210 146 c 128,-1,5
 234 158 234 158 248 187 c 0,6,7
 263 216 263 216 264.5 239.5 c 128,-1,8
 266 263 266 263 259.5 283 c 128,-1,9
 253 303 253 303 241.5 322 c 128,-1,10
 230 341 230 341 218.5 361 c 128,-1,11
 207 381 207 381 198.5 404 c 128,-1,12
 190 427 190 427 190 456 c 0,13,14
 189 484 189 484 194 510 c 0,15,16
 199 532 199 532 211 554.5 c 128,-1,17
 223 577 223 577 248 591 c 1,18,19
 220 619 220 619 205 656.5 c 128,-1,20
 190 694 190 694 190 722 c 0,21,22
 190 758 190 758 208.5 791.5 c 128,-1,23
 227 825 227 825 248.5 859 c 128,-1,24
 270 893 270 893 288.5 930 c 128,-1,25
 307 967 307 967 307 1009 c 0,26,27
 307 1033 307 1033 304 1059.5 c 128,-1,28
 301 1086 301 1086 291 1111 c 128,-1,29
 281 1136 281 1136 261 1158 c 128,-1,30
 241 1180 241 1180 207 1195.5 c 128,-1,31
 173 1211 173 1211 122.5 1218 c 128,-1,32
 72 1225 72 1225 0 1220 c 1,33,-1
 0 1394 l 1,34,35
 100 1394 100 1394 182 1378 c 128,-1,36
 264 1362 264 1362 325 1326 c 128,-1,37
 386 1290 386 1290 424.5 1231 c 128,-1,38
 463 1172 463 1172 477 1086 c 0,39,40
 482 1034 482 1034 474.5 992 c 128,-1,41
 467 950 467 950 452.5 916.5 c 128,-1,42
 438 883 438 883 419.5 855.5 c 128,-1,43
 401 828 401 828 384.5 805 c 128,-1,44
 368 782 368 782 357 761.5 c 128,-1,45
 346 741 346 741 346 722 c 0,46,47
 346 701 346 701 358.5 690 c 128,-1,48
 371 679 371 679 390.5 674 c 128,-1,49
 410 669 410 669 433 668 c 128,-1,50
 456 667 456 667 477 667 c 1,51,-1
 477 552 l 1,52,53
 456 552 456 552 435.5 545.5 c 128,-1,54
 415 539 415 539 398.5 528 c 128,-1,55
 382 517 382 517 372 503 c 128,-1,56
 362 489 362 489 362 474 c 0,57,58
 362 455 362 455 371.5 431 c 128,-1,59
 381 407 381 407 393.5 379 c 128,-1,60
 406 351 406 351 416.5 318.5 c 128,-1,61
 427 286 427 286 429.5 250 c 128,-1,62
 432 214 432 214 422 174.5 c 128,-1,63
 412 135 412 135 383 93 c 0,64,65
 374 81 374 81 354 58.5 c 128,-1,66
 334 36 334 36 293 15.5 c 128,-1,67
 252 -5 252 -5 186 -17.5 c 128,-1,68
 120 -30 120 -30 20 -22 c 1,0,-1
EndSplineSet
Validated: 33
EndChar

StartChar: asciitilde
Encoding: 126 126 97
Width: 1108
VWidth: 2008
Flags: W
LayerCount: 2
Fore
SplineSet
-4 638 m 1,0,1
 6 652 6 652 25.5 676 c 128,-1,2
 45 700 45 700 71.5 727 c 128,-1,3
 98 754 98 754 131.5 782 c 128,-1,4
 165 810 165 810 202 832.5 c 128,-1,5
 239 855 239 855 279 869.5 c 128,-1,6
 319 884 319 884 360 884 c 0,7,8
 413 884 413 884 449 867.5 c 128,-1,9
 485 851 485 851 510.5 826.5 c 128,-1,10
 536 802 536 802 554.5 773 c 128,-1,11
 573 744 573 744 590.5 719.5 c 128,-1,12
 608 695 608 695 628.5 678.5 c 128,-1,13
 649 662 649 662 678 662 c 0,14,15
 710 662 710 662 740 683.5 c 128,-1,16
 770 705 770 705 793 731 c 0,17,18
 820 761 820 761 844 800 c 1,19,-1
 1012 646 l 1,20,21
 1001 632 1001 632 981 610.5 c 128,-1,22
 961 589 961 589 935 565 c 128,-1,23
 909 541 909 541 878.5 517 c 128,-1,24
 848 493 848 493 816.5 473.5 c 128,-1,25
 785 454 785 454 753.5 442 c 128,-1,26
 722 430 722 430 694 431 c 0,27,28
 647 431 647 431 613.5 445 c 128,-1,29
 580 459 580 459 554.5 479 c 128,-1,30
 529 499 529 499 509 522.5 c 128,-1,31
 489 546 489 546 469 566 c 128,-1,32
 449 586 449 586 427 599.5 c 128,-1,33
 405 613 405 613 375 613 c 0,34,35
 352 613 352 613 331.5 605.5 c 128,-1,36
 311 598 311 598 293 586 c 128,-1,37
 275 574 275 574 259.5 559 c 128,-1,38
 244 544 244 544 231 528 c 0,39,40
 201 490 201 490 178 443 c 1,41,-1
 -4 638 l 1,0,1
EndSplineSet
Validated: 1
EndChar

StartChar: sterling
Encoding: 163 163 100
Width: 895
VWidth: 2008
Flags: W
LayerCount: 2
Fore
SplineSet
786 234 m 1,0,-1
 786 19 l 1,1,-1
 0 19 l 1,2,-1
 0 210 l 1,3,4
 27 210 27 210 64 219.5 c 128,-1,5
 101 229 101 229 134.5 251.5 c 128,-1,6
 168 274 168 274 191.5 310 c 128,-1,7
 215 346 215 346 215 400 c 0,8,9
 215 409 215 409 214.5 426 c 128,-1,10
 214 443 214 443 212 463.5 c 128,-1,11
 210 484 210 484 204.5 505 c 128,-1,12
 199 526 199 526 190 544 c 1,13,-1
 25 544 l 1,14,-1
 25 710 l 1,15,-1
 166 710 l 1,16,17
 149 782 149 782 134 850.5 c 128,-1,18
 119 919 119 919 119 972 c 0,19,20
 119 1044 119 1044 151.5 1105 c 128,-1,21
 184 1166 184 1166 237.5 1211 c 128,-1,22
 291 1256 291 1256 359.5 1281 c 128,-1,23
 428 1306 428 1306 500 1306 c 256,24,25
 572 1306 572 1306 625 1283.5 c 128,-1,26
 678 1261 678 1261 714 1235 c 0,27,28
 756 1203 756 1203 786 1164 c 1,29,-1
 668 1043 l 1,30,31
 653 1057 653 1057 632 1068 c 0,32,33
 614 1077 614 1077 587 1085 c 128,-1,34
 560 1093 560 1093 524 1093 c 0,35,36
 470 1093 470 1093 434 1073.5 c 128,-1,37
 398 1054 398 1054 375.5 1027 c 128,-1,38
 353 1000 353 1000 343.5 971.5 c 128,-1,39
 334 943 334 943 334 925 c 0,40,41
 334 916 334 916 338 895 c 128,-1,42
 342 874 342 874 349 845 c 128,-1,43
 356 816 356 816 364 781 c 128,-1,44
 372 746 372 746 381 710 c 1,45,-1
 571 710 l 1,46,-1
 571 544 l 1,47,-1
 428 544 l 1,48,49
 437 526 437 526 442.5 505 c 128,-1,50
 448 484 448 484 450 463.5 c 128,-1,51
 452 443 452 443 452.5 426 c 128,-1,52
 453 409 453 409 453 400 c 0,53,54
 453 346 453 346 442 313.5 c 128,-1,55
 431 281 431 281 417 263 c 0,56,57
 401 242 401 242 381 234 c 1,58,-1
 786 234 l 1,0,-1
EndSplineSet
Validated: 1
EndChar

StartChar: yen
Encoding: 165 165 101
Width: 1510
VWidth: 2008
Flags: W
LayerCount: 2
Fore
SplineSet
932 660 m 1,0,-1
 971 -32 l 1,1,-1
 614 -52 l 1,2,-1
 573 622 l 1,3,-1
 0 1195 l 1,4,-1
 258 1414 l 1,5,-1
 772 859 l 1,6,-1
 1188 1394 l 1,7,-1
 1407 1234 l 1,8,-1
 932 660 l 1,0,-1
1174 456 m 1,9,-1
 359 440 l 1,10,-1
 361 657 l 1,11,-1
 1178 645 l 1,12,-1
 1174 456 l 1,9,-1
1155 182 m 5,13,-1
 332 155 l 5,14,-1
 334 375 l 5,15,-1
 1159 362 l 5,16,-1
 1155 182 l 5,13,-1
EndSplineSet
Validated: 5
EndChar

StartChar: dieresis
Encoding: 168 168 102
Width: 469
VWidth: 2008
Flags: W
LayerCount: 2
Fore
SplineSet
106 1318 m 0,0,1
 88 1317 88 1317 70 1323 c 128,-1,2
 52 1329 52 1329 38 1341 c 128,-1,3
 24 1353 24 1353 14 1371 c 128,-1,4
 4 1389 4 1389 2 1412 c 0,5,6
 0 1437 0 1437 7.5 1456 c 128,-1,7
 15 1475 15 1475 28.5 1488.5 c 128,-1,8
 42 1502 42 1502 59 1509 c 128,-1,9
 76 1516 76 1516 94 1516 c 0,10,11
 114 1517 114 1517 131 1509.5 c 128,-1,12
 148 1502 148 1502 160.5 1489 c 128,-1,13
 173 1476 173 1476 180 1458.5 c 128,-1,14
 187 1441 187 1441 188 1422 c 0,15,16
 189 1404 189 1404 183.5 1386 c 128,-1,17
 178 1368 178 1368 167.5 1353.5 c 128,-1,18
 157 1339 157 1339 141 1329 c 128,-1,19
 125 1319 125 1319 106 1318 c 0,0,1
391 1334 m 0,20,21
 354 1332 354 1332 328 1356.5 c 128,-1,22
 302 1381 302 1381 299 1416 c 0,23,24
 298 1435 298 1435 304 1452 c 128,-1,25
 310 1469 310 1469 321.5 1481.5 c 128,-1,26
 333 1494 333 1494 348 1501.5 c 128,-1,27
 363 1509 363 1509 381 1510 c 0,28,29
 419 1511 419 1511 445 1487 c 128,-1,30
 471 1463 471 1463 473 1424 c 0,31,32
 476 1387 476 1387 452.5 1361.5 c 128,-1,33
 429 1336 429 1336 391 1334 c 0,20,21
EndSplineSet
Validated: 33
EndChar

StartChar: copyright
Encoding: 169 169 103
Width: 1208
VWidth: 2008
Flags: W
LayerCount: 2
Fore
SplineSet
731 175 m 1,0,1
 717 164 717 164 698.5 157 c 128,-1,2
 680 150 680 150 659.5 145.5 c 128,-1,3
 639 141 639 141 618 139.5 c 128,-1,4
 597 138 597 138 578 138 c 0,5,6
 522 138 522 138 469.5 157.5 c 128,-1,7
 417 177 417 177 376 211.5 c 128,-1,8
 335 246 335 246 310 293 c 128,-1,9
 285 340 285 340 285 394 c 0,10,11
 282 455 282 455 300.5 509.5 c 128,-1,12
 319 564 319 564 358 605 c 128,-1,13
 397 646 397 646 456 670.5 c 128,-1,14
 515 695 515 695 592 695 c 0,15,16
 625 695 625 695 654.5 690 c 128,-1,17
 684 685 684 685 706.5 679 c 128,-1,18
 729 673 729 673 743.5 667 c 128,-1,19
 758 661 758 661 760 658 c 2,20,-1
 760 519 l 1,21,22
 751 524 751 524 735.5 530.5 c 128,-1,23
 720 537 720 537 699.5 542 c 128,-1,24
 679 547 679 547 655 549 c 128,-1,25
 631 551 631 551 606 548 c 0,26,27
 584 548 584 548 552 539 c 128,-1,28
 520 530 520 530 492 510 c 128,-1,29
 464 490 464 490 447 456.5 c 128,-1,30
 430 423 430 423 438 374 c 0,31,32
 446 332 446 332 481 306 c 128,-1,33
 516 280 516 280 561.5 269 c 128,-1,34
 607 258 607 258 653.5 262 c 128,-1,35
 700 266 700 266 731 286 c 1,36,-1
 731 175 l 1,0,1
547 974 m 0,37,38
 667 974 667 974 769.5 931 c 128,-1,39
 872 888 872 888 947 814.5 c 128,-1,40
 1022 741 1022 741 1065 642 c 128,-1,41
 1108 543 1108 543 1108 431 c 0,42,43
 1108 320 1108 320 1065 222.5 c 128,-1,44
 1022 125 1022 125 947 52.5 c 128,-1,45
 872 -20 872 -20 769.5 -61.5 c 128,-1,46
 667 -103 667 -103 547 -103 c 0,47,48
 433 -103 433 -103 334 -61.5 c 128,-1,49
 235 -20 235 -20 161 52.5 c 128,-1,50
 87 125 87 125 44.5 222.5 c 128,-1,51
 2 320 2 320 2 431 c 0,52,53
 2 543 2 543 44.5 642 c 128,-1,54
 87 741 87 741 161 814.5 c 128,-1,55
 235 888 235 888 334 931 c 128,-1,56
 433 974 433 974 547 974 c 0,37,38
545 -15 m 0,57,58
 645 -15 645 -15 729.5 20 c 128,-1,59
 814 55 814 55 875.5 113.5 c 128,-1,60
 937 172 937 172 971.5 249.5 c 128,-1,61
 1006 327 1006 327 1006 413 c 0,62,63
 1006 507 1006 507 971.5 585.5 c 128,-1,64
 937 664 937 664 875.5 720.5 c 128,-1,65
 814 777 814 777 729.5 808 c 128,-1,66
 645 839 645 839 545 839 c 0,67,68
 454 839 454 839 374.5 808 c 128,-1,69
 295 777 295 777 236 720.5 c 128,-1,70
 177 664 177 664 143 585.5 c 128,-1,71
 109 507 109 507 109 413 c 0,72,73
 109 327 109 327 143 249.5 c 128,-1,74
 177 172 177 172 236 113.5 c 128,-1,75
 295 55 295 55 374.5 20 c 128,-1,76
 454 -15 454 -15 545 -15 c 0,57,58
EndSplineSet
Validated: 33
EndChar

StartChar: registered
Encoding: 174 174 104
Width: 1210
VWidth: 2008
Flags: W
LayerCount: 2
Fore
SplineSet
549 972 m 0,0,1
 669 972 669 972 771.5 929 c 128,-1,2
 874 886 874 886 949 812.5 c 128,-1,3
 1024 739 1024 739 1067 640 c 128,-1,4
 1110 541 1110 541 1110 429 c 0,5,6
 1110 318 1110 318 1067 220.5 c 128,-1,7
 1024 123 1024 123 949 50.5 c 128,-1,8
 874 -22 874 -22 771.5 -64 c 128,-1,9
 669 -106 669 -106 549 -106 c 0,10,11
 435 -106 435 -106 336 -64 c 128,-1,12
 237 -22 237 -22 163 50.5 c 128,-1,13
 89 123 89 123 46.5 220.5 c 128,-1,14
 4 318 4 318 4 429 c 0,15,16
 4 541 4 541 46.5 640 c 128,-1,17
 89 739 89 739 163 812.5 c 128,-1,18
 237 886 237 886 336 929 c 128,-1,19
 435 972 435 972 549 972 c 0,0,1
547 -17 m 0,20,21
 647 -17 647 -17 731.5 18 c 128,-1,22
 816 53 816 53 877.5 111.5 c 128,-1,23
 939 170 939 170 973.5 247.5 c 128,-1,24
 1008 325 1008 325 1008 411 c 0,25,26
 1008 505 1008 505 973.5 583.5 c 128,-1,27
 939 662 939 662 877.5 718 c 128,-1,28
 816 774 816 774 731.5 805.5 c 128,-1,29
 647 837 647 837 547 837 c 0,30,31
 456 837 456 837 376.5 805.5 c 128,-1,32
 297 774 297 774 238 718 c 128,-1,33
 179 662 179 662 145 583.5 c 128,-1,34
 111 505 111 505 111 411 c 0,35,36
 111 325 111 325 145 247.5 c 128,-1,37
 179 170 179 170 238 111.5 c 128,-1,38
 297 53 297 53 376.5 18 c 128,-1,39
 456 -17 456 -17 547 -17 c 0,20,21
774 406 m 0,40,41
 748 379 748 379 708 365.5 c 128,-1,42
 668 352 668 352 631 347 c 1,43,-1
 791 187 l 1,44,-1
 709 114 l 1,45,-1
 518 331 l 1,46,-1
 520 114 l 1,47,-1
 367 105 l 1,48,-1
 350 699 l 1,49,-1
 514 710 l 2,50,51
 545 710 545 710 587.5 708 c 128,-1,52
 630 706 630 706 686 693 c 0,53,54
 711 687 711 687 734 672.5 c 128,-1,55
 757 658 757 658 775 637 c 128,-1,56
 793 616 793 616 804 590.5 c 128,-1,57
 815 565 815 565 817 538 c 0,58,59
 818 519 818 519 818 502.5 c 128,-1,60
 818 486 818 486 813.5 470.5 c 128,-1,61
 809 455 809 455 799.5 439 c 128,-1,62
 790 423 790 423 774 406 c 0,40,41
676 497 m 0,63,64
 670 546 670 546 629 561 c 128,-1,65
 588 576 588 576 514 570 c 1,66,-1
 514 415 l 1,67,68
 520 415 520 415 535.5 413.5 c 128,-1,69
 551 412 551 412 569.5 412.5 c 128,-1,70
 588 413 588 413 608 416 c 128,-1,71
 628 419 628 419 644 428 c 128,-1,72
 660 437 660 437 669 453.5 c 128,-1,73
 678 470 678 470 676 497 c 0,63,64
EndSplineSet
Validated: 33
EndChar

StartChar: macron
Encoding: 175 175 105
Width: 877
VWidth: 2008
Flags: W
LayerCount: 2
Fore
SplineSet
810 1322 m 5,0,-1
 203 1322 l 5,1,-1
 204 1431 l 5,2,-1
 813 1424 l 5,3,-1
 810 1322 l 5,0,-1
EndSplineSet
Validated: 1
EndChar

StartChar: acute
Encoding: 180 180 106
Width: 340
VWidth: 2008
Flags: W
LayerCount: 2
Fore
SplineSet
66 1205 m 1,0,-1
 0 1291 l 1,1,-1
 246 1498 l 1,2,-1
 340 1367 l 1,3,-1
 66 1205 l 1,0,-1
EndSplineSet
Validated: 1
EndChar

StartChar: cedilla
Encoding: 184 184 107
Width: 311
VWidth: 2008
Flags: W
LayerCount: 2
Fore
SplineSet
0 -280 m 1,0,1
 11 -282 11 -282 38.5 -283 c 128,-1,2
 66 -284 66 -284 95 -281 c 128,-1,3
 124 -278 124 -278 146.5 -267.5 c 128,-1,4
 169 -257 169 -257 170 -235 c 0,5,6
 171 -218 171 -218 159 -208 c 128,-1,7
 147 -198 147 -198 129.5 -190.5 c 128,-1,8
 112 -183 112 -183 91 -177 c 128,-1,9
 70 -171 70 -171 52.5 -162.5 c 128,-1,10
 35 -154 35 -154 23 -142.5 c 128,-1,11
 11 -131 11 -131 12 -112 c 0,12,13
 11 -94 11 -94 18 -82 c 128,-1,14
 25 -70 25 -70 36.5 -61.5 c 128,-1,15
 48 -53 48 -53 61 -47 c 128,-1,16
 74 -41 74 -41 86 -36 c 1,17,-1
 199 -36 l 1,18,19
 179 -43 179 -43 164 -52 c 0,20,21
 150 -60 150 -60 139.5 -70.5 c 128,-1,22
 129 -81 129 -81 129 -95 c 0,23,24
 129 -107 129 -107 142 -113 c 128,-1,25
 155 -119 155 -119 175 -123 c 128,-1,26
 195 -127 195 -127 218.5 -132.5 c 128,-1,27
 242 -138 242 -138 262 -148 c 128,-1,28
 282 -158 282 -158 296 -175.5 c 128,-1,29
 310 -193 310 -193 311 -222 c 0,30,31
 312 -264 312 -264 290 -299.5 c 128,-1,32
 268 -335 268 -335 227 -360 c 128,-1,33
 186 -385 186 -385 128.5 -397.5 c 128,-1,34
 71 -410 71 -410 2 -405 c 1,35,-1
 0 -280 l 1,0,1
EndSplineSet
Validated: 33
EndChar

StartChar: AE
Encoding: 198 198 115
Width: 1847
VWidth: 2008
Flags: W
LayerCount: 2
Fore
SplineSet
1746 1390 m 1,0,-1
 1746 1047 l 1,1,-1
 1133 1047 l 1,2,-1
 1139 576 l 1,3,-1
 1498 576 l 1,4,-1
 1498 384 l 1,5,-1
 1148 384 l 1,6,-1
 1152 228 l 1,7,-1
 1645 249 l 1,8,-1
 1653 -24 l 1,9,-1
 783 -42 l 1,10,-1
 777 359 l 1,11,-1
 500 359 l 1,12,-1
 296 -44 l 1,13,-1
 -26 101 l 1,14,-1
 711 1392 l 1,15,-1
 1746 1390 l 1,0,-1
775 554 m 1,16,-1
 771 925 l 1,17,-1
 574 554 l 1,18,-1
 775 554 l 1,16,-1
EndSplineSet
Validated: 1
EndChar

StartChar: Ccedilla
Encoding: 199 199 116
Width: 1351
VWidth: 2008
Flags: W
LayerCount: 2
Fore
SplineSet
853 1019 m 1,0,1
 815 1019 815 1019 763 1009 c 128,-1,2
 711 999 711 999 657 976.5 c 128,-1,3
 603 954 603 954 552.5 918.5 c 128,-1,4
 502 883 502 883 465.5 831.5 c 128,-1,5
 429 780 429 780 412.5 712 c 128,-1,6
 396 644 396 644 410 558 c 0,7,8
 424 486 424 486 472 431.5 c 128,-1,9
 520 377 520 377 588 340 c 128,-1,10
 656 303 656 303 737 284 c 128,-1,11
 818 265 818 265 898.5 263.5 c 128,-1,12
 979 262 979 262 1052 278.5 c 128,-1,13
 1125 295 1125 295 1178 329 c 1,14,-1
 1178 40 l 1,15,16
 1143 11 1143 11 1094.5 -8 c 128,-1,17
 1046 -27 1046 -27 992 -37.5 c 128,-1,18
 938 -48 938 -48 882.5 -52 c 128,-1,19
 827 -56 827 -56 777 -56 c 0,20,21
 755 -56 755 -56 733 -55 c 128,-1,22
 711 -54 711 -54 689 -52 c 1,23,24
 678 -58 678 -58 670 -68 c 128,-1,25
 662 -78 662 -78 662 -89 c 0,26,27
 662 -101 662 -101 675.5 -106.5 c 128,-1,28
 689 -112 689 -112 709 -116.5 c 128,-1,29
 729 -121 729 -121 752 -126 c 128,-1,30
 775 -131 775 -131 795.5 -141.5 c 128,-1,31
 816 -152 816 -152 830 -169.5 c 128,-1,32
 844 -187 844 -187 845 -216 c 0,33,34
 846 -258 846 -258 824 -293.5 c 128,-1,35
 802 -329 802 -329 761 -353.5 c 128,-1,36
 720 -378 720 -378 662 -390.5 c 128,-1,37
 604 -403 604 -403 535 -398 c 1,38,-1
 533 -273 l 1,39,40
 544 -275 544 -275 571.5 -276.5 c 128,-1,41
 599 -278 599 -278 628 -275 c 128,-1,42
 657 -272 657 -272 679.5 -261.5 c 128,-1,43
 702 -251 702 -251 703 -228 c 0,44,45
 703 -212 703 -212 691.5 -201.5 c 128,-1,46
 680 -191 680 -191 662.5 -184 c 128,-1,47
 645 -177 645 -177 624.5 -171 c 128,-1,48
 604 -165 604 -165 586.5 -156.5 c 128,-1,49
 569 -148 569 -148 557 -136.5 c 128,-1,50
 545 -125 545 -125 546 -106 c 0,51,52
 545 -91 545 -91 550 -80.5 c 128,-1,53
 555 -70 555 -70 563 -62 c 128,-1,54
 571 -54 571 -54 581.5 -48.5 c 128,-1,55
 592 -43 592 -43 603 -38 c 1,56,57
 483 -11 483 -11 375 48.5 c 128,-1,58
 267 108 267 108 185 193.5 c 128,-1,59
 103 279 103 279 55 386 c 128,-1,60
 7 493 7 493 7 615 c 1,61,62
 0 774 0 774 50 917 c 128,-1,63
 100 1060 100 1060 202.5 1168.5 c 128,-1,64
 305 1277 305 1277 459 1340.5 c 128,-1,65
 613 1404 613 1404 814 1404 c 0,66,67
 901 1404 901 1404 978 1391.5 c 128,-1,68
 1055 1379 1055 1379 1114.5 1362.5 c 128,-1,69
 1174 1346 1174 1346 1211.5 1330.5 c 128,-1,70
 1249 1315 1249 1315 1256 1308 c 1,71,-1
 1256 943 l 1,72,73
 1235 957 1235 957 1193.5 973.5 c 128,-1,74
 1152 990 1152 990 1098 1002.5 c 128,-1,75
 1044 1015 1044 1015 980.5 1020.5 c 128,-1,76
 917 1026 917 1026 853 1019 c 1,0,1
EndSplineSet
Validated: 33
EndChar

StartChar: Eth
Encoding: 208 208 125
Width: 1629
VWidth: 2008
Flags: W
LayerCount: 2
Fore
SplineSet
1513 830 m 256,0,1
 1538 698 1538 698 1520.5 583.5 c 128,-1,2
 1503 469 1503 469 1452 375 c 128,-1,3
 1401 281 1401 281 1320 207.5 c 128,-1,4
 1239 134 1239 134 1137 82.5 c 128,-1,5
 1035 31 1035 31 916 2 c 128,-1,6
 797 -27 797 -27 670 -32 c 0,7,8
 522 -40 522 -40 425 -41 c 128,-1,9
 328 -42 328 -42 269 -40 c 0,10,11
 200 -38 200 -38 162 -32 c 1,12,-1
 154 533 l 1,13,-1
 -2 533 l 1,14,-1
 0 753 l 1,15,-1
 150 751 l 1,16,-1
 141 1369 l 1,17,18
 202 1376 202 1376 269.5 1381 c 128,-1,19
 337 1386 337 1386 401 1390 c 128,-1,20
 465 1394 465 1394 520 1396 c 128,-1,21
 575 1398 575 1398 612 1398 c 0,22,23
 675 1398 675 1398 760 1392.5 c 128,-1,24
 845 1387 845 1387 937 1368 c 128,-1,25
 1029 1349 1029 1349 1121 1312 c 128,-1,26
 1213 1275 1213 1275 1292 1212 c 128,-1,27
 1371 1149 1371 1149 1429.5 1055.5 c 128,-1,28
 1488 962 1488 962 1513 830 c 256,0,1
494 239 m 1,29,30
 647 229 647 229 768 250.5 c 128,-1,31
 889 272 889 272 972 324 c 128,-1,32
 1055 376 1055 376 1096 457.5 c 128,-1,33
 1137 539 1137 539 1130 648 c 0,34,35
 1126 718 1126 718 1102 771 c 128,-1,36
 1078 824 1078 824 1040.5 862.5 c 128,-1,37
 1003 901 1003 901 954.5 926 c 128,-1,38
 906 951 906 951 853.5 965.5 c 128,-1,39
 801 980 801 980 746 986 c 128,-1,40
 691 992 691 992 641 991.5 c 128,-1,41
 591 991 591 991 548 986 c 128,-1,42
 505 981 505 981 475 974 c 1,43,-1
 481 742 l 1,44,-1
 647 740 l 1,45,-1
 643 533 l 1,46,-1
 485 533 l 1,47,-1
 494 239 l 1,29,30
EndSplineSet
Validated: 33
EndChar

StartChar: multiply
Encoding: 215 215 132
Width: 971
VWidth: 2008
Flags: W
LayerCount: 2
Fore
SplineSet
720 183 m 1,0,-1
 446 500 l 1,1,-1
 166 192 l 1,2,-1
 1 360 l 1,3,-1
 301 676 l 1,4,-1
 13 995 l 1,5,-1
 205 1167 l 1,6,-1
 472 854 l 1,7,-1
 714 1132 l 1,8,-1
 849 1006 l 1,9,-1
 588 710 l 1,10,-1
 917 345 l 1,11,-1
 720 183 l 1,0,-1
EndSplineSet
Validated: 1
EndChar

StartChar: Oslash
Encoding: 216 216 133
Width: 1596
VWidth: 2008
Flags: W
LayerCount: 2
Fore
SplineSet
1360 1136 m 1,0,1
 1431 1043 1431 1043 1470 929.5 c 128,-1,2
 1509 816 1509 816 1509 691 c 0,3,4
 1509 590 1509 590 1482.5 496.5 c 128,-1,5
 1456 403 1456 403 1407.5 322 c 128,-1,6
 1359 241 1359 241 1290 174.5 c 128,-1,7
 1221 108 1221 108 1136.5 61 c 128,-1,8
 1052 14 1052 14 953 -12 c 128,-1,9
 854 -38 854 -38 745 -38 c 0,10,11
 643 -38 643 -38 549.5 -13 c 128,-1,12
 456 12 456 12 375 58 c 1,13,-1
 305 -17 l 1,14,-1
 86 167 l 1,15,-1
 156 243 l 1,16,17
 83 337 83 337 42.5 450 c 128,-1,18
 2 563 2 563 2 691 c 0,19,20
 2 793 2 793 28.5 888 c 128,-1,21
 55 983 55 983 103 1065.5 c 128,-1,22
 151 1148 151 1148 218.5 1215.5 c 128,-1,23
 286 1283 286 1283 368.5 1331.5 c 128,-1,24
 451 1380 451 1380 546.5 1406.5 c 128,-1,25
 642 1433 642 1433 745 1433 c 0,26,27
 861 1433 861 1433 965 1403.5 c 128,-1,28
 1069 1374 1069 1374 1157 1318 c 1,29,-1
 1229 1396 l 1,30,-1
 1419 1199 l 1,31,-1
 1360 1136 l 1,0,1
336 650 m 0,32,33
 336 605 336 605 346.5 561.5 c 128,-1,34
 357 518 357 518 377 480 c 1,35,-1
 889 1029 l 1,36,37
 821 1050 821 1050 745 1050 c 0,38,39
 660 1050 660 1050 585.5 1020.5 c 128,-1,40
 511 991 511 991 455.5 938.5 c 128,-1,41
 400 886 400 886 368 812 c 128,-1,42
 336 738 336 738 336 650 c 0,32,33
745 249 m 0,43,44
 838 249 838 249 917 281.5 c 128,-1,45
 996 314 996 314 1053.5 369.5 c 128,-1,46
 1111 425 1111 425 1143.5 497.5 c 128,-1,47
 1176 570 1176 570 1176 650 c 0,48,49
 1176 712 1176 712 1159.5 766.5 c 128,-1,50
 1143 821 1143 821 1114 867 c 1,51,-1
 580 284 l 1,52,53
 658 249 658 249 745 249 c 0,43,44
EndSplineSet
Validated: 1
EndChar

StartChar: Thorn
Encoding: 222 222 139
Width: 1139
VWidth: 2008
Flags: W
LayerCount: 2
Fore
SplineSet
1040 724 m 0,0,1
 1044 690 1044 690 1038 640 c 128,-1,2
 1032 590 1032 590 1009 535 c 128,-1,3
 986 480 986 480 941.5 426 c 128,-1,4
 897 372 897 372 824 330 c 128,-1,5
 751 288 751 288 645.5 263 c 128,-1,6
 540 238 540 238 395 241 c 1,7,-1
 406 -51 l 1,8,-1
 39 -65 l 1,9,-1
 0 1413 l 1,10,-1
 326 1424 l 1,11,-1
 336 1124 l 1,12,13
 370 1129 370 1129 419 1132.5 c 128,-1,14
 468 1136 468 1136 523 1134.5 c 128,-1,15
 578 1133 578 1133 634.5 1125 c 128,-1,16
 691 1117 691 1117 741 1099 c 0,17,18
 801 1078 801 1078 853 1039 c 128,-1,19
 905 1000 905 1000 944.5 950 c 128,-1,20
 984 900 984 900 1009 842 c 128,-1,21
 1034 784 1034 784 1040 724 c 0,0,1
378 466 m 1,22,23
 389 466 389 466 418.5 465 c 128,-1,24
 448 464 448 464 485 466.5 c 128,-1,25
 522 469 522 469 561.5 478.5 c 128,-1,26
 601 488 601 488 632.5 509 c 128,-1,27
 664 530 664 530 681.5 565.5 c 128,-1,28
 699 601 699 601 693 656 c 0,29,30
 682 754 682 754 596 785 c 128,-1,31
 510 816 510 816 359 796 c 1,32,-1
 378 466 l 1,22,23
EndSplineSet
Validated: 33
EndChar

StartChar: germandbls
Encoding: 223 223 140
Width: 1270
VWidth: 2008
Flags: W
LayerCount: 2
Fore
SplineSet
585 1451 m 0,0,1
 705 1451 705 1451 791.5 1418.5 c 128,-1,2
 878 1386 878 1386 935 1335 c 128,-1,3
 992 1284 992 1284 1022 1222.5 c 128,-1,4
 1052 1161 1052 1161 1061 1103 c 0,5,6
 1065 1079 1065 1079 1062.5 1036.5 c 128,-1,7
 1060 994 1060 994 1037.5 945 c 128,-1,8
 1015 896 1015 896 966 846 c 128,-1,9
 917 796 917 796 827 757 c 1,10,11
 832 757 832 757 861 755 c 128,-1,12
 890 753 890 753 930.5 742 c 128,-1,13
 971 731 971 731 1018 708 c 128,-1,14
 1065 685 1065 685 1106.5 642 c 128,-1,15
 1148 599 1148 599 1178.5 533 c 128,-1,16
 1209 467 1209 467 1217 371 c 0,17,18
 1220 331 1220 331 1212.5 281 c 128,-1,19
 1205 231 1205 231 1187 180.5 c 128,-1,20
 1169 130 1169 130 1140 84.5 c 128,-1,21
 1111 39 1111 39 1071 9 c 0,22,23
 1038 -15 1038 -15 1003 -31 c 128,-1,24
 968 -47 968 -47 925.5 -57.5 c 128,-1,25
 883 -68 883 -68 831.5 -72.5 c 128,-1,26
 780 -77 780 -77 715 -77 c 2,27,-1
 585 -77 l 1,28,-1
 585 182 l 1,29,-1
 652 182 l 2,30,31
 685 182 685 182 726 186.5 c 128,-1,32
 767 191 767 191 803.5 208.5 c 128,-1,33
 840 226 840 226 865.5 259.5 c 128,-1,34
 891 293 891 293 893 352 c 0,35,36
 893 413 893 413 875.5 457 c 128,-1,37
 858 501 858 501 828.5 530.5 c 128,-1,38
 799 560 799 560 758.5 577.5 c 128,-1,39
 718 595 718 595 672 604.5 c 128,-1,40
 626 614 626 614 576.5 616.5 c 128,-1,41
 527 619 527 619 479 619 c 1,42,-1
 479 820 l 1,43,-1
 522 820 l 2,44,45
 555 820 555 820 601 828 c 128,-1,46
 647 836 647 836 689 863.5 c 128,-1,47
 731 891 731 891 758.5 943.5 c 128,-1,48
 786 996 786 996 782 1084 c 0,49,50
 776 1132 776 1132 754.5 1167 c 128,-1,51
 733 1202 733 1202 702.5 1223 c 128,-1,52
 672 1244 672 1244 636 1252.5 c 128,-1,53
 600 1261 600 1261 565 1257 c 0,54,55
 539 1254 539 1254 507 1243 c 128,-1,56
 475 1232 475 1232 447.5 1206.5 c 128,-1,57
 420 1181 420 1181 401.5 1137 c 128,-1,58
 383 1093 383 1093 383 1023 c 2,59,-1
 383 -36 l 1,60,-1
 4 -36 l 1,61,-1
 4 1023 l 2,62,63
 4 1059 4 1059 12.5 1104.5 c 128,-1,64
 21 1150 21 1150 44.5 1197.5 c 128,-1,65
 68 1245 68 1245 109 1290.5 c 128,-1,66
 150 1336 150 1336 214.5 1371.5 c 128,-1,67
 279 1407 279 1407 370 1429 c 128,-1,68
 461 1451 461 1451 585 1451 c 0,0,1
EndSplineSet
Validated: 33
EndChar

StartChar: ae
Encoding: 230 230 147
Width: 1848
VWidth: 2008
Flags: W
LayerCount: 2
Fore
SplineSet
1746 1390 m 1,0,-1
 1746 1047 l 1,1,-1
 1133 1047 l 1,2,-1
 1139 576 l 1,3,-1
 1498 576 l 1,4,-1
 1498 384 l 1,5,-1
 1148 384 l 1,6,-1
 1152 228 l 1,7,-1
 1645 249 l 1,8,-1
 1653 -24 l 1,9,-1
 783 -42 l 1,10,-1
 777 359 l 1,11,-1
 500 359 l 1,12,-1
 296 -44 l 1,13,-1
 -26 101 l 1,14,-1
 711 1392 l 1,15,-1
 1746 1390 l 1,0,-1
574 554 m 1,16,-1
 775 554 l 1,17,-1
 771 925 l 1,18,-1
 574 554 l 1,16,-1
EndSplineSet
Validated: 1
EndChar

StartChar: ccedilla
Encoding: 231 231 148
Width: 1354
VWidth: 2008
Flags: W
LayerCount: 2
Fore
SplineSet
670 -68 m 4,0,1
 662 -78 662 -78 662 -83 c 6,2,-1
 662 -95 l 6,3,4
 662 -101 662 -101 676 -106 c 4,5,6
 689 -112 689 -112 709 -116 c 4,7,8
 729 -121 729 -121 752 -126 c 260,9,10
 775 -131 775 -131 796 -141 c 4,11,12
 816 -152 816 -152 830 -169 c 4,13,14
 844 -187 844 -187 845 -201 c 6,15,-1
 845 -216 l 5,16,-1
 846 -237 l 6,17,18
 846 -258 846 -258 824 -293 c 4,19,20
 802 -329 802 -329 761 -353 c 4,21,22
 720 -378 720 -378 662 -390 c 4,23,24
 604 -403 604 -403 570 -400 c 6,25,-1
 535 -398 l 5,26,-1
 533 -273 l 5,27,28
 544 -275 544 -275 571.5 -276.5 c 132,-1,29
 599 -278 599 -278 628 -275 c 260,30,31
 657 -272 657 -272 680 -261 c 4,32,33
 702 -251 702 -251 703 -239 c 6,34,-1
 703 -220 l 6,35,36
 703 -212 703 -212 692 -201 c 4,37,38
 680 -191 680 -191 663 -184 c 4,39,40
 645 -177 645 -177 625 -171 c 4,41,42
 604 -165 604 -165 587 -156 c 4,43,44
 569 -148 569 -148 557 -136 c 4,45,46
 545 -125 545 -125 546 -106 c 4,47,48
 545 -91 545 -91 550 -80.5 c 132,-1,49
 555 -70 555 -70 563 -62 c 260,50,51
 571 -54 571 -54 582 -48 c 4,52,53
 589 -45 589 -45 596 -41 c 5,54,-1
 682 -57 l 5,55,56
 675 -61 675 -61 670 -68 c 4,0,1
600 -39 m 4,57,58
 602 -39 602 -39 603 -38 c 5,59,60
 483 -11 483 -11 375 48.5 c 128,-1,61
 267 108 267 108 185 193.5 c 128,-1,62
 103 279 103 279 55 386 c 128,-1,63
 7 493 7 493 7 615 c 1,64,65
 0 774 0 774 50 917 c 128,-1,66
 100 1060 100 1060 202.5 1168.5 c 128,-1,67
 305 1277 305 1277 459 1340.5 c 128,-1,68
 613 1404 613 1404 814 1404 c 0,69,70
 901 1404 901 1404 978 1391.5 c 128,-1,71
 1055 1379 1055 1379 1114.5 1362.5 c 128,-1,72
 1174 1346 1174 1346 1211.5 1330.5 c 128,-1,73
 1249 1315 1249 1315 1256 1308 c 1,74,-1
 1256 943 l 1,75,76
 1235 957 1235 957 1193.5 973.5 c 128,-1,77
 1152 990 1152 990 1098 1002.5 c 128,-1,78
 1044 1015 1044 1015 980.5 1020.5 c 128,-1,79
 917 1026 917 1026 853 1019 c 1,80,81
 815 1019 815 1019 763 1009 c 128,-1,82
 711 999 711 999 657 976.5 c 128,-1,83
 603 954 603 954 552.5 918.5 c 128,-1,84
 502 883 502 883 465.5 831.5 c 128,-1,85
 429 780 429 780 412.5 712 c 128,-1,86
 396 644 396 644 410 558 c 0,87,88
 424 486 424 486 472 431.5 c 128,-1,89
 520 377 520 377 588 340 c 128,-1,90
 656 303 656 303 737 284 c 128,-1,91
 818 265 818 265 898.5 263.5 c 128,-1,92
 979 262 979 262 1052 278.5 c 128,-1,93
 1125 295 1125 295 1178 329 c 1,94,-1
 1178 40 l 1,95,96
 1143 11 1143 11 1094.5 -8 c 128,-1,97
 1046 -27 1046 -27 992 -37.5 c 128,-1,98
 938 -48 938 -48 882.5 -52 c 128,-1,99
 827 -56 827 -56 802 -56 c 6,100,-1
 766 -56 l 6,101,102
 755 -56 755 -56 744 -55 c 6,103,-1
 731 -55 l 5,104,-1
 721 -54 l 6,105,106
 710 -54 710 -54 689 -52 c 4,107,108
 685 -54 685 -54 682 -57 c 6,109,-1
 596 -41 l 5,110,111
 598 -40 598 -40 600 -39 c 4,57,58
EndSplineSet
Validated: 37
EndChar

StartChar: eth
Encoding: 240 240 157
Width: 1630
VWidth: 2008
Flags: W
LayerCount: 2
Fore
SplineSet
1513 830 m 256,0,1
 1538 698 1538 698 1520.5 583.5 c 128,-1,2
 1503 469 1503 469 1452 375 c 128,-1,3
 1401 281 1401 281 1320 207.5 c 128,-1,4
 1239 134 1239 134 1137 82.5 c 128,-1,5
 1035 31 1035 31 916 2 c 128,-1,6
 797 -27 797 -27 670 -32 c 0,7,8
 522 -40 522 -40 425 -41 c 128,-1,9
 328 -42 328 -42 269 -40 c 0,10,11
 200 -38 200 -38 162 -32 c 1,12,-1
 154 533 l 5,13,-1
 -2 533 l 5,14,-1
 0 753 l 5,15,-1
 150 751 l 5,16,-1
 141 1369 l 1,17,18
 202 1376 202 1376 269.5 1381 c 128,-1,19
 337 1386 337 1386 401 1390 c 128,-1,20
 465 1394 465 1394 520 1396 c 128,-1,21
 575 1398 575 1398 612 1398 c 0,22,23
 675 1398 675 1398 760 1392.5 c 128,-1,24
 845 1387 845 1387 937 1368 c 128,-1,25
 1029 1349 1029 1349 1121 1312 c 128,-1,26
 1213 1275 1213 1275 1292 1212 c 128,-1,27
 1371 1149 1371 1149 1429.5 1055.5 c 128,-1,28
 1488 962 1488 962 1513 830 c 256,0,1
494 239 m 1,29,30
 647 229 647 229 768 250.5 c 128,-1,31
 889 272 889 272 972 324 c 128,-1,32
 1055 376 1055 376 1096 457.5 c 128,-1,33
 1137 539 1137 539 1130 648 c 0,34,35
 1126 718 1126 718 1102 771 c 128,-1,36
 1078 824 1078 824 1040.5 862.5 c 128,-1,37
 1003 901 1003 901 954.5 926 c 128,-1,38
 906 951 906 951 853.5 965.5 c 128,-1,39
 801 980 801 980 746 986 c 128,-1,40
 691 992 691 992 641 991.5 c 128,-1,41
 591 991 591 991 548 986 c 128,-1,42
 505 981 505 981 475 974 c 1,43,-1
 481 742 l 5,44,-1
 647 740 l 5,45,-1
 643 533 l 5,46,-1
 485 533 l 5,47,-1
 494 239 l 1,29,30
EndSplineSet
Validated: 33
EndChar

StartChar: divide
Encoding: 247 247 164
Width: 914
VWidth: 2008
Flags: W
LayerCount: 2
Fore
SplineSet
860 529 m 1,0,-1
 0 529 l 1,1,-1
 2 707 l 1,2,-1
 864 697 l 1,3,-1
 860 529 l 1,0,-1
279 929 m 0,4,5
 279 957 279 957 289.5 984 c 128,-1,6
 300 1011 300 1011 320 1032.5 c 128,-1,7
 340 1054 340 1054 368 1067.5 c 128,-1,8
 396 1081 396 1081 432 1082 c 0,9,10
 471 1083 471 1083 501 1069 c 128,-1,11
 531 1055 531 1055 550.5 1033 c 128,-1,12
 570 1011 570 1011 579.5 983.5 c 128,-1,13
 589 956 589 956 588 929 c 0,14,15
 587 899 587 899 573.5 874.5 c 128,-1,16
 560 850 560 850 538.5 832 c 128,-1,17
 517 814 517 814 489.5 804 c 128,-1,18
 462 794 462 794 432 794 c 0,19,20
 403 794 403 794 376 804 c 128,-1,21
 349 814 349 814 327 832 c 128,-1,22
 305 850 305 850 292 874.5 c 128,-1,23
 279 899 279 899 279 929 c 0,4,5
279 310 m 0,24,25
 279 339 279 339 290 363.5 c 128,-1,26
 301 388 301 388 319.5 406 c 128,-1,27
 338 424 338 424 362.5 434 c 128,-1,28
 387 444 387 444 414 444 c 0,29,30
 443 444 443 444 468.5 433.5 c 128,-1,31
 494 423 494 423 512.5 405 c 128,-1,32
 531 387 531 387 541.5 362.5 c 128,-1,33
 552 338 552 338 552 310 c 0,34,35
 552 280 552 280 541.5 255.5 c 128,-1,36
 531 231 531 231 512.5 213 c 128,-1,37
 494 195 494 195 468.5 185 c 128,-1,38
 443 175 443 175 414 175 c 0,39,40
 354 175 354 175 316.5 212.5 c 128,-1,41
 279 250 279 250 279 310 c 0,24,25
EndSplineSet
Validated: 33
EndChar

StartChar: oslash
Encoding: 248 248 165
Width: 1595
VWidth: 2008
Flags: W
LayerCount: 2
Fore
SplineSet
1360 1136 m 1,0,1
 1431 1043 1431 1043 1470 929.5 c 128,-1,2
 1509 816 1509 816 1509 691 c 0,3,4
 1509 590 1509 590 1482.5 496.5 c 128,-1,5
 1456 403 1456 403 1407.5 322 c 128,-1,6
 1359 241 1359 241 1290 174.5 c 128,-1,7
 1221 108 1221 108 1136.5 61 c 128,-1,8
 1052 14 1052 14 953 -12 c 128,-1,9
 854 -38 854 -38 745 -38 c 0,10,11
 643 -38 643 -38 549.5 -13 c 128,-1,12
 456 12 456 12 375 58 c 1,13,-1
 305 -17 l 1,14,-1
 86 167 l 1,15,-1
 156 243 l 1,16,17
 83 337 83 337 42.5 450 c 128,-1,18
 2 563 2 563 2 691 c 0,19,20
 2 793 2 793 28.5 888 c 128,-1,21
 55 983 55 983 103 1065.5 c 128,-1,22
 151 1148 151 1148 218.5 1215.5 c 128,-1,23
 286 1283 286 1283 368.5 1331.5 c 128,-1,24
 451 1380 451 1380 546.5 1406.5 c 128,-1,25
 642 1433 642 1433 745 1433 c 0,26,27
 861 1433 861 1433 965 1403.5 c 128,-1,28
 1069 1374 1069 1374 1157 1318 c 1,29,-1
 1229 1396 l 1,30,-1
 1419 1199 l 1,31,-1
 1360 1136 l 1,0,1
336 650 m 0,32,33
 336 605 336 605 346.5 561.5 c 128,-1,34
 357 518 357 518 377 480 c 1,35,-1
 889 1029 l 1,36,37
 821 1050 821 1050 745 1050 c 0,38,39
 660 1050 660 1050 585.5 1020.5 c 128,-1,40
 511 991 511 991 455.5 938.5 c 128,-1,41
 400 886 400 886 368 812 c 128,-1,42
 336 738 336 738 336 650 c 0,32,33
745 249 m 0,43,44
 838 249 838 249 917 281.5 c 128,-1,45
 996 314 996 314 1053.5 369.5 c 128,-1,46
 1111 425 1111 425 1143.5 497.5 c 128,-1,47
 1176 570 1176 570 1176 650 c 0,48,49
 1176 712 1176 712 1159.5 766.5 c 128,-1,50
 1143 821 1143 821 1114 867 c 1,51,-1
 580 284 l 1,52,53
 658 249 658 249 745 249 c 0,43,44
EndSplineSet
Validated: 1
EndChar

StartChar: thorn
Encoding: 254 254 171
Width: 1139
VWidth: 2008
Flags: W
LayerCount: 2
Fore
SplineSet
1040 724 m 0,0,1
 1044 690 1044 690 1038 640 c 128,-1,2
 1032 590 1032 590 1009 535 c 128,-1,3
 986 480 986 480 941.5 426 c 128,-1,4
 897 372 897 372 824 330 c 128,-1,5
 751 288 751 288 645.5 263 c 128,-1,6
 540 238 540 238 395 241 c 1,7,-1
 406 -51 l 1,8,-1
 39 -65 l 1,9,-1
 0 1413 l 1,10,-1
 326 1424 l 1,11,-1
 336 1124 l 1,12,13
 370 1129 370 1129 419 1132.5 c 128,-1,14
 468 1136 468 1136 523 1134.5 c 128,-1,15
 578 1133 578 1133 634.5 1125 c 128,-1,16
 691 1117 691 1117 741 1099 c 0,17,18
 801 1078 801 1078 853 1039 c 128,-1,19
 905 1000 905 1000 944.5 950 c 128,-1,20
 984 900 984 900 1009 842 c 128,-1,21
 1034 784 1034 784 1040 724 c 0,0,1
378 466 m 1,22,23
 389 466 389 466 418.5 465 c 128,-1,24
 448 464 448 464 485 466.5 c 128,-1,25
 522 469 522 469 561.5 478.5 c 128,-1,26
 601 488 601 488 632.5 509 c 128,-1,27
 664 530 664 530 681.5 565.5 c 128,-1,28
 699 601 699 601 693 656 c 0,29,30
 682 754 682 754 596 785 c 128,-1,31
 510 816 510 816 359 796 c 1,32,-1
 378 466 l 1,22,23
EndSplineSet
Validated: 33
EndChar

StartChar: Amacron
Encoding: 256 256 173
Width: 1454
VWidth: 2008
Flags: W
LayerCount: 2
Fore
SplineSet
957 1459 m 1,0,-1
 350 1459 l 1,1,-1
 351 1568 l 1,2,-1
 959 1561 l 1,3,-1
 957 1459 l 1,0,-1
930 368 m 1,4,-1
 485 368 l 1,5,-1
 348 -40 l 1,6,-1
 0 56 l 1,7,-1
 524 1394 l 1,8,-1
 813 1375 l 1,9,-1
 1356 77 l 1,10,-1
 1085 -22 l 1,11,-1
 930 368 l 1,4,-1
852 542 m 1,12,-1
 678 949 l 1,13,-1
 543 542 l 1,14,-1
 852 542 l 1,12,-1
EndSplineSet
Validated: 1
EndChar

StartChar: amacron
Encoding: 257 257 174
Width: 1454
VWidth: 2008
Flags: W
LayerCount: 2
Fore
SplineSet
957 1459 m 1,0,-1
 350 1459 l 1,1,-1
 351 1568 l 1,2,-1
 959 1561 l 1,3,-1
 957 1459 l 1,0,-1
930 368 m 1,4,-1
 485 368 l 1,5,-1
 348 -40 l 1,6,-1
 0 56 l 1,7,-1
 524 1394 l 1,8,-1
 813 1375 l 1,9,-1
 1356 77 l 1,10,-1
 1085 -22 l 1,11,-1
 930 368 l 1,4,-1
852 542 m 1,12,-1
 678 949 l 1,13,-1
 543 542 l 1,14,-1
 852 542 l 1,12,-1
EndSplineSet
Validated: 1
EndChar

StartChar: Abreve
Encoding: 258 258 175
Width: 1454
VWidth: 2008
Flags: W
LayerCount: 2
Fore
SplineSet
929 1663 m 5,0,1
 909 1593 909 1593 870.5 1544 c 132,-1,2
 832 1495 832 1495 785 1469 c 132,-1,3
 738 1443 738 1443 687 1440 c 132,-1,4
 636 1437 636 1437 588.5 1458 c 132,-1,5
 541 1479 541 1479 502 1524 c 132,-1,6
 463 1569 463 1569 442 1640 c 5,7,-1
 540 1677 l 5,8,9
 591 1552 591 1552 678.5 1554 c 132,-1,10
 766 1556 766 1556 827 1704 c 5,11,-1
 929 1663 l 5,0,1
930 368 m 1,12,-1
 485 368 l 1,13,-1
 348 -40 l 1,14,-1
 0 56 l 1,15,-1
 524 1394 l 1,16,-1
 813 1375 l 1,17,-1
 1356 77 l 1,18,-1
 1085 -22 l 1,19,-1
 930 368 l 1,12,-1
852 542 m 1,20,-1
 678 949 l 1,21,-1
 543 542 l 1,22,-1
 852 542 l 1,20,-1
EndSplineSet
Validated: 33
EndChar

StartChar: abreve
Encoding: 259 259 176
Width: 1454
VWidth: 2008
Flags: W
LayerCount: 2
Fore
SplineSet
929 1663 m 1,0,1
 909 1593 909 1593 870.5 1544 c 128,-1,2
 832 1495 832 1495 785 1469 c 128,-1,3
 738 1443 738 1443 687 1440 c 128,-1,4
 636 1437 636 1437 588.5 1458 c 128,-1,5
 541 1479 541 1479 502 1524 c 128,-1,6
 463 1569 463 1569 442 1640 c 1,7,-1
 540 1677 l 1,8,9
 591 1552 591 1552 678.5 1554 c 128,-1,10
 766 1556 766 1556 827 1704 c 1,11,-1
 929 1663 l 1,0,1
930 368 m 1,12,-1
 485 368 l 1,13,-1
 348 -40 l 1,14,-1
 0 56 l 1,15,-1
 524 1394 l 1,16,-1
 813 1375 l 1,17,-1
 1356 77 l 1,18,-1
 1085 -22 l 1,19,-1
 930 368 l 1,12,-1
852 542 m 1,20,-1
 678 949 l 1,21,-1
 543 542 l 1,22,-1
 852 542 l 1,20,-1
EndSplineSet
Validated: 33
EndChar

StartChar: Aogonek
Encoding: 260 260 177
Width: 1454
VWidth: 2008
Flags: W
LayerCount: 2
Fore
SplineSet
1177 13 m 5,0,1
 1142 -26 1142 -26 1140.5 -77.5 c 132,-1,2
 1139 -129 1139 -129 1156 -163 c 4,3,4
 1173 -200 1173 -200 1203.5 -219 c 132,-1,5
 1234 -238 1234 -238 1263 -243 c 4,6,7
 1306 -251 1306 -251 1330 -243 c 5,8,-1
 1330 -355 l 6,9,10
 1330 -357 1330 -357 1305 -358.5 c 132,-1,11
 1280 -360 1280 -360 1234 -348.5 c 132,-1,12
 1188 -337 1188 -337 1135 -296 c 5,13,14
 1092 -256 1092 -256 1080.5 -204 c 132,-1,15
 1069 -152 1069 -152 1074.5 -96 c 132,-1,16
 1080 -40 1080 -40 1089 -10 c 5,17,-1
 1177 13 l 5,0,1
930 368 m 1,18,-1
 485 368 l 1,19,-1
 348 -40 l 1,20,-1
 0 56 l 1,21,-1
 524 1394 l 1,22,-1
 813 1375 l 1,23,-1
 1356 77 l 1,24,-1
 1085 -22 l 5,25,-1
 930 368 l 1,18,-1
852 542 m 1,26,-1
 678 949 l 1,27,-1
 543 542 l 1,28,-1
 852 542 l 1,26,-1
EndSplineSet
Validated: 37
EndChar

StartChar: aogonek
Encoding: 261 261 178
Width: 1454
VWidth: 2008
Flags: W
LayerCount: 2
Fore
SplineSet
1177 13 m 1,0,1
 1142 -26 1142 -26 1140.5 -77.5 c 128,-1,2
 1139 -129 1139 -129 1156 -163 c 0,3,4
 1173 -200 1173 -200 1203.5 -219 c 128,-1,5
 1234 -238 1234 -238 1263 -243 c 0,6,7
 1306 -251 1306 -251 1330 -243 c 1,8,-1
 1330 -355 l 2,9,10
 1330 -357 1330 -357 1305 -358.5 c 128,-1,11
 1280 -360 1280 -360 1234 -348.5 c 128,-1,12
 1188 -337 1188 -337 1135 -296 c 1,13,14
 1092 -256 1092 -256 1080.5 -204 c 128,-1,15
 1069 -152 1069 -152 1074.5 -96 c 128,-1,16
 1080 -40 1080 -40 1089 -10 c 1,17,-1
 1177 13 l 1,0,1
930 368 m 1,18,-1
 485 368 l 1,19,-1
 348 -40 l 1,20,-1
 0 56 l 1,21,-1
 524 1394 l 1,22,-1
 813 1375 l 1,23,-1
 1356 77 l 1,24,-1
 1085 -22 l 1,25,-1
 930 368 l 1,18,-1
852 542 m 1,26,-1
 678 949 l 1,27,-1
 543 542 l 1,28,-1
 852 542 l 1,26,-1
EndSplineSet
Validated: 37
EndChar

StartChar: Cacute
Encoding: 262 262 179
Width: 1351
VWidth: 2008
Flags: W
LayerCount: 2
Fore
SplineSet
1185 46 m 1,0,1
 1149 17 1149 17 1100.5 -2 c 128,-1,2
 1052 -21 1052 -21 998 -31.5 c 128,-1,3
 944 -42 944 -42 888.5 -46 c 128,-1,4
 833 -50 833 -50 783 -50 c 0,5,6
 687 -50 687 -50 592.5 -27 c 128,-1,7
 498 -4 498 -4 412.5 39 c 128,-1,8
 327 82 327 82 254 142.5 c 128,-1,9
 181 203 181 203 127.5 277.5 c 128,-1,10
 74 352 74 352 43.5 439 c 128,-1,11
 13 526 13 526 13 622 c 1,12,13
 8 728 8 728 29 827.5 c 128,-1,14
 50 927 50 927 95 1014.5 c 128,-1,15
 140 1102 140 1102 208.5 1174.5 c 128,-1,16
 277 1247 277 1247 368.5 1299.5 c 128,-1,17
 460 1352 460 1352 573 1381 c 128,-1,18
 686 1410 686 1410 820 1410 c 0,19,20
 907 1410 907 1410 984.5 1397.5 c 128,-1,21
 1062 1385 1062 1385 1121.5 1368.5 c 128,-1,22
 1181 1352 1181 1352 1218 1336.5 c 128,-1,23
 1255 1321 1255 1321 1262 1314 c 1,24,-1
 1262 949 l 1,25,26
 1241 963 1241 963 1199.5 979.5 c 128,-1,27
 1158 996 1158 996 1104 1008.5 c 128,-1,28
 1050 1021 1050 1021 986.5 1026.5 c 128,-1,29
 923 1032 923 1032 859 1025 c 1,30,31
 820 1025 820 1025 768.5 1015 c 128,-1,32
 717 1005 717 1005 663 982.5 c 128,-1,33
 609 960 609 960 558.5 924.5 c 128,-1,34
 508 889 508 889 471.5 837.5 c 128,-1,35
 435 786 435 786 419 718 c 128,-1,36
 403 650 403 650 417 564 c 0,37,38
 431 492 431 492 479 437.5 c 128,-1,39
 527 383 527 383 594.5 346 c 128,-1,40
 662 309 662 309 743 290.5 c 128,-1,41
 824 272 824 272 904.5 270.5 c 128,-1,42
 985 269 985 269 1058.5 285 c 128,-1,43
 1132 301 1132 301 1185 335 c 1,44,-1
 1185 46 l 1,0,1
719 1496 m 1,45,-1
 653 1582 l 1,46,-1
 899 1789 l 1,47,-1
 993 1658 l 1,48,-1
 719 1496 l 1,45,-1
EndSplineSet
Validated: 33
EndChar

StartChar: cacute
Encoding: 263 263 180
Width: 1351
VWidth: 2008
Flags: W
LayerCount: 2
Fore
SplineSet
1185 46 m 1,0,1
 1149 17 1149 17 1100.5 -2 c 128,-1,2
 1052 -21 1052 -21 998 -31.5 c 128,-1,3
 944 -42 944 -42 888.5 -46 c 128,-1,4
 833 -50 833 -50 783 -50 c 0,5,6
 687 -50 687 -50 592.5 -27 c 128,-1,7
 498 -4 498 -4 412.5 39 c 128,-1,8
 327 82 327 82 254 142.5 c 128,-1,9
 181 203 181 203 127.5 277.5 c 128,-1,10
 74 352 74 352 43.5 439 c 128,-1,11
 13 526 13 526 13 622 c 1,12,13
 8 728 8 728 29 827.5 c 128,-1,14
 50 927 50 927 95 1014.5 c 128,-1,15
 140 1102 140 1102 208.5 1174.5 c 128,-1,16
 277 1247 277 1247 368.5 1299.5 c 128,-1,17
 460 1352 460 1352 573 1381 c 128,-1,18
 686 1410 686 1410 820 1410 c 0,19,20
 907 1410 907 1410 984.5 1397.5 c 128,-1,21
 1062 1385 1062 1385 1121.5 1368.5 c 128,-1,22
 1181 1352 1181 1352 1218 1336.5 c 128,-1,23
 1255 1321 1255 1321 1262 1314 c 1,24,-1
 1262 949 l 1,25,26
 1241 963 1241 963 1199.5 979.5 c 128,-1,27
 1158 996 1158 996 1104 1008.5 c 128,-1,28
 1050 1021 1050 1021 986.5 1026.5 c 128,-1,29
 923 1032 923 1032 859 1025 c 1,30,31
 820 1025 820 1025 768.5 1015 c 128,-1,32
 717 1005 717 1005 663 982.5 c 128,-1,33
 609 960 609 960 558.5 924.5 c 128,-1,34
 508 889 508 889 471.5 837.5 c 128,-1,35
 435 786 435 786 419 718 c 128,-1,36
 403 650 403 650 417 564 c 0,37,38
 431 492 431 492 479 437.5 c 128,-1,39
 527 383 527 383 594.5 346 c 128,-1,40
 662 309 662 309 743 290.5 c 128,-1,41
 824 272 824 272 904.5 270.5 c 128,-1,42
 985 269 985 269 1058.5 285 c 128,-1,43
 1132 301 1132 301 1185 335 c 1,44,-1
 1185 46 l 1,0,1
719 1496 m 1,45,-1
 653 1582 l 1,46,-1
 899 1789 l 1,47,-1
 993 1658 l 1,48,-1
 719 1496 l 1,45,-1
EndSplineSet
Validated: 33
EndChar

StartChar: Eogonek
Encoding: 280 280 181
Width: 1270
VWidth: 2008
Flags: W
LayerCount: 2
Fore
SplineSet
996 -18 m 1,0,1
 962 -57 962 -57 960.5 -108.5 c 128,-1,2
 959 -160 959 -160 975 -195 c 0,3,4
 992 -231 992 -231 1022.5 -250 c 128,-1,5
 1053 -269 1053 -269 1082 -274 c 0,6,7
 1126 -282 1126 -282 1149 -274 c 1,8,-1
 1149 -386 l 2,9,10
 1149 -389 1149 -389 1124.5 -390 c 128,-1,11
 1100 -391 1100 -391 1053.5 -379.5 c 128,-1,12
 1007 -368 1007 -368 955 -328 c 1,13,14
 911 -287 911 -287 900 -235 c 0,15,16
 888 -185 888 -185 894 -128 c 0,17,18
 904 -35 904 -35 903 -19 c 1,19,-1
 996 -18 l 1,0,1
1161 1050 m 1,20,-1
 369 1050 l 1,21,-1
 375 578 l 1,22,-1
 813 578 l 1,23,-1
 813 386 l 1,24,-1
 383 386 l 1,25,-1
 387 230 l 1,26,-1
 1036 251 l 1,27,-1
 1044 -22 l 1,28,-1
 18 -40 l 1,29,-1
 0 1392 l 1,30,-1
 1161 1392 l 1,31,-1
 1161 1050 l 1,32,-1
 1161 1050 l 1,20,-1
EndSplineSet
Validated: 37
EndChar

StartChar: eogonek
Encoding: 281 281 182
Width: 1270
VWidth: 2008
Flags: W
LayerCount: 2
Fore
SplineSet
996 -18 m 5,0,1
 962 -57 962 -57 960.5 -108.5 c 132,-1,2
 959 -160 959 -160 975 -195 c 4,3,4
 992 -231 992 -231 1022.5 -250 c 132,-1,5
 1053 -269 1053 -269 1082 -274 c 4,6,7
 1126 -282 1126 -282 1149 -274 c 5,8,-1
 1149 -386 l 6,9,10
 1149 -389 1149 -389 1124.5 -390 c 132,-1,11
 1100 -391 1100 -391 1053.5 -379.5 c 132,-1,12
 1007 -368 1007 -368 955 -328 c 5,13,14
 911 -287 911 -287 900 -235 c 4,15,16
 888 -185 888 -185 894 -128 c 4,17,18
 904 -35 904 -35 903 -19 c 5,19,-1
 996 -18 l 5,0,1
1161 1050 m 1,20,-1
 369 1050 l 1,21,-1
 375 578 l 1,22,-1
 813 578 l 1,23,-1
 813 386 l 1,24,-1
 383 386 l 1,25,-1
 387 230 l 1,26,-1
 1036 251 l 1,27,-1
 1044 -22 l 5,28,-1
 18 -40 l 1,29,-1
 0 1392 l 1,30,-1
 1161 1392 l 1,31,-1
 1161 1050 l 1,32,-1
 1161 1050 l 1,20,-1
EndSplineSet
Validated: 37
EndChar

StartChar: G.001
Encoding: 286 286 183
Width: 1371
VWidth: 2008
Flags: W
LayerCount: 2
Fore
SplineSet
917 1688 m 1,0,1
 897 1618 897 1618 858.5 1569 c 128,-1,2
 820 1520 820 1520 773 1494 c 128,-1,3
 726 1468 726 1468 675 1465 c 128,-1,4
 624 1462 624 1462 576.5 1483 c 128,-1,5
 529 1504 529 1504 490 1549 c 128,-1,6
 451 1594 451 1594 430 1665 c 1,7,-1
 528 1702 l 1,8,9
 579 1577 579 1577 666.5 1579 c 128,-1,10
 754 1581 754 1581 815 1729 c 1,11,-1
 917 1688 l 1,0,1
857 1021 m 1,12,13
 818 1021 818 1021 766 1010.5 c 128,-1,14
 714 1000 714 1000 659.5 977.5 c 128,-1,15
 605 955 605 955 554.5 919 c 128,-1,16
 504 883 504 883 467.5 831.5 c 128,-1,17
 431 780 431 780 414.5 712 c 128,-1,18
 398 644 398 644 413 558 c 0,19,20
 428 479 428 479 475.5 421.5 c 128,-1,21
 523 364 523 364 589.5 328.5 c 128,-1,22
 656 293 656 293 735.5 278.5 c 128,-1,23
 815 264 815 264 894 271 c 1,24,-1
 894 443 l 1,25,-1
 722 443 l 1,26,-1
 722 675 l 1,27,-1
 1185 675 l 1,28,-1
 1185 329 l 1,29,-1
 1185 40 l 1,30,-1
 1185 -38 l 1,31,-1
 914 -38 l 1,32,-1
 779 -38 l 2,33,34
 683 -38 683 -38 588.5 -16 c 128,-1,35
 494 6 494 6 408.5 46.5 c 128,-1,36
 323 87 323 87 250 145 c 128,-1,37
 177 203 177 203 123.5 276 c 128,-1,38
 70 349 70 349 39.5 435 c 128,-1,39
 9 521 9 521 9 617 c 1,40,41
 4 723 4 723 25 822 c 128,-1,42
 46 921 46 921 91 1009 c 128,-1,43
 136 1097 136 1097 204.5 1170 c 128,-1,44
 273 1243 273 1243 364.5 1295.5 c 128,-1,45
 456 1348 456 1348 569.5 1377 c 128,-1,46
 683 1406 683 1406 818 1406 c 0,47,48
 905 1406 905 1406 982 1393.5 c 128,-1,49
 1059 1381 1059 1381 1118 1364.5 c 128,-1,50
 1177 1348 1177 1348 1214.5 1332.5 c 128,-1,51
 1252 1317 1252 1317 1260 1310 c 1,52,-1
 1260 945 l 1,53,54
 1239 959 1239 959 1197.5 975 c 128,-1,55
 1156 991 1156 991 1102 1003.5 c 128,-1,56
 1048 1016 1048 1016 984.5 1022 c 128,-1,57
 921 1028 921 1028 857 1021 c 1,12,13
EndSplineSet
Validated: 33
EndChar

StartChar: g.001
Encoding: 287 287 184
Width: 1371
VWidth: 2008
Flags: W
LayerCount: 2
Fore
SplineSet
917 1688 m 5,0,1
 897 1618 897 1618 858.5 1569 c 132,-1,2
 820 1520 820 1520 773 1494 c 132,-1,3
 726 1468 726 1468 675 1465 c 132,-1,4
 624 1462 624 1462 576.5 1483 c 132,-1,5
 529 1504 529 1504 490 1549 c 132,-1,6
 451 1594 451 1594 430 1665 c 5,7,-1
 528 1702 l 5,8,9
 579 1577 579 1577 666.5 1579 c 132,-1,10
 754 1581 754 1581 815 1729 c 5,11,-1
 917 1688 l 5,0,1
857 1021 m 1,12,13
 818 1021 818 1021 766 1010.5 c 128,-1,14
 714 1000 714 1000 659.5 977.5 c 128,-1,15
 605 955 605 955 554.5 919 c 128,-1,16
 504 883 504 883 467.5 831.5 c 128,-1,17
 431 780 431 780 414.5 712 c 128,-1,18
 398 644 398 644 413 558 c 0,19,20
 428 479 428 479 475.5 421.5 c 128,-1,21
 523 364 523 364 589.5 328.5 c 128,-1,22
 656 293 656 293 735.5 278.5 c 128,-1,23
 815 264 815 264 894 271 c 1,24,-1
 894 443 l 1,25,-1
 722 443 l 1,26,-1
 722 675 l 1,27,-1
 1185 675 l 1,28,-1
 1185 329 l 1,29,-1
 1185 40 l 1,30,-1
 1185 -38 l 1,31,-1
 914 -38 l 1,32,-1
 779 -38 l 2,33,34
 683 -38 683 -38 588.5 -16 c 128,-1,35
 494 6 494 6 408.5 46.5 c 128,-1,36
 323 87 323 87 250 145 c 128,-1,37
 177 203 177 203 123.5 276 c 128,-1,38
 70 349 70 349 39.5 435 c 128,-1,39
 9 521 9 521 9 617 c 1,40,41
 4 723 4 723 25 822 c 128,-1,42
 46 921 46 921 91 1009 c 128,-1,43
 136 1097 136 1097 204.5 1170 c 128,-1,44
 273 1243 273 1243 364.5 1295.5 c 128,-1,45
 456 1348 456 1348 569.5 1377 c 128,-1,46
 683 1406 683 1406 818 1406 c 0,47,48
 905 1406 905 1406 982 1393.5 c 128,-1,49
 1059 1381 1059 1381 1118 1364.5 c 128,-1,50
 1177 1348 1177 1348 1214.5 1332.5 c 128,-1,51
 1252 1317 1252 1317 1260 1310 c 1,52,-1
 1260 945 l 1,53,54
 1239 959 1239 959 1197.5 975 c 128,-1,55
 1156 991 1156 991 1102 1003.5 c 128,-1,56
 1048 1016 1048 1016 984.5 1022 c 128,-1,57
 921 1028 921 1028 857 1021 c 1,12,13
EndSplineSet
Validated: 33
EndChar

StartChar: I.001
Encoding: 304 304 185
Width: 609
VWidth: 2008
Flags: W
LayerCount: 2
Fore
SplineSet
459 -48 m 1,0,-1
 66 -28 l 1,1,-1
 125 1406 l 1,2,-1
 518 1385 l 1,3,-1
 459 -48 l 1,4,-1
 459 -48 l 1,0,-1
199 1592 m 4,5,6
 199 1623 199 1623 211 1650 c 132,-1,7
 223 1677 223 1677 243 1696.5 c 132,-1,8
 263 1716 263 1716 289.5 1727 c 132,-1,9
 316 1738 316 1738 346 1738 c 4,10,11
 377 1738 377 1738 404.5 1726.5 c 132,-1,12
 432 1715 432 1715 452.5 1695 c 132,-1,13
 473 1675 473 1675 484.5 1648.5 c 132,-1,14
 496 1622 496 1622 496 1592 c 4,15,16
 496 1560 496 1560 484.5 1533 c 132,-1,17
 473 1506 473 1506 452.5 1486.5 c 132,-1,18
 432 1467 432 1467 404.5 1456 c 132,-1,19
 377 1445 377 1445 346 1445 c 4,20,21
 314 1445 314 1445 287 1456 c 132,-1,22
 260 1467 260 1467 240.5 1486.5 c 132,-1,23
 221 1506 221 1506 210 1533 c 132,-1,24
 199 1560 199 1560 199 1592 c 4,5,6
EndSplineSet
Validated: 5
EndChar

StartChar: i.001
Encoding: 305 305 186
Width: 677
VWidth: 2008
Flags: W
LayerCount: 2
Fore
SplineSet
459 -48 m 1,0,-1
 66 -28 l 1,1,-1
 125 1406 l 1,2,-1
 518 1385 l 1,3,-1
 459 -48 l 1,4,-1
 459 -48 l 1,0,-1
EndSplineSet
Validated: 5
EndChar

StartChar: Lslash
Encoding: 321 321 187
Width: 983
VWidth: 2008
Flags: W
LayerCount: 2
Fore
SplineSet
752 835 m 5,0,-1
 -137 553 l 5,1,-1
 -185 720 l 5,2,-1
 709 992 l 5,3,-1
 752 835 l 5,0,-1
60 -40 m 5,4,-1
 1 1385 l 5,5,-1
 392 1404 l 5,6,-1
 431 226 l 5,7,-1
 869 257 l 5,8,-1
 880 -1 l 5,9,-1
 60 -40 l 5,4,-1
EndSplineSet
Validated: 5
EndChar

StartChar: lslash
Encoding: 322 322 188
Width: 983
VWidth: 2008
Flags: W
LayerCount: 2
Fore
SplineSet
752 835 m 1,0,-1
 -137 553 l 1,1,-1
 -185 720 l 1,2,-1
 709 992 l 1,3,-1
 752 835 l 1,0,-1
60 -40 m 1,4,-1
 1 1385 l 1,5,-1
 392 1404 l 1,6,-1
 431 226 l 1,7,-1
 869 257 l 1,8,-1
 880 -1 l 1,9,-1
 60 -40 l 1,4,-1
EndSplineSet
Validated: 5
EndChar

StartChar: Nacute
Encoding: 323 323 189
Width: 1345
VWidth: 2008
Flags: W
LayerCount: 2
Fore
SplineSet
365 828 m 1,0,-1
 385 -40 l 1,1,-1
 0 -40 l 1,2,-1
 0 1394 l 1,3,-1
 291 1394 l 1,4,-1
 930 482 l 1,5,-1
 887 1379 l 1,6,-1
 1217 1392 l 1,7,-1
 1239 -1 l 1,8,-1
 969 -22 l 1,9,-1
 365 828 l 1,0,-1
554 1392 m 1,10,-1
 488 1478 l 1,11,-1
 734 1685 l 1,12,-1
 828 1554 l 1,13,-1
 554 1392 l 1,10,-1
EndSplineSet
Validated: 1
EndChar

StartChar: nacute
Encoding: 324 324 190
Width: 1345
VWidth: 2008
Flags: W
LayerCount: 2
Fore
SplineSet
365 828 m 1,0,-1
 385 -40 l 1,1,-1
 0 -40 l 1,2,-1
 0 1394 l 1,3,-1
 291 1394 l 1,4,-1
 930 482 l 1,5,-1
 887 1379 l 1,6,-1
 1217 1392 l 1,7,-1
 1239 -1 l 1,8,-1
 969 -22 l 1,9,-1
 365 828 l 1,0,-1
554 1392 m 1,10,-1
 488 1478 l 1,11,-1
 734 1685 l 1,12,-1
 828 1554 l 1,13,-1
 554 1392 l 1,10,-1
EndSplineSet
Validated: 1
EndChar

StartChar: OE
Encoding: 338 338 191
Width: 1817
VWidth: 2008
Flags: W
LayerCount: 2
Fore
SplineSet
1706 1050 m 1,0,-1
 1065 1050 l 1,1,-1
 1063 578 l 1,2,-1
 1497 578 l 1,3,-1
 1497 386 l 1,4,-1
 1069 386 l 1,5,-1
 1069 230 l 1,6,-1
 1618 251 l 1,7,-1
 1630 -22 l 1,8,-1
 743 -40 l 1,9,-1
 743 -38 l 1,10,-1
 729 -38 l 2,11,12
 627 -38 627 -38 533.5 -13 c 128,-1,13
 440 12 440 12 359 58 c 128,-1,14
 278 104 278 104 212 169 c 128,-1,15
 146 234 146 234 98.5 313 c 128,-1,16
 51 392 51 392 25.5 483 c 128,-1,17
 0 574 0 574 0 673 c 0,18,19
 0 771 0 771 25.5 862.5 c 128,-1,20
 51 954 51 954 97.5 1033.5 c 128,-1,21
 144 1113 144 1113 210 1179 c 128,-1,22
 276 1245 276 1245 356.5 1292 c 128,-1,23
 437 1339 437 1339 530 1365 c 128,-1,24
 623 1391 623 1391 725 1392 c 2,25,-1
 1706 1392 l 1,26,-1
 1706 1050 l 1,0,-1
326 632 m 0,27,28
 326 555 326 555 349.5 477.5 c 128,-1,29
 373 400 373 400 423 338 c 128,-1,30
 473 276 473 276 551 237 c 128,-1,31
 629 198 629 198 739 198 c 1,32,-1
 729 1045 l 1,33,34
 645 1045 645 1045 572 1012.5 c 128,-1,35
 499 980 499 980 444 923.5 c 128,-1,36
 389 867 389 867 357.5 792 c 128,-1,37
 326 717 326 717 326 632 c 0,27,28
EndSplineSet
Validated: 1
EndChar

StartChar: oe
Encoding: 339 339 192
Width: 1817
VWidth: 2008
Flags: W
LayerCount: 2
Fore
SplineSet
1706 1050 m 1,0,-1
 1065 1050 l 1,1,-1
 1063 578 l 1,2,-1
 1497 578 l 1,3,-1
 1497 386 l 1,4,-1
 1069 386 l 1,5,-1
 1069 230 l 1,6,-1
 1618 251 l 1,7,-1
 1630 -22 l 1,8,-1
 743 -40 l 1,9,-1
 743 -38 l 1,10,-1
 729 -38 l 2,11,12
 627 -38 627 -38 533.5 -13 c 128,-1,13
 440 12 440 12 359 58 c 128,-1,14
 278 104 278 104 212 169 c 128,-1,15
 146 234 146 234 98.5 313 c 128,-1,16
 51 392 51 392 25.5 483 c 128,-1,17
 0 574 0 574 0 673 c 0,18,19
 0 771 0 771 25.5 862.5 c 128,-1,20
 51 954 51 954 97.5 1033.5 c 128,-1,21
 144 1113 144 1113 210 1179 c 128,-1,22
 276 1245 276 1245 356.5 1292 c 128,-1,23
 437 1339 437 1339 530 1365 c 128,-1,24
 623 1391 623 1391 725 1392 c 2,25,-1
 1706 1392 l 1,26,-1
 1706 1050 l 1,0,-1
326 632 m 0,27,28
 326 555 326 555 349.5 477.5 c 128,-1,29
 373 400 373 400 423 338 c 128,-1,30
 473 276 473 276 551 237 c 128,-1,31
 629 198 629 198 739 198 c 1,32,-1
 729 1045 l 1,33,34
 645 1045 645 1045 572 1012.5 c 128,-1,35
 499 980 499 980 444 923.5 c 128,-1,36
 389 867 389 867 357.5 792 c 128,-1,37
 326 717 326 717 326 632 c 0,27,28
EndSplineSet
Validated: 1
EndChar

StartChar: Sacute
Encoding: 346 346 193
Width: 1225
VWidth: 2008
Flags: W
LayerCount: 2
Fore
SplineSet
213 366 m 1,0,1
 332 262 332 262 420 232 c 128,-1,2
 508 202 508 202 567 249 c 0,3,4
 591 273 591 273 580 303 c 128,-1,5
 569 333 569 333 536 366 c 128,-1,6
 503 399 503 399 454.5 433.5 c 128,-1,7
 406 468 406 468 356.5 501.5 c 128,-1,8
 307 535 307 535 263 566 c 128,-1,9
 219 597 219 597 194 622 c 0,10,11
 189 626 189 626 170 642 c 128,-1,12
 151 658 151 658 126.5 685 c 128,-1,13
 102 712 102 712 76 749 c 128,-1,14
 50 786 50 786 32 832.5 c 128,-1,15
 14 879 14 879 8 934.5 c 128,-1,16
 2 990 2 990 16 1054 c 1,17,18
 39 1135 39 1135 92.5 1200 c 128,-1,19
 146 1265 146 1265 221.5 1310.5 c 128,-1,20
 297 1356 297 1356 390.5 1381 c 128,-1,21
 484 1406 484 1406 586 1406 c 0,22,23
 673 1406 673 1406 748 1398 c 128,-1,24
 823 1390 823 1390 889.5 1371.5 c 128,-1,25
 956 1353 956 1353 1017 1323 c 128,-1,26
 1078 1293 1078 1293 1136 1248 c 1,27,-1
 940 914 l 1,28,29
 896 959 896 959 839.5 994 c 128,-1,30
 783 1029 783 1029 723.5 1050.5 c 128,-1,31
 664 1072 664 1072 606.5 1077 c 128,-1,32
 549 1082 549 1082 502.5 1067.5 c 128,-1,33
 456 1053 456 1053 425.5 1015.5 c 128,-1,34
 395 978 395 978 391 914 c 0,35,36
 391 859 391 859 414 816.5 c 128,-1,37
 437 774 437 774 474 738 c 128,-1,38
 511 702 511 702 558 670 c 128,-1,39
 605 638 605 638 653.5 605 c 128,-1,40
 702 572 702 572 747 534.5 c 128,-1,41
 792 497 792 497 825.5 450 c 128,-1,42
 859 403 859 403 876.5 344 c 128,-1,43
 894 285 894 285 887 208 c 0,44,45
 880 134 880 134 845 82.5 c 128,-1,46
 810 31 810 31 758 0 c 128,-1,47
 706 -31 706 -31 641.5 -43 c 128,-1,48
 577 -55 577 -55 510 -50 c 0,49,50
 469 -47 469 -47 429 -39 c 128,-1,51
 389 -31 389 -31 351 -19 c 128,-1,52
 313 -7 313 -7 278 7 c 128,-1,53
 243 21 243 21 213 35 c 0,54,55
 142 68 142 68 78 110 c 1,56,57
 116 181 116 181 146 237 c 0,58,59
 159 261 159 261 171 284 c 128,-1,60
 183 307 183 307 192.5 325 c 128,-1,61
 202 343 202 343 207.5 354 c 128,-1,62
 213 365 213 365 213 366 c 1,0,1
521 1473 m 1,63,-1
 455 1559 l 1,64,-1
 701 1766 l 1,65,-1
 795 1635 l 1,66,-1
 521 1473 l 1,63,-1
EndSplineSet
Validated: 33
EndChar

StartChar: sacute
Encoding: 347 347 194
Width: 1225
VWidth: 2008
Flags: W
LayerCount: 2
Fore
SplineSet
213 366 m 1,0,1
 332 262 332 262 420 232 c 128,-1,2
 508 202 508 202 567 249 c 0,3,4
 591 273 591 273 580 303 c 128,-1,5
 569 333 569 333 536 366 c 128,-1,6
 503 399 503 399 454.5 433.5 c 128,-1,7
 406 468 406 468 356.5 501.5 c 128,-1,8
 307 535 307 535 263 566 c 128,-1,9
 219 597 219 597 194 622 c 0,10,11
 189 626 189 626 170 642 c 128,-1,12
 151 658 151 658 126.5 685 c 128,-1,13
 102 712 102 712 76 749 c 128,-1,14
 50 786 50 786 32 832.5 c 128,-1,15
 14 879 14 879 8 934.5 c 128,-1,16
 2 990 2 990 16 1054 c 1,17,18
 39 1135 39 1135 92.5 1200 c 128,-1,19
 146 1265 146 1265 221.5 1310.5 c 128,-1,20
 297 1356 297 1356 390.5 1381 c 128,-1,21
 484 1406 484 1406 586 1406 c 0,22,23
 673 1406 673 1406 748 1398 c 128,-1,24
 823 1390 823 1390 889.5 1371.5 c 128,-1,25
 956 1353 956 1353 1017 1323 c 128,-1,26
 1078 1293 1078 1293 1136 1248 c 1,27,-1
 940 914 l 1,28,29
 896 959 896 959 839.5 994 c 128,-1,30
 783 1029 783 1029 723.5 1050.5 c 128,-1,31
 664 1072 664 1072 606.5 1077 c 128,-1,32
 549 1082 549 1082 502.5 1067.5 c 128,-1,33
 456 1053 456 1053 425.5 1015.5 c 128,-1,34
 395 978 395 978 391 914 c 0,35,36
 391 859 391 859 414 816.5 c 128,-1,37
 437 774 437 774 474 738 c 128,-1,38
 511 702 511 702 558 670 c 128,-1,39
 605 638 605 638 653.5 605 c 128,-1,40
 702 572 702 572 747 534.5 c 128,-1,41
 792 497 792 497 825.5 450 c 128,-1,42
 859 403 859 403 876.5 344 c 128,-1,43
 894 285 894 285 887 208 c 0,44,45
 880 134 880 134 845 82.5 c 128,-1,46
 810 31 810 31 758 0 c 128,-1,47
 706 -31 706 -31 641.5 -43 c 128,-1,48
 577 -55 577 -55 510 -50 c 0,49,50
 469 -47 469 -47 429 -39 c 128,-1,51
 389 -31 389 -31 351 -19 c 128,-1,52
 313 -7 313 -7 278 7 c 128,-1,53
 243 21 243 21 213 35 c 0,54,55
 142 68 142 68 78 110 c 1,56,57
 116 181 116 181 146 237 c 0,58,59
 159 261 159 261 171 284 c 128,-1,60
 183 307 183 307 192.5 325 c 128,-1,61
 202 343 202 343 207.5 354 c 128,-1,62
 213 365 213 365 213 366 c 1,0,1
521 1473 m 1,63,-1
 455 1559 l 1,64,-1
 701 1766 l 1,65,-1
 795 1635 l 1,66,-1
 521 1473 l 1,63,-1
EndSplineSet
Validated: 33
EndChar

StartChar: S.001
Encoding: 350 350 195
Width: 1201
VWidth: 2008
Flags: W
LayerCount: 2
Fore
SplineSet
207 366 m 1,0,1
 326 262 326 262 414 232 c 128,-1,2
 502 202 502 202 561 249 c 0,3,4
 585 273 585 273 574 303 c 128,-1,5
 563 333 563 333 530 366 c 128,-1,6
 497 399 497 399 448.5 433.5 c 128,-1,7
 400 468 400 468 350.5 501.5 c 128,-1,8
 301 535 301 535 257 566 c 128,-1,9
 213 597 213 597 188 622 c 0,10,11
 183 626 183 626 164 642 c 128,-1,12
 145 658 145 658 120.5 685 c 128,-1,13
 96 712 96 712 70 749 c 128,-1,14
 44 786 44 786 26 832.5 c 128,-1,15
 8 879 8 879 2 934.5 c 128,-1,16
 -4 990 -4 990 10 1054 c 1,17,18
 33 1135 33 1135 86.5 1200 c 128,-1,19
 140 1265 140 1265 215.5 1310.5 c 128,-1,20
 291 1356 291 1356 384.5 1381 c 128,-1,21
 478 1406 478 1406 580 1406 c 0,22,23
 667 1406 667 1406 742 1398 c 128,-1,24
 817 1390 817 1390 883.5 1371.5 c 128,-1,25
 950 1353 950 1353 1011 1323 c 128,-1,26
 1072 1293 1072 1293 1130 1248 c 1,27,-1
 934 914 l 1,28,29
 890 959 890 959 833.5 994 c 128,-1,30
 777 1029 777 1029 717.5 1050.5 c 128,-1,31
 658 1072 658 1072 600.5 1077 c 128,-1,32
 543 1082 543 1082 496.5 1067.5 c 128,-1,33
 450 1053 450 1053 419.5 1015.5 c 128,-1,34
 389 978 389 978 385 914 c 0,35,36
 385 859 385 859 408 816.5 c 128,-1,37
 431 774 431 774 468 738 c 128,-1,38
 505 702 505 702 552 670 c 128,-1,39
 599 638 599 638 647.5 605 c 128,-1,40
 696 572 696 572 741 534.5 c 128,-1,41
 786 497 786 497 819.5 450 c 128,-1,42
 853 403 853 403 870.5 344 c 128,-1,43
 888 285 888 285 881 208 c 0,44,45
 874 134 874 134 839 82.5 c 128,-1,46
 804 31 804 31 752 0 c 128,-1,47
 700 -31 700 -31 635.5 -43 c 128,-1,48
 571 -55 571 -55 504 -50 c 0,49,50
 463 -47 463 -47 423 -39 c 128,-1,51
 383 -31 383 -31 345 -19 c 128,-1,52
 307 -7 307 -7 272 7 c 128,-1,53
 237 21 237 21 207 35 c 0,54,55
 136 68 136 68 72 110 c 1,56,57
 110 181 110 181 140 237 c 0,58,59
 153 261 153 261 165 284 c 128,-1,60
 177 307 177 307 186.5 325 c 128,-1,61
 196 343 196 343 201.5 354 c 128,-1,62
 207 365 207 365 207 366 c 1,0,1
438 -52 m 0,63,64
 430 -62 430 -62 430 -67 c 2,65,-1
 430 -79 l 2,66,67
 430 -85 430 -85 444 -90 c 0,68,69
 457 -96 457 -96 477 -100 c 0,70,71
 497 -105 497 -105 520 -110 c 256,72,73
 543 -115 543 -115 564 -125 c 0,74,75
 584 -136 584 -136 598 -153 c 0,76,77
 612 -171 612 -171 613 -185 c 2,78,-1
 613 -200 l 1,79,-1
 614 -221 l 2,80,81
 614 -242 614 -242 592 -277 c 0,82,83
 570 -313 570 -313 529 -337 c 0,84,85
 488 -362 488 -362 430 -374 c 0,86,87
 372 -387 372 -387 338 -384 c 2,88,-1
 303 -382 l 1,89,-1
 301 -257 l 1,90,91
 312 -259 312 -259 339.5 -260.5 c 128,-1,92
 367 -262 367 -262 396 -259 c 256,93,94
 425 -256 425 -256 448 -245 c 0,95,96
 470 -235 470 -235 471 -223 c 2,97,-1
 471 -204 l 2,98,99
 471 -196 471 -196 460 -185 c 0,100,101
 448 -175 448 -175 431 -168 c 0,102,103
 413 -161 413 -161 393 -155 c 0,104,105
 372 -149 372 -149 355 -140 c 0,106,107
 337 -132 337 -132 325 -120 c 0,108,109
 313 -109 313 -109 314 -90 c 0,110,111
 313 -75 313 -75 318 -64.5 c 128,-1,112
 323 -54 323 -54 331 -46 c 256,113,114
 339 -38 339 -38 350 -32 c 0,115,116
 357 -29 357 -29 364 -25 c 1,117,-1
 450 -41 l 1,118,119
 443 -45 443 -45 438 -52 c 0,63,64
EndSplineSet
Validated: 37
EndChar

StartChar: Zacute
Encoding: 377 377 200
Width: 1221
VWidth: 2008
Flags: W
LayerCount: 2
Fore
SplineSet
508 218 m 1,0,-1
 936 212 l 1,1,-1
 924 -34 l 1,2,-1
 98 -7 l 1,3,-1
 98 196 l 1,4,-1
 647 1058 l 1,5,-1
 0 1058 l 1,6,-1
 0 1396 l 1,7,-1
 1012 1381 l 1,8,-1
 1012 1113 l 1,9,-1
 508 218 l 1,10,-1
 508 218 l 1,0,-1
515 1473 m 1,11,-1
 449 1559 l 1,12,-1
 695 1766 l 1,13,-1
 789 1635 l 1,14,-1
 515 1473 l 1,11,-1
EndSplineSet
Validated: 5
EndChar

StartChar: zacute
Encoding: 378 378 201
Width: 1221
VWidth: 2008
Flags: W
LayerCount: 2
Fore
SplineSet
508 218 m 1,0,-1
 936 212 l 1,1,-1
 924 -34 l 1,2,-1
 98 -7 l 1,3,-1
 98 196 l 1,4,-1
 647 1058 l 1,5,-1
 0 1058 l 1,6,-1
 0 1396 l 1,7,-1
 1012 1381 l 1,8,-1
 1012 1113 l 1,9,-1
 508 218 l 1,10,-1
 508 218 l 1,0,-1
515 1473 m 1,11,-1
 449 1559 l 1,12,-1
 695 1766 l 1,13,-1
 789 1635 l 1,14,-1
 515 1473 l 1,11,-1
EndSplineSet
Validated: 5
EndChar

StartChar: Zdotaccent
Encoding: 379 379 202
Width: 1221
VWidth: 2008
Flags: W
LayerCount: 2
Fore
SplineSet
416 1593 m 0,0,1
 416 1616 416 1616 425.5 1639 c 128,-1,2
 435 1662 435 1662 452 1679.5 c 128,-1,3
 469 1697 469 1697 493 1708 c 128,-1,4
 517 1719 517 1719 548 1720 c 0,5,6
 581 1721 581 1721 607 1709.5 c 128,-1,7
 633 1698 633 1698 650.5 1679.5 c 128,-1,8
 668 1661 668 1661 676 1638 c 128,-1,9
 684 1615 684 1615 683 1593 c 0,10,11
 681 1568 681 1568 669.5 1547 c 128,-1,12
 658 1526 658 1526 639.5 1511 c 128,-1,13
 621 1496 621 1496 597 1488 c 128,-1,14
 573 1480 573 1480 548 1480 c 256,15,16
 523 1480 523 1480 500 1488 c 128,-1,17
 477 1496 477 1496 458 1511 c 128,-1,18
 439 1526 439 1526 427.5 1547 c 128,-1,19
 416 1568 416 1568 416 1593 c 0,0,1
508 218 m 1,20,-1
 936 212 l 1,21,-1
 924 -34 l 1,22,-1
 98 -7 l 1,23,-1
 98 196 l 1,24,-1
 647 1058 l 1,25,-1
 0 1058 l 1,26,-1
 0 1396 l 1,27,-1
 1012 1381 l 1,28,-1
 1012 1113 l 1,29,-1
 508 218 l 1,30,-1
 508 218 l 1,20,-1
EndSplineSet
Validated: 5
EndChar

StartChar: zdotaccent
Encoding: 380 380 203
Width: 1221
VWidth: 2008
Flags: W
LayerCount: 2
Fore
SplineSet
416 1593 m 4,0,1
 416 1616 416 1616 425.5 1639 c 132,-1,2
 435 1662 435 1662 452 1679.5 c 132,-1,3
 469 1697 469 1697 493 1708 c 132,-1,4
 517 1719 517 1719 548 1720 c 4,5,6
 581 1721 581 1721 607 1709.5 c 132,-1,7
 633 1698 633 1698 650.5 1679.5 c 132,-1,8
 668 1661 668 1661 676 1638 c 132,-1,9
 684 1615 684 1615 683 1593 c 4,10,11
 681 1568 681 1568 669.5 1547 c 132,-1,12
 658 1526 658 1526 639.5 1511 c 132,-1,13
 621 1496 621 1496 597 1488 c 132,-1,14
 573 1480 573 1480 548 1480 c 260,15,16
 523 1480 523 1480 500 1488 c 132,-1,17
 477 1496 477 1496 458 1511 c 132,-1,18
 439 1526 439 1526 427.5 1547 c 132,-1,19
 416 1568 416 1568 416 1593 c 4,0,1
508 218 m 1,20,-1
 936 212 l 1,21,-1
 924 -34 l 1,22,-1
 98 -7 l 1,23,-1
 98 196 l 1,24,-1
 647 1058 l 1,25,-1
 0 1058 l 1,26,-1
 0 1396 l 1,27,-1
 1012 1381 l 1,28,-1
 1012 1113 l 1,29,-1
 508 218 l 1,30,-1
 508 218 l 1,20,-1
EndSplineSet
Validated: 5
EndChar

StartChar: circumflex
Encoding: 710 710 206
Width: 371
VWidth: 2008
Flags: W
LayerCount: 2
Fore
SplineSet
55 1232 m 1,0,-1
 -2 1283 l 1,1,-1
 193 1494 l 1,2,-1
 373 1283 l 1,3,-1
 303 1230 l 1,4,-1
 184 1369 l 1,5,-1
 55 1232 l 1,0,-1
EndSplineSet
Validated: 1
EndChar

StartChar: caron
Encoding: 711 711 207
Width: 369
VWidth: 2008
Flags: W
LayerCount: 2
Fore
SplineSet
307 1492 m 1,0,-1
 369 1441 l 1,1,-1
 178 1228 l 1,2,-1
 -6 1435 l 1,3,-1
 63 1490 l 1,4,-1
 188 1353 l 1,5,-1
 307 1492 l 1,0,-1
EndSplineSet
Validated: 1
EndChar

StartChar: breve
Encoding: 728 728 208
Width: 487
VWidth: 2008
Flags: W
LayerCount: 2
Fore
SplineSet
485 1478 m 1,0,1
 465 1408 465 1408 426.5 1359 c 128,-1,2
 388 1310 388 1310 341 1284 c 128,-1,3
 294 1258 294 1258 243 1255 c 128,-1,4
 192 1252 192 1252 144.5 1273 c 128,-1,5
 97 1294 97 1294 58 1339 c 128,-1,6
 19 1384 19 1384 -2 1455 c 1,7,-1
 96 1492 l 1,8,9
 147 1367 147 1367 234.5 1369 c 128,-1,10
 322 1371 322 1371 383 1519 c 1,11,-1
 485 1478 l 1,0,1
EndSplineSet
Validated: 33
EndChar

StartChar: ring
Encoding: 730 730 209
Width: 311
VWidth: 2008
Flags: W
LayerCount: 2
Fore
SplineSet
152 1525 m 0,0,1
 186 1525 186 1525 215 1513 c 128,-1,2
 244 1501 244 1501 265.5 1480.5 c 128,-1,3
 287 1460 287 1460 299 1432 c 128,-1,4
 311 1404 311 1404 311 1373 c 256,5,6
 311 1342 311 1342 299 1315.5 c 128,-1,7
 287 1289 287 1289 265.5 1269 c 128,-1,8
 244 1249 244 1249 215 1237.5 c 128,-1,9
 186 1226 186 1226 152 1226 c 0,10,11
 121 1226 121 1226 93.5 1237.5 c 128,-1,12
 66 1249 66 1249 45 1269 c 128,-1,13
 24 1289 24 1289 12 1315.5 c 128,-1,14
 0 1342 0 1342 0 1373 c 256,15,16
 0 1404 0 1404 12 1432 c 128,-1,17
 24 1460 24 1460 45 1480.5 c 128,-1,18
 66 1501 66 1501 93.5 1513 c 128,-1,19
 121 1525 121 1525 152 1525 c 0,0,1
152 1295 m 0,20,21
 187 1295 187 1295 209 1316 c 128,-1,22
 231 1337 231 1337 231 1365 c 0,23,24
 231 1396 231 1396 209 1415.5 c 128,-1,25
 187 1435 187 1435 152 1435 c 0,26,27
 123 1435 123 1435 101.5 1415.5 c 128,-1,28
 80 1396 80 1396 80 1365 c 0,29,30
 80 1351 80 1351 86 1338.5 c 128,-1,31
 92 1326 92 1326 101.5 1316 c 128,-1,32
 111 1306 111 1306 124 1300.5 c 128,-1,33
 137 1295 137 1295 152 1295 c 0,20,21
EndSplineSet
Validated: 1
EndChar

StartChar: tilde
Encoding: 732 732 210
Width: 496
VWidth: 2008
Flags: W
LayerCount: 2
Fore
SplineSet
0 1394 m 1,0,1
 7 1404 7 1404 24.5 1424.5 c 128,-1,2
 42 1445 42 1445 66 1464.5 c 128,-1,3
 90 1484 90 1484 119 1499 c 128,-1,4
 148 1514 148 1514 178 1514 c 0,5,6
 217 1514 217 1514 237.5 1497 c 128,-1,7
 258 1480 258 1480 272 1460 c 128,-1,8
 286 1440 286 1440 298 1423 c 128,-1,9
 310 1406 310 1406 332 1406 c 0,10,11
 347 1406 347 1406 361.5 1416 c 128,-1,12
 376 1426 376 1426 387 1439 c 0,13,14
 400 1454 400 1454 412 1473 c 1,15,-1
 496 1400 l 1,16,17
 487 1389 487 1389 469 1371 c 128,-1,18
 451 1353 451 1353 429 1336 c 128,-1,19
 407 1319 407 1319 384 1306.5 c 128,-1,20
 361 1294 361 1294 340 1295 c 0,21,22
 306 1295 306 1295 286 1308.5 c 128,-1,23
 266 1322 266 1322 251 1338.5 c 128,-1,24
 236 1355 236 1355 221 1369 c 128,-1,25
 206 1383 206 1383 184 1383 c 256,26,27
 162 1383 162 1383 145 1370 c 128,-1,28
 128 1357 128 1357 116 1341 c 0,29,30
 102 1323 102 1323 90 1299 c 1,31,-1
 0 1394 l 1,0,1
EndSplineSet
Validated: 1
EndChar

StartChar: afii10023
Encoding: 1025 1025 211
Width: 1271
VWidth: 2008
Flags: W
LayerCount: 2
Fore
SplineSet
369 1050 m 1,0,-1
 375 578 l 1,1,-1
 813 578 l 1,2,-1
 813 386 l 1,3,-1
 383 386 l 1,4,-1
 387 230 l 1,5,-1
 1036 251 l 1,6,-1
 1044 -22 l 1,7,-1
 18 -40 l 1,8,-1
 0 1392 l 1,9,-1
 1161 1392 l 1,10,-1
 1161 1050 l 1,11,-1
 369 1050 l 1,0,-1
149 1648 m 0,12,13
 149 1679 149 1679 161 1706 c 128,-1,14
 173 1733 173 1733 193 1752.5 c 128,-1,15
 213 1772 213 1772 239.5 1783 c 128,-1,16
 266 1794 266 1794 296 1794 c 0,17,18
 327 1794 327 1794 354.5 1782.5 c 128,-1,19
 382 1771 382 1771 402.5 1751 c 128,-1,20
 423 1731 423 1731 434.5 1704.5 c 128,-1,21
 446 1678 446 1678 446 1648 c 0,22,23
 446 1616 446 1616 434.5 1589 c 128,-1,24
 423 1562 423 1562 402.5 1542.5 c 128,-1,25
 382 1523 382 1523 354.5 1512 c 128,-1,26
 327 1501 327 1501 296 1501 c 0,27,28
 264 1501 264 1501 237 1512 c 128,-1,29
 210 1523 210 1523 190.5 1542.5 c 128,-1,30
 171 1562 171 1562 160 1589 c 128,-1,31
 149 1616 149 1616 149 1648 c 0,12,13
693 1649 m 0,32,33
 693 1680 693 1680 705 1707 c 128,-1,34
 717 1734 717 1734 737 1753.5 c 128,-1,35
 757 1773 757 1773 783.5 1784 c 128,-1,36
 810 1795 810 1795 840 1795 c 0,37,38
 871 1795 871 1795 898.5 1783.5 c 128,-1,39
 926 1772 926 1772 946.5 1752 c 128,-1,40
 967 1732 967 1732 978.5 1705.5 c 128,-1,41
 990 1679 990 1679 990 1649 c 0,42,43
 990 1617 990 1617 978.5 1590 c 128,-1,44
 967 1563 967 1563 946.5 1543.5 c 128,-1,45
 926 1524 926 1524 898.5 1513 c 128,-1,46
 871 1502 871 1502 840 1502 c 0,47,48
 808 1502 808 1502 781 1513 c 128,-1,49
 754 1524 754 1524 734.5 1543.5 c 128,-1,50
 715 1563 715 1563 704 1590 c 128,-1,51
 693 1617 693 1617 693 1649 c 0,32,33
EndSplineSet
Validated: 1
EndChar

StartChar: afii10017
Encoding: 1040 1040 212
Width: 1454
VWidth: 2008
Flags: W
LayerCount: 2
Fore
SplineSet
930 368 m 1,0,-1
 485 368 l 1,1,-1
 348 -40 l 1,2,-1
 0 56 l 1,3,-1
 524 1394 l 1,4,-1
 813 1375 l 1,5,-1
 1356 77 l 1,6,-1
 1085 -22 l 1,7,-1
 930 368 l 1,0,-1
852 542 m 1,8,-1
 678 949 l 1,9,-1
 543 542 l 1,10,-1
 852 542 l 1,8,-1
EndSplineSet
Validated: 1
EndChar

StartChar: afii10018
Encoding: 1041 1041 213
Width: 1181
VWidth: 2008
Flags: W
LayerCount: 2
Fore
SplineSet
396 304 m 1,0,1
 476 300 476 300 542.5 306 c 128,-1,2
 609 312 609 312 657.5 331 c 128,-1,3
 706 350 706 350 733.5 385 c 128,-1,4
 761 420 761 420 764 475 c 0,5,6
 766 535 766 535 742.5 571.5 c 128,-1,7
 719 608 719 608 680.5 627.5 c 128,-1,8
 642 647 642 647 595.5 654 c 128,-1,9
 549 661 549 661 506.5 660.5 c 128,-1,10
 464 660 464 660 431.5 656 c 128,-1,11
 399 652 399 652 388 651 c 1,12,-1
 396 304 l 1,0,1
386 -51 m 1,13,-1
 90 -45 l 1,14,-1
 29 -44 l 1,15,-1
 29 -43 l 1,16,-1
 -1 -43 l 1,17,-1
 14 1056 l 1,18,-1
 19 1379 l 1,19,-1
 1045 1368 l 1,20,-1
 1037 1026 l 1,21,-1
 388 1039 l 1,22,-1
 387 847 l 1,23,24
 449 835 449 835 536 832 c 1,25,26
 770 810 770 810 807 803 c 128,-1,27
 844 796 844 796 868.5 788.5 c 128,-1,28
 893 781 893 781 917 770.5 c 128,-1,29
 941 760 941 760 966 744 c 0,30,31
 1014 715 1014 715 1047.5 669 c 128,-1,32
 1081 623 1081 623 1101.5 572 c 128,-1,33
 1122 521 1122 521 1128 468 c 128,-1,34
 1134 415 1134 415 1127 371 c 0,35,36
 1121 309 1121 309 1095.5 251.5 c 128,-1,37
 1070 194 1070 194 1028 146.5 c 128,-1,38
 986 99 986 99 930 63.5 c 128,-1,39
 874 28 874 28 811 10 c 0,40,41
 747 -9 747 -9 691.5 -20 c 128,-1,42
 636 -31 636 -31 587.5 -37 c 128,-1,43
 539 -43 539 -43 497.5 -45.5 c 128,-1,44
 456 -48 456 -48 420 -49 c 2,45,-1
 386 -48 l 1,46,-1
 386 -51 l 1,13,-1
EndSplineSet
Validated: 33
EndChar

StartChar: afii10019
Encoding: 1042 1042 214
Width: 1229
VWidth: 2008
Flags: W
LayerCount: 2
Fore
SplineSet
396 304 m 1,0,1
 476 300 476 300 542.5 306 c 128,-1,2
 609 312 609 312 657.5 331 c 128,-1,3
 706 350 706 350 733.5 385 c 128,-1,4
 761 420 761 420 764 475 c 0,5,6
 766 535 766 535 742.5 571.5 c 128,-1,7
 719 608 719 608 680.5 627.5 c 128,-1,8
 642 647 642 647 595.5 654 c 128,-1,9
 549 661 549 661 506.5 660.5 c 128,-1,10
 464 660 464 660 431.5 656 c 128,-1,11
 399 652 399 652 388 651 c 1,12,-1
 396 304 l 1,0,1
392 938 m 1,13,14
 431 935 431 935 479 934.5 c 128,-1,15
 527 934 527 934 570.5 945.5 c 128,-1,16
 614 957 614 957 644 984.5 c 128,-1,17
 674 1012 674 1012 678 1066 c 0,18,19
 681 1104 681 1104 664.5 1128 c 128,-1,20
 648 1152 648 1152 620.5 1166 c 128,-1,21
 593 1180 593 1180 558.5 1184.5 c 128,-1,22
 524 1189 524 1189 490.5 1189.5 c 128,-1,23
 457 1190 457 1190 428.5 1187.5 c 128,-1,24
 400 1185 400 1185 385 1183 c 1,25,-1
 392 938 l 1,13,14
1127 371 m 0,26,27
 1121 309 1121 309 1095.5 251.5 c 128,-1,28
 1070 194 1070 194 1028 146.5 c 128,-1,29
 986 99 986 99 930 63.5 c 128,-1,30
 874 28 874 28 811 10 c 0,31,32
 747 -9 747 -9 691.5 -20 c 128,-1,33
 636 -31 636 -31 587.5 -37 c 128,-1,34
 539 -43 539 -43 497.5 -45.5 c 128,-1,35
 456 -48 456 -48 420 -49 c 2,36,-1
 29 -44 l 1,37,-1
 10 1379 l 1,38,-1
 381 1394 l 2,39,40
 425 1395 425 1395 488 1394 c 128,-1,41
 551 1393 551 1393 618.5 1383.5 c 128,-1,42
 686 1374 686 1374 749.5 1351.5 c 128,-1,43
 813 1329 813 1329 858 1287 c 0,44,45
 885 1262 885 1262 903.5 1229 c 128,-1,46
 922 1196 922 1196 931.5 1161 c 128,-1,47
 941 1126 941 1126 942.5 1091 c 128,-1,48
 944 1056 944 1056 936 1026 c 0,49,50
 921 957 921 957 878 908 c 128,-1,51
 835 859 835 859 762 813 c 1,52,53
 792 808 792 808 818 802 c 128,-1,54
 844 796 844 796 868.5 788.5 c 128,-1,55
 893 781 893 781 917 770.5 c 128,-1,56
 941 760 941 760 966 744 c 0,57,58
 1014 715 1014 715 1047.5 669 c 128,-1,59
 1081 623 1081 623 1101.5 572 c 128,-1,60
 1122 521 1122 521 1128 468 c 128,-1,61
 1134 415 1134 415 1127 371 c 0,26,27
EndSplineSet
Validated: 33
EndChar

StartChar: afii10020
Encoding: 1043 1043 215
Width: 1051
VWidth: 2008
Flags: W
LayerCount: 2
Fore
SplineSet
387 -40 m 1,0,-1
 0 -32 l 1,1,-1
 20 1404 l 1,2,-1
 929 1382 l 1,3,-1
 921 1040 l 1,4,-1
 389 1050 l 1,5,-1
 387 -40 l 1,0,-1
EndSplineSet
Validated: 1
EndChar

StartChar: afii10021
Encoding: 1044 1044 216
Width: 1997
VWidth: 2008
Flags: W
LayerCount: 2
Fore
SplineSet
1297 208 m 1,0,-1
 987 949 l 1,1,-1
 750 212 l 1,2,-1
 1297 208 l 1,0,-1
337 -39 m 1,3,-1
 281 -200 l 1,4,-1
 -5 -197 l 1,5,-1
 79 215 l 1,6,-1
 219 216 l 1,7,-1
 250 216 l 1,8,-1
 378 215 l 1,9,-1
 833 1394 l 1,10,-1
 1122 1375 l 1,11,-1
 1605 210 l 1,12,-1
 1732 214 l 1,13,-1
 1763 214 l 1,14,-1
 1896 215 l 1,15,-1
 1964 -206 l 1,16,-1
 1714 -204 l 1,17,-1
 1649 -36 l 1,18,-1
 337 -39 l 1,3,-1
EndSplineSet
Validated: 1
EndChar

StartChar: afii10022
Encoding: 1045 1045 217
Width: 1271
VWidth: 2008
Flags: W
LayerCount: 2
Fore
SplineSet
369 1050 m 1,0,-1
 375 578 l 1,1,-1
 813 578 l 1,2,-1
 813 386 l 1,3,-1
 383 386 l 1,4,-1
 387 230 l 1,5,-1
 1036 251 l 1,6,-1
 1044 -22 l 1,7,-1
 18 -40 l 1,8,-1
 0 1392 l 1,9,-1
 1161 1392 l 1,10,-1
 1161 1050 l 1,11,-1
 369 1050 l 1,0,-1
EndSplineSet
Validated: 1
EndChar

StartChar: afii10024
Encoding: 1046 1046 218
Width: 1936
VWidth: 2008
Flags: W
LayerCount: 2
Fore
SplineSet
1331 631 m 1,0,-1
 1802 166 l 1,1,-1
 1607 -29 l 1,2,-1
 1186 450 l 1,3,-1
 1201 151 l 1,4,-1
 1216 -29 l 1,5,-1
 1210 -30 l 1,6,-1
 821 -50 l 1,7,-1
 817 134 l 1,8,-1
 800 431 l 1,9,-1
 432 -91 l 1,10,-1
 218 83 l 1,11,-1
 638 593 l 1,12,-1
 75 1066 l 1,13,-1
 304 1325 l 1,14,-1
 776 872 l 1,15,-1
 749 1372 l 1,16,-1
 749 1374 l 1,17,-1
 1013 1387 l 1,18,-1
 1139 1394 l 1,19,-1
 1164 893 l 1,20,-1
 1587 1393 l 1,21,-1
 1841 1159 l 1,22,-1
 1331 631 l 1,0,-1
EndSplineSet
Validated: 1
EndChar

StartChar: afii10025
Encoding: 1047 1047 219
Width: 1224
VWidth: 2008
Flags: W
LayerCount: 2
Fore
SplineSet
204 362 m 1,0,1
 323 258 323 258 411 228 c 128,-1,2
 499 198 499 198 558 245 c 0,3,4
 582 269 582 269 578 298.5 c 128,-1,5
 574 328 574 328 549.5 364.5 c 128,-1,6
 525 401 525 401 478.5 433.5 c 128,-1,7
 432 466 432 466 391 478.5 c 128,-1,8
 350 491 350 491 301 502 c 128,-1,9
 252 513 252 513 193 522 c 1,10,11
 192 604 192 604 196 697 c 1,12,13
 452 643 452 643 560 668 c 1,14,15
 622 703 622 703 658 738 c 0,16,17
 695 774 695 774 718 816.5 c 128,-1,18
 741 859 741 859 741 914 c 0,19,20
 737 978 737 978 706.5 1015.5 c 128,-1,21
 676 1053 676 1053 629.5 1067.5 c 128,-1,22
 583 1082 583 1082 525.5 1077 c 128,-1,23
 468 1072 468 1072 408.5 1050.5 c 128,-1,24
 349 1029 349 1029 292.5 994 c 128,-1,25
 236 959 236 959 192 914 c 1,26,-1
 -4 1248 l 1,27,28
 54 1293 54 1293 115 1323 c 128,-1,29
 176 1353 176 1353 242.5 1371.5 c 128,-1,30
 309 1390 309 1390 384 1398 c 128,-1,31
 459 1406 459 1406 546 1406 c 0,32,33
 648 1406 648 1406 741.5 1381 c 128,-1,34
 835 1356 835 1356 910.5 1310.5 c 128,-1,35
 986 1265 986 1265 1039.5 1200 c 128,-1,36
 1093 1135 1093 1135 1116 1054 c 1,37,38
 1130 990 1130 990 1124 934.5 c 128,-1,39
 1118 879 1118 879 1100 832.5 c 128,-1,40
 1082 786 1082 786 1056 749 c 128,-1,41
 1030 712 1030 712 1005.5 685 c 128,-1,42
 981 658 981 658 962 642 c 128,-1,43
 943 626 943 626 770 501 c 1,44,45
 795 475 795 475 816 446 c 0,46,47
 850 399 850 399 867.5 340 c 128,-1,48
 885 281 885 281 878 204 c 0,49,50
 871 130 871 130 836 78.5 c 128,-1,51
 801 27 801 27 749 -4 c 128,-1,52
 697 -35 697 -35 632.5 -47 c 128,-1,53
 568 -59 568 -59 501 -54 c 0,54,55
 460 -51 460 -51 420 -43 c 128,-1,56
 380 -35 380 -35 342 -23 c 128,-1,57
 304 -11 304 -11 269 3 c 128,-1,58
 234 17 234 17 204 31 c 0,59,60
 133 64 133 64 69 106 c 1,61,62
 107 177 107 177 137 233 c 0,63,64
 150 257 150 257 162 280 c 128,-1,65
 174 303 174 303 183.5 321 c 128,-1,66
 193 339 193 339 198.5 350 c 128,-1,67
 204 361 204 361 204 362 c 1,0,1
EndSplineSet
Validated: 33
EndChar

StartChar: afii10026
Encoding: 1048 1048 220
Width: 1345
VWidth: 2008
Flags: W
LayerCount: 2
Fore
SplineSet
385 -40 m 1,0,-1
 0 -40 l 1,1,-1
 0 1394 l 1,2,-1
 291 1394 l 1,3,-1
 374 494 l 1,4,-1
 887 1379 l 1,5,-1
 1217 1392 l 1,6,-1
 1239 -1 l 1,7,-1
 969 -22 l 1,8,-1
 910 910 l 1,9,-1
 385 -40 l 1,0,-1
EndSplineSet
Validated: 1
EndChar

StartChar: afii10027
Encoding: 1049 1049 221
Width: 1345
VWidth: 2008
Flags: W
LayerCount: 2
Fore
SplineSet
385 -40 m 1,0,-1
 0 -40 l 1,1,-1
 0 1394 l 1,2,-1
 291 1394 l 1,3,-1
 374 494 l 1,4,-1
 887 1379 l 1,5,-1
 1217 1392 l 1,6,-1
 1239 -1 l 1,7,-1
 969 -22 l 1,8,-1
 910 910 l 1,9,-1
 385 -40 l 1,0,-1
833 1778 m 1,10,-1
 942 1700 l 1,11,-1
 605 1376 l 1,12,-1
 279 1690 l 1,13,-1
 401 1774 l 1,14,-1
 622 1567 l 1,15,-1
 833 1778 l 1,10,-1
EndSplineSet
Validated: 1
EndChar

StartChar: afii10028
Encoding: 1050 1050 222
Width: 1185
VWidth: 2008
Flags: W
LayerCount: 2
Fore
SplineSet
582 640 m 1,0,-1
 1053 175 l 1,1,-1
 858 -20 l 1,2,-1
 426 472 l 1,3,-1
 467 -20 l 1,4,-1
 78 -40 l 1,5,-1
 0 1383 l 1,6,-1
 389 1402 l 1,7,-1
 410 896 l 1,8,-1
 838 1402 l 1,9,-1
 1092 1168 l 1,10,-1
 582 640 l 1,0,-1
EndSplineSet
Validated: 1
EndChar

StartChar: afii10029
Encoding: 1051 1051 223
Width: 1578
VWidth: 2008
Flags: W
LayerCount: 2
Fore
SplineSet
1115 -42 m 1,0,-1
 738 955 l 1,1,-1
 337 -16 l 1,2,-1
 48 79 l 1,3,-1
 621 1400 l 1,4,-1
 941 1420 l 1,5,-1
 1529 60 l 1,6,-1
 1115 -42 l 1,0,-1
EndSplineSet
Validated: 1
EndChar

StartChar: afii10030
Encoding: 1052 1052 224
Width: 1575
VWidth: 2008
Flags: W
LayerCount: 2
Fore
SplineSet
782 353 m 1,0,-1
 1180 1353 l 1,1,-1
 1450 1361 l 1,2,-1
 1473 -1 l 1,3,-1
 1151 -5 l 1,4,-1
 1147 734 l 1,5,-1
 823 -48 l 1,6,-1
 678 -32 l 1,7,-1
 365 652 l 1,8,-1
 387 -38 l 1,9,-1
 23 -38 l 1,10,-1
 4 1392 l 1,11,-1
 311 1392 l 1,12,-1
 782 353 l 1,0,-1
EndSplineSet
Validated: 1
EndChar

StartChar: afii10031
Encoding: 1053 1053 225
Width: 1558
VWidth: 2008
Flags: W
LayerCount: 2
Fore
SplineSet
1413 1390 m 1,0,-1
 1456 -7 l 1,1,-1
 1124 -22 l 1,2,-1
 1112 382 l 1,3,-1
 430 368 l 1,4,-1
 430 -40 l 1,5,-1
 2 -40 l 1,6,-1
 0 1359 l 1,7,-1
 428 1359 l 1,8,-1
 428 601 l 1,9,-1
 1102 619 l 1,10,-1
 1075 1377 l 1,11,-1
 1413 1390 l 1,0,-1
EndSplineSet
Validated: 1
EndChar

StartChar: afii10032
Encoding: 1054 1054 226
Width: 1596
VWidth: 2008
Flags: W
LayerCount: 2
Fore
SplineSet
743 1420 m 0,0,1
 852 1420 852 1420 951 1393.5 c 128,-1,2
 1050 1367 1050 1367 1134.5 1319 c 128,-1,3
 1219 1271 1219 1271 1288 1203 c 128,-1,4
 1357 1135 1357 1135 1405.5 1053 c 128,-1,5
 1454 971 1454 971 1480.5 876 c 128,-1,6
 1507 781 1507 781 1507 679 c 0,7,8
 1507 578 1507 578 1480.5 484.5 c 128,-1,9
 1454 391 1454 391 1405.5 310 c 128,-1,10
 1357 229 1357 229 1288 162.5 c 128,-1,11
 1219 96 1219 96 1134.5 49 c 128,-1,12
 1050 2 1050 2 951 -24 c 128,-1,13
 852 -50 852 -50 743 -50 c 0,14,15
 640 -50 640 -50 544.5 -24 c 128,-1,16
 449 2 449 2 366.5 49 c 128,-1,17
 284 96 284 96 216.5 162.5 c 128,-1,18
 149 229 149 229 101 310 c 128,-1,19
 53 391 53 391 26.5 484 c 128,-1,20
 0 577 0 577 0 679 c 256,21,22
 0 781 0 781 26.5 876 c 128,-1,23
 53 971 53 971 101 1053 c 128,-1,24
 149 1135 149 1135 216.5 1203 c 128,-1,25
 284 1271 284 1271 366.5 1319 c 128,-1,26
 449 1367 449 1367 544.5 1393.5 c 128,-1,27
 640 1420 640 1420 743 1420 c 0,0,1
743 236 m 0,28,29
 836 236 836 236 915 269 c 128,-1,30
 994 302 994 302 1051.5 357.5 c 128,-1,31
 1109 413 1109 413 1141.5 485.5 c 128,-1,32
 1174 558 1174 558 1174 638 c 0,33,34
 1174 726 1174 726 1141.5 799.5 c 128,-1,35
 1109 873 1109 873 1051.5 925.5 c 128,-1,36
 994 978 994 978 915 1007.5 c 128,-1,37
 836 1037 836 1037 743 1037 c 0,38,39
 658 1037 658 1037 583.5 1007.5 c 128,-1,40
 509 978 509 978 453.5 925.5 c 128,-1,41
 398 873 398 873 366 799.5 c 128,-1,42
 334 726 334 726 334 638 c 0,43,44
 334 558 334 558 366 485.5 c 128,-1,45
 398 413 398 413 453.5 357.5 c 128,-1,46
 509 302 509 302 583.5 269 c 128,-1,47
 658 236 658 236 743 236 c 0,28,29
EndSplineSet
Validated: 1
EndChar

StartChar: afii10033
Encoding: 1055 1055 227
Width: 1558
VWidth: 2008
Flags: W
LayerCount: 2
Fore
SplineSet
1413 1390 m 1,0,-1
 1456 -7 l 1,1,-1
 1124 -22 l 1,2,-1
 1083 1109 l 1,3,-1
 423 1094 l 1,4,-1
 430 -40 l 1,5,-1
 2 -40 l 1,6,-1
 0 1359 l 1,7,-1
 1413 1390 l 1,0,-1
EndSplineSet
Validated: 1
EndChar

StartChar: afii10034
Encoding: 1056 1056 228
Width: 1215
VWidth: 2008
Flags: W
LayerCount: 2
Fore
SplineSet
1116 998 m 0,0,1
 1116 954 1116 954 1114.5 913 c 128,-1,2
 1113 872 1113 872 1104 834 c 128,-1,3
 1095 796 1095 796 1075 759 c 128,-1,4
 1055 722 1055 722 1018 685 c 1,5,6
 984 645 984 645 935 618 c 128,-1,7
 886 591 886 591 830.5 573.5 c 128,-1,8
 775 556 775 556 715 546.5 c 128,-1,9
 655 537 655 537 599.5 532.5 c 128,-1,10
 544 528 544 528 495 527.5 c 128,-1,11
 446 527 446 527 412 527 c 1,12,-1
 412 -20 l 1,13,-1
 39 -40 l 1,14,-1
 0 1390 l 1,15,-1
 391 1410 l 2,16,17
 428 1410 428 1410 472 1409.5 c 128,-1,18
 516 1409 516 1409 567.5 1405 c 128,-1,19
 619 1401 619 1401 678 1392.5 c 128,-1,20
 737 1384 737 1384 803 1369 c 256,21,22
 869 1354 869 1354 926 1319 c 128,-1,23
 983 1284 983 1284 1025.5 1234.5 c 128,-1,24
 1068 1185 1068 1185 1092 1124.5 c 128,-1,25
 1116 1064 1116 1064 1116 998 c 0,0,1
399 730 m 1,26,27
 411 730 411 730 445.5 728 c 128,-1,28
 480 726 480 726 524 727 c 128,-1,29
 568 728 568 728 616 736 c 128,-1,30
 664 744 664 744 702.5 765 c 128,-1,31
 741 786 741 786 764 823.5 c 128,-1,32
 787 861 787 861 782 921 c 0,33,34
 777 979 777 979 748.5 1016.5 c 128,-1,35
 720 1054 720 1054 670 1074 c 128,-1,36
 620 1094 620 1094 549.5 1099 c 128,-1,37
 479 1104 479 1104 391 1097 c 1,38,-1
 399 730 l 1,26,27
EndSplineSet
Validated: 33
EndChar

StartChar: afii10035
Encoding: 1057 1057 229
Width: 1351
VWidth: 2008
Flags: W
LayerCount: 2
Fore
SplineSet
1185 46 m 1,0,1
 1149 17 1149 17 1100.5 -2 c 128,-1,2
 1052 -21 1052 -21 998 -31.5 c 128,-1,3
 944 -42 944 -42 888.5 -46 c 128,-1,4
 833 -50 833 -50 783 -50 c 0,5,6
 687 -50 687 -50 592.5 -27 c 128,-1,7
 498 -4 498 -4 412.5 39 c 128,-1,8
 327 82 327 82 254 142.5 c 128,-1,9
 181 203 181 203 127.5 277.5 c 128,-1,10
 74 352 74 352 43.5 439 c 128,-1,11
 13 526 13 526 13 622 c 1,12,13
 8 728 8 728 29 827.5 c 128,-1,14
 50 927 50 927 95 1014.5 c 128,-1,15
 140 1102 140 1102 208.5 1174.5 c 128,-1,16
 277 1247 277 1247 368.5 1299.5 c 128,-1,17
 460 1352 460 1352 573 1381 c 128,-1,18
 686 1410 686 1410 820 1410 c 0,19,20
 907 1410 907 1410 984.5 1397.5 c 128,-1,21
 1062 1385 1062 1385 1121.5 1368.5 c 128,-1,22
 1181 1352 1181 1352 1218 1336.5 c 128,-1,23
 1255 1321 1255 1321 1262 1314 c 1,24,-1
 1262 949 l 1,25,26
 1241 963 1241 963 1199.5 979.5 c 128,-1,27
 1158 996 1158 996 1104 1008.5 c 128,-1,28
 1050 1021 1050 1021 986.5 1026.5 c 128,-1,29
 923 1032 923 1032 859 1025 c 1,30,31
 820 1025 820 1025 768.5 1015 c 128,-1,32
 717 1005 717 1005 663 982.5 c 128,-1,33
 609 960 609 960 558.5 924.5 c 128,-1,34
 508 889 508 889 471.5 837.5 c 128,-1,35
 435 786 435 786 419 718 c 128,-1,36
 403 650 403 650 417 564 c 0,37,38
 431 492 431 492 479 437.5 c 128,-1,39
 527 383 527 383 594.5 346 c 128,-1,40
 662 309 662 309 743 290.5 c 128,-1,41
 824 272 824 272 904.5 270.5 c 128,-1,42
 985 269 985 269 1058.5 285 c 128,-1,43
 1132 301 1132 301 1185 335 c 1,44,-1
 1185 46 l 1,0,1
EndSplineSet
Validated: 33
EndChar

StartChar: afii10036
Encoding: 1058 1058 230
Width: 1377
VWidth: 2008
Flags: W
LayerCount: 2
Fore
SplineSet
797 1086 m 1,0,-1
 815 -26 l 1,1,-1
 446 -40 l 1,2,-1
 426 1074 l 1,3,-1
 10 1054 l 1,4,-1
 0 1357 l 1,5,-1
 1260 1396 l 1,6,-1
 1270 1105 l 1,7,-1
 797 1086 l 1,0,-1
EndSplineSet
Validated: 1
EndChar

StartChar: afii10037
Encoding: 1059 1059 231
Width: 1532
VWidth: 2008
Flags: W
LayerCount: 2
Fore
SplineSet
1479 1318 m 1,0,-1
 891 -42 l 1,1,-1
 571 -22 l 1,2,-1
 737 555 l 1,3,-1
 -2 1299 l 1,4,-1
 287 1394 l 1,5,-1
 843 828 l 1,6,-1
 1065 1420 l 1,7,-1
 1479 1318 l 1,0,-1
EndSplineSet
Validated: 1
EndChar

StartChar: afii10038
Encoding: 1060 1060 232
Width: 1596
VWidth: 2008
Flags: W
LayerCount: 2
Fore
SplineSet
852 -317 m 1,0,-1
 577 -290 l 1,1,-1
 577 -24 l 1,2,3
 443 5 443 5 366 49 c 0,4,5
 284 96 284 96 216.5 162.5 c 128,-1,6
 149 229 149 229 101 310 c 128,-1,7
 53 391 53 391 26.5 484 c 128,-1,8
 0 577 0 577 0 679 c 256,9,10
 0 781 0 781 26.5 876 c 128,-1,11
 53 971 53 971 101 1053 c 128,-1,12
 149 1135 149 1135 216.5 1203 c 128,-1,13
 284 1271 284 1271 366.5 1319 c 128,-1,14
 449 1367 449 1367 544.5 1393.5 c 128,-1,15
 640 1420 640 1420 743 1420 c 0,16,17
 852 1420 852 1420 951 1393.5 c 128,-1,18
 1050 1367 1050 1367 1134.5 1319 c 128,-1,19
 1219 1271 1219 1271 1288 1203 c 128,-1,20
 1357 1135 1357 1135 1405.5 1053 c 128,-1,21
 1454 971 1454 971 1480.5 876 c 128,-1,22
 1507 781 1507 781 1507 679 c 0,23,24
 1507 578 1507 578 1480.5 484.5 c 128,-1,25
 1454 391 1454 391 1405.5 310 c 128,-1,26
 1357 229 1357 229 1288 162.5 c 128,-1,27
 1219 96 1219 96 1134.5 49 c 128,-1,28
 1050 2 1050 2 951 -24 c 0,29,30
 937 -28 937 -28 857 -35 c 1,31,-1
 852 -317 l 1,0,-1
453 925 m 0,32,33
 398 873 398 873 366 799.5 c 128,-1,34
 334 726 334 726 334 638 c 0,35,36
 334 558 334 558 366 485.5 c 128,-1,37
 398 413 398 413 453 357 c 0,38,39
 493 317 493 317 577 276 c 1,40,-1
 604 1015 l 1,41,42
 505 974 505 974 453 925 c 0,32,33
1051 357 m 0,43,44
 1109 413 1109 413 1141.5 485.5 c 128,-1,45
 1174 558 1174 558 1174 638 c 0,46,47
 1174 726 1174 726 1141.5 799.5 c 128,-1,48
 1109 873 1109 873 1051 925 c 0,49,50
 1013 960 1013 960 870 1018 c 1,51,-1
 857 276 l 1,52,53
 1002 309 1002 309 1051 357 c 0,43,44
EndSplineSet
Validated: 1
EndChar

StartChar: afii10039
Encoding: 1061 1061 233
Width: 1469
VWidth: 2008
Flags: W
LayerCount: 2
Fore
SplineSet
1065 -46 m 1,0,-1
 664 419 l 1,1,-1
 254 -32 l 1,2,-1
 12 214 l 1,3,-1
 451 677 l 1,4,-1
 29 1144 l 1,5,-1
 311 1396 l 1,6,-1
 702 937 l 1,7,-1
 1057 1344 l 1,8,-1
 1255 1160 l 1,9,-1
 872 726 l 1,10,-1
 1354 191 l 1,11,-1
 1065 -46 l 1,0,-1
EndSplineSet
Validated: 1
EndChar

StartChar: afii10040
Encoding: 1062 1062 234
Width: 1521
VWidth: 2008
Flags: W
LayerCount: 2
Fore
SplineSet
385 -40 m 1,0,-1
 0 -40 l 1,1,-1
 0 1394 l 1,2,-1
 291 1394 l 1,3,-1
 364 205 l 1,4,-1
 956 237 l 1,5,-1
 887 1379 l 1,6,-1
 1217 1392 l 1,7,-1
 1235 264 l 1,8,-1
 1266 264 l 1,9,-1
 1492 262 l 1,10,-1
 1490 -201 l 1,11,-1
 1258 -200 l 1,12,-1
 1259 -28 l 1,13,-1
 1207 -27 l 1,14,-1
 1206 -27 l 1,15,-1
 385 -40 l 1,0,-1
EndSplineSet
Validated: 1
EndChar

StartChar: afii10041
Encoding: 1063 1063 235
Width: 1230
VWidth: 2008
Flags: W
LayerCount: 2
Fore
SplineSet
137 681 m 0,0,1
 98 721 98 721 76 758.5 c 128,-1,2
 54 796 54 796 43.5 834 c 128,-1,3
 33 872 33 872 31.5 911 c 128,-1,4
 30 950 30 950 33 994 c 2,5,-1
 92 1386 l 1,6,-1
 428 1384 l 1,7,-1
 377 928 l 2,8,9
 373 899 373 899 371.5 880 c 128,-1,10
 370 861 370 861 371.5 847 c 128,-1,11
 373 833 373 833 377 820 c 128,-1,12
 381 807 381 807 388 790 c 0,13,14
 411 754 411 754 447 734 c 128,-1,15
 483 714 483 714 528 702 c 1,16,17
 586 700 586 700 644 699.5 c 128,-1,18
 702 699 702 699 760 697 c 1,19,-1
 760 1404 l 1,20,-1
 1151 1383 l 1,21,-1
 1112 -40 l 1,22,-1
 741 -20 l 1,23,-1
 752 501 l 1,24,-1
 588 514 l 1,25,26
 435 543 435 543 388.5 553.5 c 128,-1,27
 342 564 342 564 297 581.5 c 128,-1,28
 252 599 252 599 210.5 623.5 c 128,-1,29
 169 648 169 648 137 681 c 0,0,1
EndSplineSet
Validated: 33
EndChar

StartChar: afii10042
Encoding: 1064 1064 236
Width: 1714
VWidth: 2008
Flags: W
LayerCount: 2
Fore
SplineSet
385 -40 m 1,0,-1
 0 -40 l 1,1,-1
 0 1394 l 1,2,-1
 291 1394 l 1,3,-1
 364 210 l 1,4,-1
 722 217 l 1,5,-1
 715 1394 l 1,6,-1
 970 1390 l 1,7,-1
 1043 226 l 1,8,-1
 1356 237 l 1,9,-1
 1287 1379 l 1,10,-1
 1617 1392 l 1,11,-1
 1635 264 l 1,12,-1
 1641 -29 l 1,13,-1
 385 -40 l 1,0,-1
EndSplineSet
Validated: 1
EndChar

StartChar: afii10043
Encoding: 1065 1065 237
Width: 1926
VWidth: 2008
Flags: W
LayerCount: 2
Fore
SplineSet
385 -40 m 1,0,-1
 0 -40 l 1,1,-1
 0 1394 l 1,2,-1
 291 1394 l 1,3,-1
 370 205 l 1,4,-1
 722 217 l 1,5,-1
 715 1394 l 1,6,-1
 970 1390 l 1,7,-1
 1043 226 l 1,8,-1
 1356 237 l 1,9,-1
 1287 1379 l 1,10,-1
 1617 1392 l 1,11,-1
 1635 264 l 1,12,-1
 1666 264 l 1,13,-1
 1892 262 l 1,14,-1
 1890 -201 l 1,15,-1
 1658 -200 l 1,16,-1
 1659 -28 l 1,17,-1
 1607 -27 l 1,18,-1
 1606 -27 l 1,19,-1
 385 -40 l 1,0,-1
EndSplineSet
Validated: 1
EndChar

StartChar: afii10044
Encoding: 1066 1066 238
Width: 1616
VWidth: 2008
Flags: W
LayerCount: 2
Fore
SplineSet
1512 387 m 0,0,1
 1514 321 1514 321 1491.5 259.5 c 128,-1,2
 1469 198 1469 198 1427.5 147.5 c 128,-1,3
 1386 97 1386 97 1330 61 c 128,-1,4
 1274 25 1274 25 1208 8 c 0,5,6
 1143 -8 1143 -8 1084.5 -18 c 128,-1,7
 1026 -28 1026 -28 974 -33 c 128,-1,8
 922 -38 922 -38 878 -39.5 c 128,-1,9
 834 -41 834 -41 797 -43 c 2,10,-1
 406 -32 l 1,11,-1
 409 1055 l 1,12,-1
 405 1101 l 1,13,-1
 233 1102 l 1,14,-1
 232 930 l 1,15,-1
 0 932 l 1,16,-1
 4 1407 l 1,17,-1
 410 1399 l 1,18,-1
 784 1388 l 1,19,-1
 797 841 l 1,20,21
 831 842 831 842 880 842.5 c 128,-1,22
 929 843 929 843 985 840 c 128,-1,23
 1041 837 1041 837 1101 829 c 128,-1,24
 1161 821 1161 821 1217 804.5 c 128,-1,25
 1273 788 1273 788 1322.5 762.5 c 128,-1,26
 1372 737 1372 737 1407 697 c 1,27,28
 1445 661 1445 661 1466 624.5 c 128,-1,29
 1487 588 1487 588 1497 550.5 c 128,-1,30
 1507 513 1507 513 1509 472 c 128,-1,31
 1511 431 1511 431 1512 387 c 0,0,1
790 271 m 1,32,33
 878 266 878 266 948 272.5 c 128,-1,34
 1018 279 1018 279 1067.5 300 c 128,-1,35
 1117 321 1117 321 1145 359.5 c 128,-1,36
 1173 398 1173 398 1176 456 c 0,37,38
 1180 516 1180 516 1156 553 c 128,-1,39
 1132 590 1132 590 1093 610 c 128,-1,40
 1054 630 1054 630 1006 637 c 128,-1,41
 958 644 958 644 914 644 c 128,-1,42
 870 644 870 644 835.5 641 c 128,-1,43
 801 638 801 638 789 638 c 1,44,-1
 790 271 l 1,32,33
EndSplineSet
Validated: 33
EndChar

StartChar: afii10045
Encoding: 1067 1067 239
Width: 1656
VWidth: 2008
Flags: W
LayerCount: 2
Fore
SplineSet
1597 1375 m 1,0,-1
 1204 1396 l 1,1,-1
 1145 -38 l 1,2,-1
 1538 -58 l 1,3,-1
 1597 1375 l 1,0,-1
389 271 m 1,4,5
 477 266 477 266 547 272.5 c 128,-1,6
 617 279 617 279 666.5 300 c 128,-1,7
 716 321 716 321 744 359.5 c 128,-1,8
 772 398 772 398 775 456 c 0,9,10
 779 516 779 516 755 553 c 128,-1,11
 731 590 731 590 692 610 c 128,-1,12
 653 630 653 630 605 637 c 128,-1,13
 557 644 557 644 513 644 c 128,-1,14
 469 644 469 644 434.5 641 c 128,-1,15
 400 638 400 638 388 638 c 1,16,-1
 389 271 l 1,4,5
1111 387 m 0,17,18
 1113 321 1113 321 1090.5 259.5 c 128,-1,19
 1068 198 1068 198 1026.5 147.5 c 128,-1,20
 985 97 985 97 929 61 c 128,-1,21
 873 25 873 25 807 8 c 0,22,23
 742 -8 742 -8 683.5 -18 c 128,-1,24
 625 -28 625 -28 573 -33 c 128,-1,25
 521 -38 521 -38 477 -39.5 c 128,-1,26
 433 -41 433 -41 396 -43 c 2,27,-1
 5 -32 l 1,28,-1
 9 1399 l 1,29,-1
 383 1388 l 1,30,-1
 396 841 l 1,31,32
 430 842 430 842 479 842.5 c 128,-1,33
 528 843 528 843 584 840 c 128,-1,34
 640 837 640 837 700 829 c 128,-1,35
 760 821 760 821 816 804.5 c 128,-1,36
 872 788 872 788 921.5 762.5 c 128,-1,37
 971 737 971 737 1006 697 c 1,38,39
 1044 661 1044 661 1065 624.5 c 128,-1,40
 1086 588 1086 588 1096 550.5 c 128,-1,41
 1106 513 1106 513 1108 472 c 128,-1,42
 1110 431 1110 431 1111 387 c 0,17,18
EndSplineSet
Validated: 41
EndChar

StartChar: afii10046
Encoding: 1068 1068 240
Width: 1215
VWidth: 2008
Flags: W
LayerCount: 2
Fore
SplineSet
389 271 m 1,0,1
 477 266 477 266 547 272.5 c 128,-1,2
 617 279 617 279 666.5 300 c 128,-1,3
 716 321 716 321 744 359.5 c 128,-1,4
 772 398 772 398 775 456 c 0,5,6
 779 516 779 516 755 553 c 128,-1,7
 731 590 731 590 692 610 c 128,-1,8
 653 630 653 630 605 637 c 128,-1,9
 557 644 557 644 513 644 c 128,-1,10
 469 644 469 644 434.5 641 c 128,-1,11
 400 638 400 638 388 638 c 1,12,-1
 389 271 l 1,0,1
1111 387 m 0,13,14
 1113 321 1113 321 1090.5 259.5 c 128,-1,15
 1068 198 1068 198 1026.5 147.5 c 128,-1,16
 985 97 985 97 929 61 c 128,-1,17
 873 25 873 25 807 8 c 0,18,19
 742 -8 742 -8 683.5 -18 c 128,-1,20
 625 -28 625 -28 573 -33 c 128,-1,21
 521 -38 521 -38 477 -39.5 c 128,-1,22
 433 -41 433 -41 396 -43 c 2,23,-1
 5 -32 l 1,24,-1
 9 1399 l 1,25,-1
 383 1388 l 1,26,-1
 396 841 l 1,27,28
 430 842 430 842 479 842.5 c 128,-1,29
 528 843 528 843 584 840 c 128,-1,30
 640 837 640 837 700 829 c 128,-1,31
 760 821 760 821 816 804.5 c 128,-1,32
 872 788 872 788 921.5 762.5 c 128,-1,33
 971 737 971 737 1006 697 c 1,34,35
 1044 661 1044 661 1065 624.5 c 128,-1,36
 1086 588 1086 588 1096 550.5 c 128,-1,37
 1106 513 1106 513 1108 472 c 128,-1,38
 1110 431 1110 431 1111 387 c 0,13,14
EndSplineSet
Validated: 33
EndChar

StartChar: afii10047
Encoding: 1069 1069 241
Width: 1351
VWidth: 2008
Flags: W
LayerCount: 2
Fore
SplineSet
150 335 m 1,0,1
 203 301 203 301 276.5 285 c 128,-1,2
 350 269 350 269 430.5 270.5 c 128,-1,3
 511 272 511 272 592 290.5 c 128,-1,4
 673 309 673 309 740 346 c 1,5,6
 810 361 810 361 916 485 c 1,7,-1
 478 486 l 1,8,-1
 478 678 l 1,9,-1
 923 675 l 2,10,11
 926 674 926 674 916 718 c 0,12,13
 900 786 900 786 863.5 837.5 c 128,-1,14
 827 889 827 889 776.5 924.5 c 128,-1,15
 726 960 726 960 672 982.5 c 128,-1,16
 618 1005 618 1005 566.5 1015 c 128,-1,17
 515 1025 515 1025 476 1025 c 1,18,19
 412 1032 412 1032 348.5 1026.5 c 128,-1,20
 285 1021 285 1021 231 1008.5 c 128,-1,21
 177 996 177 996 135.5 979.5 c 128,-1,22
 94 963 94 963 73 949 c 1,23,-1
 73 1314 l 1,24,25
 80 1321 80 1321 117 1336.5 c 128,-1,26
 154 1352 154 1352 213.5 1368.5 c 128,-1,27
 273 1385 273 1385 350.5 1397.5 c 128,-1,28
 428 1410 428 1410 515 1410 c 0,29,30
 649 1410 649 1410 762 1381 c 128,-1,31
 875 1352 875 1352 966.5 1299.5 c 128,-1,32
 1058 1247 1058 1247 1126.5 1174.5 c 128,-1,33
 1195 1102 1195 1102 1240 1014.5 c 128,-1,34
 1285 927 1285 927 1306 827.5 c 128,-1,35
 1327 728 1327 728 1322 622 c 1,36,37
 1322 526 1322 526 1291.5 439 c 128,-1,38
 1261 352 1261 352 1207.5 277.5 c 128,-1,39
 1154 203 1154 203 1081 142.5 c 128,-1,40
 1008 82 1008 82 922.5 39 c 128,-1,41
 837 -4 837 -4 742.5 -27 c 128,-1,42
 648 -50 648 -50 552 -50 c 0,43,44
 502 -50 502 -50 446.5 -46 c 128,-1,45
 391 -42 391 -42 337 -31.5 c 128,-1,46
 283 -21 283 -21 234.5 -2 c 128,-1,47
 186 17 186 17 150 46 c 1,48,-1
 150 335 l 1,0,1
EndSplineSet
Validated: 33
EndChar

StartChar: afii10048
Encoding: 1070 1070 242
Width: 2198
VWidth: 2008
Flags: W
LayerCount: 2
Fore
SplineSet
1345 236 m 0,0,1
 1438 236 1438 236 1517 269 c 128,-1,2
 1596 302 1596 302 1653.5 357.5 c 128,-1,3
 1711 413 1711 413 1743.5 485.5 c 128,-1,4
 1776 558 1776 558 1776 638 c 0,5,6
 1776 726 1776 726 1743.5 799.5 c 128,-1,7
 1711 873 1711 873 1653.5 925.5 c 128,-1,8
 1596 978 1596 978 1517 1007.5 c 128,-1,9
 1438 1037 1438 1037 1345 1037 c 0,10,11
 1260 1037 1260 1037 1185.5 1007.5 c 128,-1,12
 1111 978 1111 978 1055.5 925.5 c 128,-1,13
 1000 873 1000 873 968 799.5 c 128,-1,14
 936 726 936 726 936 638 c 0,15,16
 936 558 936 558 968 485.5 c 128,-1,17
 1000 413 1000 413 1055.5 357.5 c 128,-1,18
 1111 302 1111 302 1185.5 269 c 128,-1,19
 1260 236 1260 236 1345 236 c 0,0,1
396 -42 m 1,20,-1
 9 -34 l 1,21,-1
 29 1402 l 1,22,-1
 406 1391 l 1,23,-1
 398 680 l 1,24,-1
 602 678 l 1,25,-1
 602 679 l 2,26,27
 602 781 602 781 628.5 876 c 128,-1,28
 655 971 655 971 703 1053 c 128,-1,29
 751 1135 751 1135 818.5 1203 c 128,-1,30
 886 1271 886 1271 968.5 1319 c 128,-1,31
 1051 1367 1051 1367 1146.5 1393.5 c 128,-1,32
 1242 1420 1242 1420 1345 1420 c 0,33,34
 1454 1420 1454 1420 1553 1393.5 c 128,-1,35
 1652 1367 1652 1367 1736.5 1319 c 128,-1,36
 1821 1271 1821 1271 1890 1203 c 128,-1,37
 1959 1135 1959 1135 2007.5 1053 c 128,-1,38
 2056 971 2056 971 2082.5 876 c 128,-1,39
 2109 781 2109 781 2109 679 c 0,40,41
 2109 578 2109 578 2082.5 484.5 c 128,-1,42
 2056 391 2056 391 2007.5 310 c 128,-1,43
 1959 229 1959 229 1890 162.5 c 128,-1,44
 1821 96 1821 96 1736.5 49 c 128,-1,45
 1652 2 1652 2 1553 -24 c 128,-1,46
 1454 -50 1454 -50 1345 -50 c 0,47,48
 1242 -50 1242 -50 1146.5 -24 c 128,-1,49
 1051 2 1051 2 968.5 49 c 128,-1,50
 886 96 886 96 818.5 162.5 c 128,-1,51
 751 229 751 229 703 310 c 128,-1,52
 655 391 655 391 628 484 c 0,53,54
 628 485 628 485 628 486 c 2,55,-1
 398 492 l 1,56,-1
 396 -42 l 1,20,-1
EndSplineSet
Validated: 1
EndChar

StartChar: afii10049
Encoding: 1071 1071 243
Width: 1230
VWidth: 2008
Flags: W
LayerCount: 2
Fore
SplineSet
371 898 m 0,0,1
 366 834 366 834 388.5 795 c 128,-1,2
 411 756 411 756 449.5 734 c 128,-1,3
 488 712 488 712 536 704 c 128,-1,4
 584 696 584 696 629 695.5 c 128,-1,5
 674 695 674 695 710 698 c 128,-1,6
 746 701 746 701 760 701 c 1,7,-1
 760 1074 l 1,8,9
 672 1081 672 1081 603 1076.5 c 128,-1,10
 534 1072 534 1072 484.5 1051.5 c 128,-1,11
 435 1031 435 1031 406.5 993.5 c 128,-1,12
 378 956 378 956 371 898 c 0,0,1
137 681 m 0,13,14
 98 721 98 721 76 758.5 c 128,-1,15
 54 796 54 796 43.5 834 c 128,-1,16
 33 872 33 872 31.5 911 c 128,-1,17
 30 950 30 950 33 994 c 0,18,19
 38 1060 38 1060 66 1121.5 c 128,-1,20
 94 1183 94 1183 137.5 1232.5 c 128,-1,21
 181 1282 181 1282 236 1317 c 128,-1,22
 291 1352 291 1352 350 1365 c 0,23,24
 483 1394 483 1394 585.5 1399 c 128,-1,25
 688 1404 688 1404 760 1404 c 2,26,-1
 1151 1383 l 1,27,-1
 1112 -40 l 1,28,-1
 741 -20 l 1,29,-1
 752 501 l 1,30,-1
 293 -20 l 1,31,-1
 98 155 l 1,32,-1
 477 538 l 1,33,34
 435 543 435 543 388.5 553.5 c 128,-1,35
 342 564 342 564 297 581.5 c 128,-1,36
 252 599 252 599 210.5 623.5 c 128,-1,37
 169 648 169 648 137 681 c 0,13,14
EndSplineSet
Validated: 33
EndChar

StartChar: afii10065
Encoding: 1072 1072 244
Width: 1454
VWidth: 2008
Flags: W
LayerCount: 2
Fore
SplineSet
930 368 m 1,0,-1
 485 368 l 1,1,-1
 348 -40 l 1,2,-1
 0 56 l 1,3,-1
 524 1394 l 1,4,-1
 813 1375 l 1,5,-1
 1356 77 l 1,6,-1
 1085 -22 l 1,7,-1
 930 368 l 1,0,-1
852 542 m 1,8,-1
 678 949 l 1,9,-1
 543 542 l 1,10,-1
 852 542 l 1,8,-1
EndSplineSet
Validated: 1
EndChar

StartChar: afii10066
Encoding: 1073 1073 245
Width: 1181
VWidth: 2008
Flags: W
LayerCount: 2
Fore
SplineSet
396 304 m 1,0,1
 476 300 476 300 542.5 306 c 128,-1,2
 609 312 609 312 657.5 331 c 128,-1,3
 706 350 706 350 733.5 385 c 128,-1,4
 761 420 761 420 764 475 c 0,5,6
 766 535 766 535 742.5 571.5 c 128,-1,7
 719 608 719 608 680.5 627.5 c 128,-1,8
 642 647 642 647 595.5 654 c 128,-1,9
 549 661 549 661 506.5 660.5 c 128,-1,10
 464 660 464 660 431.5 656 c 128,-1,11
 399 652 399 652 388 651 c 1,12,-1
 396 304 l 1,0,1
386 -51 m 1,13,-1
 90 -45 l 1,14,-1
 29 -44 l 1,15,-1
 29 -43 l 1,16,-1
 -1 -43 l 1,17,-1
 14 1056 l 1,18,-1
 19 1379 l 1,19,-1
 1045 1368 l 1,20,-1
 1037 1026 l 1,21,-1
 388 1039 l 1,22,-1
 387 847 l 1,23,24
 449 835 449 835 536 832 c 1,25,26
 770 810 770 810 807 803 c 128,-1,27
 844 796 844 796 868.5 788.5 c 128,-1,28
 893 781 893 781 917 770.5 c 128,-1,29
 941 760 941 760 966 744 c 0,30,31
 1014 715 1014 715 1047.5 669 c 128,-1,32
 1081 623 1081 623 1101.5 572 c 128,-1,33
 1122 521 1122 521 1128 468 c 128,-1,34
 1134 415 1134 415 1127 371 c 0,35,36
 1121 309 1121 309 1095.5 251.5 c 128,-1,37
 1070 194 1070 194 1028 146.5 c 128,-1,38
 986 99 986 99 930 63.5 c 128,-1,39
 874 28 874 28 811 10 c 0,40,41
 747 -9 747 -9 691.5 -20 c 128,-1,42
 636 -31 636 -31 587.5 -37 c 128,-1,43
 539 -43 539 -43 497.5 -45.5 c 128,-1,44
 456 -48 456 -48 420 -49 c 2,45,-1
 386 -48 l 1,46,-1
 386 -51 l 1,13,-1
EndSplineSet
Validated: 33
EndChar

StartChar: afii10067
Encoding: 1074 1074 246
Width: 1229
VWidth: 2008
Flags: W
LayerCount: 2
Fore
SplineSet
396 304 m 1,0,1
 476 300 476 300 542.5 306 c 128,-1,2
 609 312 609 312 657.5 331 c 128,-1,3
 706 350 706 350 733.5 385 c 128,-1,4
 761 420 761 420 764 475 c 0,5,6
 766 535 766 535 742.5 571.5 c 128,-1,7
 719 608 719 608 680.5 627.5 c 128,-1,8
 642 647 642 647 595.5 654 c 128,-1,9
 549 661 549 661 506.5 660.5 c 128,-1,10
 464 660 464 660 431.5 656 c 128,-1,11
 399 652 399 652 388 651 c 1,12,-1
 396 304 l 1,0,1
392 938 m 1,13,14
 431 935 431 935 479 934.5 c 128,-1,15
 527 934 527 934 570.5 945.5 c 128,-1,16
 614 957 614 957 644 984.5 c 128,-1,17
 674 1012 674 1012 678 1066 c 0,18,19
 681 1104 681 1104 664.5 1128 c 128,-1,20
 648 1152 648 1152 620.5 1166 c 128,-1,21
 593 1180 593 1180 558.5 1184.5 c 128,-1,22
 524 1189 524 1189 490.5 1189.5 c 128,-1,23
 457 1190 457 1190 428.5 1187.5 c 128,-1,24
 400 1185 400 1185 385 1183 c 1,25,-1
 392 938 l 1,13,14
1127 371 m 0,26,27
 1121 309 1121 309 1095.5 251.5 c 128,-1,28
 1070 194 1070 194 1028 146.5 c 128,-1,29
 986 99 986 99 930 63.5 c 128,-1,30
 874 28 874 28 811 10 c 0,31,32
 747 -9 747 -9 691.5 -20 c 128,-1,33
 636 -31 636 -31 587.5 -37 c 128,-1,34
 539 -43 539 -43 497.5 -45.5 c 128,-1,35
 456 -48 456 -48 420 -49 c 2,36,-1
 29 -44 l 1,37,-1
 10 1379 l 1,38,-1
 381 1394 l 2,39,40
 425 1395 425 1395 488 1394 c 128,-1,41
 551 1393 551 1393 618.5 1383.5 c 128,-1,42
 686 1374 686 1374 749.5 1351.5 c 128,-1,43
 813 1329 813 1329 858 1287 c 0,44,45
 885 1262 885 1262 903.5 1229 c 128,-1,46
 922 1196 922 1196 931.5 1161 c 128,-1,47
 941 1126 941 1126 942.5 1091 c 128,-1,48
 944 1056 944 1056 936 1026 c 0,49,50
 921 957 921 957 878 908 c 128,-1,51
 835 859 835 859 762 813 c 1,52,53
 792 808 792 808 818 802 c 128,-1,54
 844 796 844 796 868.5 788.5 c 128,-1,55
 893 781 893 781 917 770.5 c 128,-1,56
 941 760 941 760 966 744 c 0,57,58
 1014 715 1014 715 1047.5 669 c 128,-1,59
 1081 623 1081 623 1101.5 572 c 128,-1,60
 1122 521 1122 521 1128 468 c 128,-1,61
 1134 415 1134 415 1127 371 c 0,26,27
EndSplineSet
Validated: 33
EndChar

StartChar: afii10068
Encoding: 1075 1075 247
Width: 1051
VWidth: 2008
Flags: W
LayerCount: 2
Fore
SplineSet
387 -40 m 1,0,-1
 0 -32 l 1,1,-1
 20 1404 l 1,2,-1
 929 1382 l 1,3,-1
 921 1040 l 1,4,-1
 389 1050 l 1,5,-1
 387 -40 l 1,0,-1
EndSplineSet
Validated: 1
EndChar

StartChar: afii10069
Encoding: 1076 1076 248
Width: 1997
VWidth: 2008
Flags: W
LayerCount: 2
Fore
SplineSet
1297 208 m 1,0,-1
 987 949 l 1,1,-1
 750 212 l 1,2,-1
 1297 208 l 1,0,-1
337 -39 m 1,3,-1
 281 -200 l 1,4,-1
 -5 -197 l 1,5,-1
 79 215 l 1,6,-1
 219 216 l 1,7,-1
 250 216 l 1,8,-1
 378 215 l 1,9,-1
 833 1394 l 1,10,-1
 1122 1375 l 1,11,-1
 1605 210 l 1,12,-1
 1732 214 l 1,13,-1
 1763 214 l 1,14,-1
 1896 215 l 1,15,-1
 1964 -206 l 1,16,-1
 1714 -204 l 1,17,-1
 1649 -36 l 1,18,-1
 337 -39 l 1,3,-1
EndSplineSet
Validated: 1
EndChar

StartChar: afii10070
Encoding: 1077 1077 249
Width: 1271
VWidth: 2008
Flags: W
LayerCount: 2
Fore
SplineSet
369 1050 m 1,0,-1
 375 578 l 1,1,-1
 813 578 l 1,2,-1
 813 386 l 1,3,-1
 383 386 l 1,4,-1
 387 230 l 1,5,-1
 1036 251 l 1,6,-1
 1044 -22 l 1,7,-1
 18 -40 l 1,8,-1
 0 1392 l 1,9,-1
 1161 1392 l 1,10,-1
 1161 1050 l 1,11,-1
 369 1050 l 1,0,-1
EndSplineSet
Validated: 1
EndChar

StartChar: afii10072
Encoding: 1078 1078 250
Width: 1936
VWidth: 2008
Flags: W
LayerCount: 2
Fore
SplineSet
1331 631 m 1,0,-1
 1802 166 l 1,1,-1
 1607 -29 l 1,2,-1
 1186 450 l 1,3,-1
 1201 151 l 1,4,-1
 1216 -29 l 1,5,-1
 1210 -30 l 1,6,-1
 821 -50 l 1,7,-1
 817 134 l 1,8,-1
 800 431 l 1,9,-1
 432 -91 l 1,10,-1
 218 83 l 1,11,-1
 638 593 l 1,12,-1
 75 1066 l 1,13,-1
 304 1325 l 1,14,-1
 776 872 l 1,15,-1
 749 1372 l 1,16,-1
 749 1374 l 1,17,-1
 1013 1387 l 1,18,-1
 1139 1394 l 1,19,-1
 1164 893 l 1,20,-1
 1587 1393 l 1,21,-1
 1841 1159 l 1,22,-1
 1331 631 l 1,0,-1
EndSplineSet
Validated: 1
EndChar

StartChar: afii10073
Encoding: 1079 1079 251
Width: 1224
VWidth: 2008
Flags: W
LayerCount: 2
Fore
SplineSet
204 362 m 1,0,1
 323 258 323 258 411 228 c 128,-1,2
 499 198 499 198 558 245 c 0,3,4
 582 269 582 269 578 298.5 c 128,-1,5
 574 328 574 328 549.5 364.5 c 128,-1,6
 525 401 525 401 478.5 433.5 c 128,-1,7
 432 466 432 466 391 478.5 c 128,-1,8
 350 491 350 491 301 502 c 128,-1,9
 252 513 252 513 193 522 c 1,10,11
 192 604 192 604 196 697 c 1,12,13
 452 643 452 643 560 668 c 1,14,15
 622 703 622 703 658 738 c 0,16,17
 695 774 695 774 718 816.5 c 128,-1,18
 741 859 741 859 741 914 c 0,19,20
 737 978 737 978 706.5 1015.5 c 128,-1,21
 676 1053 676 1053 629.5 1067.5 c 128,-1,22
 583 1082 583 1082 525.5 1077 c 128,-1,23
 468 1072 468 1072 408.5 1050.5 c 128,-1,24
 349 1029 349 1029 292.5 994 c 128,-1,25
 236 959 236 959 192 914 c 1,26,-1
 -4 1248 l 1,27,28
 54 1293 54 1293 115 1323 c 128,-1,29
 176 1353 176 1353 242.5 1371.5 c 128,-1,30
 309 1390 309 1390 384 1398 c 128,-1,31
 459 1406 459 1406 546 1406 c 0,32,33
 648 1406 648 1406 741.5 1381 c 128,-1,34
 835 1356 835 1356 910.5 1310.5 c 128,-1,35
 986 1265 986 1265 1039.5 1200 c 128,-1,36
 1093 1135 1093 1135 1116 1054 c 1,37,38
 1130 990 1130 990 1124 934.5 c 128,-1,39
 1118 879 1118 879 1100 832.5 c 128,-1,40
 1082 786 1082 786 1056 749 c 128,-1,41
 1030 712 1030 712 1005.5 685 c 128,-1,42
 981 658 981 658 962 642 c 128,-1,43
 943 626 943 626 770 501 c 1,44,45
 795 475 795 475 816 446 c 0,46,47
 850 399 850 399 867.5 340 c 128,-1,48
 885 281 885 281 878 204 c 0,49,50
 871 130 871 130 836 78.5 c 128,-1,51
 801 27 801 27 749 -4 c 128,-1,52
 697 -35 697 -35 632.5 -47 c 128,-1,53
 568 -59 568 -59 501 -54 c 0,54,55
 460 -51 460 -51 420 -43 c 128,-1,56
 380 -35 380 -35 342 -23 c 128,-1,57
 304 -11 304 -11 269 3 c 128,-1,58
 234 17 234 17 204 31 c 0,59,60
 133 64 133 64 69 106 c 1,61,62
 107 177 107 177 137 233 c 0,63,64
 150 257 150 257 162 280 c 128,-1,65
 174 303 174 303 183.5 321 c 128,-1,66
 193 339 193 339 198.5 350 c 128,-1,67
 204 361 204 361 204 362 c 1,0,1
EndSplineSet
Validated: 33
EndChar

StartChar: afii10074
Encoding: 1080 1080 252
Width: 1345
VWidth: 2008
Flags: W
LayerCount: 2
Fore
SplineSet
385 -40 m 1,0,-1
 0 -40 l 1,1,-1
 0 1394 l 1,2,-1
 291 1394 l 1,3,-1
 374 494 l 1,4,-1
 887 1379 l 1,5,-1
 1217 1392 l 1,6,-1
 1239 -1 l 1,7,-1
 969 -22 l 1,8,-1
 910 910 l 1,9,-1
 385 -40 l 1,0,-1
EndSplineSet
Validated: 1
EndChar

StartChar: afii10075
Encoding: 1081 1081 253
Width: 1345
VWidth: 2008
Flags: W
LayerCount: 2
Fore
SplineSet
385 -40 m 1,0,-1
 0 -40 l 1,1,-1
 0 1394 l 1,2,-1
 291 1394 l 1,3,-1
 374 494 l 1,4,-1
 887 1379 l 1,5,-1
 1217 1392 l 1,6,-1
 1239 -1 l 1,7,-1
 969 -22 l 1,8,-1
 910 910 l 1,9,-1
 385 -40 l 1,0,-1
833 1778 m 1,10,-1
 942 1700 l 1,11,-1
 605 1376 l 1,12,-1
 279 1690 l 1,13,-1
 401 1774 l 1,14,-1
 622 1567 l 1,15,-1
 833 1778 l 1,10,-1
EndSplineSet
Validated: 1
EndChar

StartChar: afii10076
Encoding: 1082 1082 254
Width: 1185
VWidth: 2008
Flags: W
LayerCount: 2
Fore
SplineSet
582 640 m 1,0,-1
 1053 175 l 1,1,-1
 858 -20 l 1,2,-1
 426 472 l 1,3,-1
 467 -20 l 1,4,-1
 78 -40 l 1,5,-1
 0 1383 l 1,6,-1
 389 1402 l 1,7,-1
 410 896 l 1,8,-1
 838 1402 l 1,9,-1
 1092 1168 l 1,10,-1
 582 640 l 1,0,-1
EndSplineSet
Validated: 1
EndChar

StartChar: afii10077
Encoding: 1083 1083 255
Width: 1578
VWidth: 2008
Flags: W
LayerCount: 2
Fore
SplineSet
1115 -42 m 1,0,-1
 738 955 l 1,1,-1
 337 -16 l 1,2,-1
 48 79 l 1,3,-1
 621 1400 l 1,4,-1
 941 1420 l 1,5,-1
 1529 60 l 1,6,-1
 1115 -42 l 1,0,-1
EndSplineSet
Validated: 1
EndChar

StartChar: afii10078
Encoding: 1084 1084 256
Width: 1575
VWidth: 2008
Flags: W
LayerCount: 2
Fore
SplineSet
782 353 m 1,0,-1
 1180 1353 l 1,1,-1
 1450 1361 l 1,2,-1
 1473 -1 l 1,3,-1
 1151 -5 l 1,4,-1
 1147 734 l 1,5,-1
 823 -48 l 1,6,-1
 678 -32 l 1,7,-1
 365 652 l 1,8,-1
 387 -38 l 1,9,-1
 23 -38 l 1,10,-1
 4 1392 l 1,11,-1
 311 1392 l 1,12,-1
 782 353 l 1,0,-1
EndSplineSet
Validated: 1
EndChar

StartChar: afii10079
Encoding: 1085 1085 257
Width: 1558
VWidth: 2008
Flags: W
LayerCount: 2
Fore
SplineSet
1413 1390 m 1,0,-1
 1456 -7 l 1,1,-1
 1124 -22 l 1,2,-1
 1112 382 l 1,3,-1
 430 368 l 1,4,-1
 430 -40 l 1,5,-1
 2 -40 l 1,6,-1
 0 1359 l 1,7,-1
 428 1359 l 1,8,-1
 428 601 l 1,9,-1
 1102 619 l 1,10,-1
 1075 1377 l 1,11,-1
 1413 1390 l 1,0,-1
EndSplineSet
Validated: 1
EndChar

StartChar: afii10080
Encoding: 1086 1086 258
Width: 1596
VWidth: 2008
Flags: W
LayerCount: 2
Fore
SplineSet
743 1420 m 0,0,1
 852 1420 852 1420 951 1393.5 c 128,-1,2
 1050 1367 1050 1367 1134.5 1319 c 128,-1,3
 1219 1271 1219 1271 1288 1203 c 128,-1,4
 1357 1135 1357 1135 1405.5 1053 c 128,-1,5
 1454 971 1454 971 1480.5 876 c 128,-1,6
 1507 781 1507 781 1507 679 c 0,7,8
 1507 578 1507 578 1480.5 484.5 c 128,-1,9
 1454 391 1454 391 1405.5 310 c 128,-1,10
 1357 229 1357 229 1288 162.5 c 128,-1,11
 1219 96 1219 96 1134.5 49 c 128,-1,12
 1050 2 1050 2 951 -24 c 128,-1,13
 852 -50 852 -50 743 -50 c 0,14,15
 640 -50 640 -50 544.5 -24 c 128,-1,16
 449 2 449 2 366.5 49 c 128,-1,17
 284 96 284 96 216.5 162.5 c 128,-1,18
 149 229 149 229 101 310 c 128,-1,19
 53 391 53 391 26.5 484 c 128,-1,20
 0 577 0 577 0 679 c 256,21,22
 0 781 0 781 26.5 876 c 128,-1,23
 53 971 53 971 101 1053 c 128,-1,24
 149 1135 149 1135 216.5 1203 c 128,-1,25
 284 1271 284 1271 366.5 1319 c 128,-1,26
 449 1367 449 1367 544.5 1393.5 c 128,-1,27
 640 1420 640 1420 743 1420 c 0,0,1
743 236 m 0,28,29
 836 236 836 236 915 269 c 128,-1,30
 994 302 994 302 1051.5 357.5 c 128,-1,31
 1109 413 1109 413 1141.5 485.5 c 128,-1,32
 1174 558 1174 558 1174 638 c 0,33,34
 1174 726 1174 726 1141.5 799.5 c 128,-1,35
 1109 873 1109 873 1051.5 925.5 c 128,-1,36
 994 978 994 978 915 1007.5 c 128,-1,37
 836 1037 836 1037 743 1037 c 0,38,39
 658 1037 658 1037 583.5 1007.5 c 128,-1,40
 509 978 509 978 453.5 925.5 c 128,-1,41
 398 873 398 873 366 799.5 c 128,-1,42
 334 726 334 726 334 638 c 0,43,44
 334 558 334 558 366 485.5 c 128,-1,45
 398 413 398 413 453.5 357.5 c 128,-1,46
 509 302 509 302 583.5 269 c 128,-1,47
 658 236 658 236 743 236 c 0,28,29
EndSplineSet
Validated: 1
EndChar

StartChar: afii10081
Encoding: 1087 1087 259
Width: 1558
VWidth: 2008
Flags: W
LayerCount: 2
Fore
SplineSet
1413 1390 m 1,0,-1
 1456 -7 l 1,1,-1
 1124 -22 l 1,2,-1
 1083 1109 l 1,3,-1
 423 1094 l 1,4,-1
 430 -40 l 1,5,-1
 2 -40 l 1,6,-1
 0 1359 l 1,7,-1
 1413 1390 l 1,0,-1
EndSplineSet
Validated: 1
EndChar

StartChar: afii10082
Encoding: 1088 1088 260
Width: 1215
VWidth: 2008
Flags: W
LayerCount: 2
Fore
SplineSet
1116 998 m 0,0,1
 1116 954 1116 954 1114.5 913 c 128,-1,2
 1113 872 1113 872 1104 834 c 128,-1,3
 1095 796 1095 796 1075 759 c 128,-1,4
 1055 722 1055 722 1018 685 c 1,5,6
 984 645 984 645 935 618 c 128,-1,7
 886 591 886 591 830.5 573.5 c 128,-1,8
 775 556 775 556 715 546.5 c 128,-1,9
 655 537 655 537 599.5 532.5 c 128,-1,10
 544 528 544 528 495 527.5 c 128,-1,11
 446 527 446 527 412 527 c 1,12,-1
 412 -20 l 1,13,-1
 39 -40 l 1,14,-1
 0 1390 l 1,15,-1
 391 1410 l 2,16,17
 428 1410 428 1410 472 1409.5 c 128,-1,18
 516 1409 516 1409 567.5 1405 c 128,-1,19
 619 1401 619 1401 678 1392.5 c 128,-1,20
 737 1384 737 1384 803 1369 c 256,21,22
 869 1354 869 1354 926 1319 c 128,-1,23
 983 1284 983 1284 1025.5 1234.5 c 128,-1,24
 1068 1185 1068 1185 1092 1124.5 c 128,-1,25
 1116 1064 1116 1064 1116 998 c 0,0,1
399 730 m 1,26,27
 411 730 411 730 445.5 728 c 128,-1,28
 480 726 480 726 524 727 c 128,-1,29
 568 728 568 728 616 736 c 128,-1,30
 664 744 664 744 702.5 765 c 128,-1,31
 741 786 741 786 764 823.5 c 128,-1,32
 787 861 787 861 782 921 c 0,33,34
 777 979 777 979 748.5 1016.5 c 128,-1,35
 720 1054 720 1054 670 1074 c 128,-1,36
 620 1094 620 1094 549.5 1099 c 128,-1,37
 479 1104 479 1104 391 1097 c 1,38,-1
 399 730 l 1,26,27
EndSplineSet
Validated: 33
EndChar

StartChar: afii10083
Encoding: 1089 1089 261
Width: 1351
VWidth: 2008
Flags: W
LayerCount: 2
Fore
SplineSet
1185 46 m 1,0,1
 1149 17 1149 17 1100.5 -2 c 128,-1,2
 1052 -21 1052 -21 998 -31.5 c 128,-1,3
 944 -42 944 -42 888.5 -46 c 128,-1,4
 833 -50 833 -50 783 -50 c 0,5,6
 687 -50 687 -50 592.5 -27 c 128,-1,7
 498 -4 498 -4 412.5 39 c 128,-1,8
 327 82 327 82 254 142.5 c 128,-1,9
 181 203 181 203 127.5 277.5 c 128,-1,10
 74 352 74 352 43.5 439 c 128,-1,11
 13 526 13 526 13 622 c 1,12,13
 8 728 8 728 29 827.5 c 128,-1,14
 50 927 50 927 95 1014.5 c 128,-1,15
 140 1102 140 1102 208.5 1174.5 c 128,-1,16
 277 1247 277 1247 368.5 1299.5 c 128,-1,17
 460 1352 460 1352 573 1381 c 128,-1,18
 686 1410 686 1410 820 1410 c 0,19,20
 907 1410 907 1410 984.5 1397.5 c 128,-1,21
 1062 1385 1062 1385 1121.5 1368.5 c 128,-1,22
 1181 1352 1181 1352 1218 1336.5 c 128,-1,23
 1255 1321 1255 1321 1262 1314 c 1,24,-1
 1262 949 l 1,25,26
 1241 963 1241 963 1199.5 979.5 c 128,-1,27
 1158 996 1158 996 1104 1008.5 c 128,-1,28
 1050 1021 1050 1021 986.5 1026.5 c 128,-1,29
 923 1032 923 1032 859 1025 c 1,30,31
 820 1025 820 1025 768.5 1015 c 128,-1,32
 717 1005 717 1005 663 982.5 c 128,-1,33
 609 960 609 960 558.5 924.5 c 128,-1,34
 508 889 508 889 471.5 837.5 c 128,-1,35
 435 786 435 786 419 718 c 128,-1,36
 403 650 403 650 417 564 c 0,37,38
 431 492 431 492 479 437.5 c 128,-1,39
 527 383 527 383 594.5 346 c 128,-1,40
 662 309 662 309 743 290.5 c 128,-1,41
 824 272 824 272 904.5 270.5 c 128,-1,42
 985 269 985 269 1058.5 285 c 128,-1,43
 1132 301 1132 301 1185 335 c 1,44,-1
 1185 46 l 1,0,1
EndSplineSet
Validated: 33
EndChar

StartChar: afii10084
Encoding: 1090 1090 262
Width: 1377
VWidth: 2008
Flags: W
LayerCount: 2
Fore
SplineSet
797 1086 m 1,0,-1
 815 -26 l 1,1,-1
 446 -40 l 1,2,-1
 426 1074 l 1,3,-1
 10 1054 l 1,4,-1
 0 1357 l 1,5,-1
 1260 1396 l 1,6,-1
 1270 1105 l 1,7,-1
 797 1086 l 1,0,-1
EndSplineSet
Validated: 1
EndChar

StartChar: afii10085
Encoding: 1091 1091 263
Width: 1532
VWidth: 2008
Flags: W
LayerCount: 2
Fore
SplineSet
1479 1318 m 1,0,-1
 891 -42 l 1,1,-1
 571 -22 l 1,2,-1
 737 555 l 1,3,-1
 -2 1299 l 1,4,-1
 287 1394 l 1,5,-1
 843 828 l 1,6,-1
 1065 1420 l 1,7,-1
 1479 1318 l 1,0,-1
EndSplineSet
Validated: 1
EndChar

